<svg xmlns="http://www.w3.org/2000/svg" viewBox="0 0 723 555"><defs><style>.cls-1{fill:#fee9f2;}.cls-2{fill:#fefefe;}.cls-3{fill:#4b4c78;}.cls-4{fill:#f9cf48;}.cls-5{fill:#2a0801;}.cls-6{fill:#fd3493;}.cls-7{fill:#fdc5e0;}.cls-8{fill:#fe3494;}.cls-9{fill:#fc3595;}.cls-10{fill:#fc3495;}.cls-11{fill:#714137;}.cls-12{fill:#45456c;}.cls-13{fill:#f13e8f;}.cls-14{fill:#fde6e1;}.cls-15{fill:#f9dfd1;}.cls-16{fill:#f8dabd;}.cls-17{fill:#f4d26e;}.cls-18{fill:#f3d268;}.cls-19{fill:#985f7e;}.cls-20{fill:#ba3676;}.cls-21{fill:#fce2da;}.cls-22{fill:#f4d270;}.cls-23{fill:#776d79;}.cls-24{fill:#f6d699;}.cls-25{fill:#f3d391;}.cls-26{fill:#675d62;}.cls-27{fill:#f3d280;}.cls-28{fill:#f6debe;}.cls-29{fill:#f5d58a;}.cls-30{fill:#8288a5;}.cls-31{fill:#fd3494;}.cls-32{fill:#7f6175;}.cls-33{fill:#79767c;}.cls-34{fill:#706a72;}.cls-35{fill:#c45487;}.cls-36{fill:#f7eef8;}.cls-37{fill:#78767b;}.cls-38{fill:#727176;}.cls-39{fill:#9f6182;}.cls-40{fill:#7c7a7f;}.cls-41{fill:#acaabe;}.cls-42{fill:#acacbf;}.cls-43{fill:#fcedfa;}.cls-44{fill:#7a6873;}.cls-45{fill:#685661;}.cls-46{fill:#46456d;}.cls-47{fill:#45446c;}.cls-48{fill:#6e5939;}.cls-49{fill:#e0c99a;}.cls-50{fill:#5e4727;}.cls-51{fill:#643b33;}.cls-52{fill:#e7cd6e;}.cls-53{fill:#ecc444;}.cls-54{fill:#fde8e1;}.cls-55{fill:#f1bd70;}.cls-56{fill:#f8cb56;}.cls-57{fill:#cfcabd;}.cls-58{fill:#f4be6d;}.cls-59{fill:#fac962;}.cls-60{fill:#f5bc76;}.cls-61{fill:#dec68c;}.cls-62{fill:#fde5c3;}.cls-63{fill:#fec165;}.cls-64{fill:#ebd673;}.cls-65{fill:#f4d371;}.cls-66{fill:#fb3595;}.cls-67{fill:#e15191;}.cls-68{fill:#fe58a9;}.cls-69{fill:#fe57a9;}.cls-70{fill:#fe55a9;}.cls-71{fill:#cdcdd6;}</style></defs><g id="Calque_2" data-name="Calque 2"><g id="Calque_1-2" data-name="Calque 1"><path class="cls-1" d="M722.9,288v18c-2.08,22.32-13.57,40.15-28.1,56-11.25,12.27-26.09,19.37-42,23.94a279.6,279.6,0,0,1-53,9.54c-3.25.28-6.36,2.36-9.75.84a2,2,0,0,1-.44-2.14c1.79-2.67,4.81-3.36,7.5-4.55,3.95-1.74,7.94-3.39,11.2-6.32,2.9-2.61,4.64-5.7,3.12-9.71a8.94,8.94,0,0,0-8.73-6.18c-4.34-.11-7.28,2-8.72,6a48.59,48.59,0,0,0-2.58,9.58c-.26,1.79-.28,3.7-2.22,4.7a4.91,4.91,0,0,1-2.21.34c-3-.41-3.61-3.05-4.78-5.21-2.42-4.47-7.07-6.36-11.29-4.67s-6.42,6.23-5.31,11.11c.62,2.72,2.6,4.14,4.77,5.44,1.56.94,3.31,1.59,4.62,2.9.94.94,2.08,2,.11,3.11-21.64.11-42.93,4.19-64.46,5.48-5.63.33-11.21,1.42-16.88,1.2-2-.92-2.23-2.83-2.25-4.64-.11-13.36-3.86-26.28-4.64-39.57-.87-15-1.12-29.78,5-44.1,5.83-13.62,6.09-27.79,1.64-42a24.45,24.45,0,0,1-1.43-5.78,20.58,20.58,0,0,0-.39-8.33,14.69,14.69,0,0,1,.22-7.83,15,15,0,0,0-.37-10.62c-.2-.46-.55-1-.39-1.41,1.82-4.47-.85-8.52-1.28-12.75-.34-3.28.82-3.86,3.37-3.82s5.3,0,8,.07c2.36.08,4.24-.57,5.34-2.79.62-2,1.92-3.65,2.58-5.63a9.29,9.29,0,0,1,.7-1.23c1.42-2.29.61-4.77.63-7.18.22-9.47,1.71-18.79,3.32-28.06.78-4.47,0-9,1.12-13.38,2.65-4.34,1-9.37,2.21-13.94,2.38-7.29,3.47-14.54-.48-21.72-1.16-2.12-3-3.94-3.05-6.61.45-1.84,1.78-3.17,2.72-4.72a13.11,13.11,0,0,0,.94-12.87c-1.44-3.17-2.4-6.59-4.6-9.38-1.44-1.82-1.62-3.84-1.44-6.11.51-6.65,1.77-13.2,2.93-19.72,1.47-8.22.58-16.2-.62-24.25A10.33,10.33,0,0,0,512,44.87c-3.16-4.92-19.53-11.31-25.08-9.26-5.89,2.17-11.2,2-16.72-1.12-3.48-2-7.49-2.6-11.52-3-5.72-.49-10.33.7-13.55,6.14-2.56,4.32-7.18,6.34-11.78,8a22.92,22.92,0,0,0-12.15,9.84c-2.12,3.38-1.95,6.46.73,9.57,5.3,6.2,5.23,6.25.87,13.25-5.59,9-5.53,13.32.88,21.75A12.92,12.92,0,0,1,426,111.32c-1.27,3.24-3.93,4.1-7.06,4.16-2.42.4-5.17-1.32-7.26,1.16a2.59,2.59,0,0,1-.95.85,12.56,12.56,0,0,0-6.22,3,40.78,40.78,0,0,0-3.72,3.6,6.93,6.93,0,0,1-1,.83,4.11,4.11,0,0,0-2.34,4.33,52.82,52.82,0,0,0,.14,5.34c-1.73,8.63-1.08,17.61-4,26.05-2.61,6.37-2.85,13.22-3.54,19.9-.76,7.38-2.44,14.65-2.59,22.1a17.4,17.4,0,0,0,1.14,6.79,15.63,15.63,0,0,0,2.92,4.16c.62.73,1.2,1.49,1.87,2.17,2.7,1.67,5.28.53,7.91-.26s5.26-1,5.77,2.85a238.26,238.26,0,0,0-7.68,39.16c-.11,1-.19,2.24-1,2.73-2.26,1.39.35,2,.33,3.06-.8,9.13-4,17.87-4.44,27-1,20.47-6.45,40.42-7.36,60.86a222.61,222.61,0,0,0,4.56,55c3.84,18.56,8,37.06,11.36,55.71a23.5,23.5,0,0,0,5.91,12.93,2.76,2.76,0,0,1-.57,2.2c-5.17.33-6.93-3.33-8-7.28-1.46-5.46-2.6-11-3.63-16.59-2.43-13.1-5.57-26.06-8.11-39.14-1.52-7.86-1.7-7.81-9.39-9-35.76-5.41-71.14-12.72-106.21-21.5-22.94-5.75-44.19-15.52-64.57-27.52-25-14.7-49.76-29.63-73.92-45.65-32.1-21.28-60-46.74-82.62-78.15-13-18.09-23.52-37.46-33-57.49A236.3,236.3,0,0,1,2.4,129.25C.87,122.92,1.25,116.41.09,110.06v-22c1-9.61,2.76-18.87,7.47-27.6,8.61-16,21.26-27.48,37-36,27.17-14.67,56.52-19.92,87-21,38-1.41,75.34,3.24,112.65,9.47,19.07,3.18,37.78,8,56.8,11.42,29.4,5.3,58.33,3.4,87.16-3.4C412,15.31,435.45,8.17,459.3,2.64,466.13,1.05,473.11,1.17,480,.11h23c5.21.93,10.53.6,15.74,1.68,19.22,4,36.69,12.07,52.83,22.91A269.4,269.4,0,0,1,616.36,62c14.37,15,22.36,32.64,20.88,53.72-.73,10.28-2.29,20.5-3.88,30.7-1.92,12.31-4.14,24.58-2.07,37.2a53.73,53.73,0,0,0,16.27,30.76c11.45,11,24.9,19.44,38.11,28.12,12.16,8,23.61,16.65,31.75,29.17C720.76,276.83,721.45,282.44,722.9,288Z"/><path class="cls-2" d="M.09,110.06c1.65,7.89,3.05,15.83,5,23.64,3.26,13,8.18,25.5,13.58,37.81,6.48,14.76,14.46,28.71,22.22,42.77,3.33,6,7.94,11.39,12,17,9.94,13.71,20.42,27,32.75,38.66a330.9,330.9,0,0,0,35.51,29.59c15.14,10.73,30.58,21,46.43,30.62,13,7.88,26,15.68,39.25,23.22,12.46,7.11,24.92,14.05,38.15,19.55a240.72,240.72,0,0,0,34.63,10.92c23.46,5.84,47.18,10.46,70.89,15.1,10.53,2.06,21.2,3.44,31.84,5,3.09.44,5.32.68,6.12,4.69,3.94,19.63,8.41,39.16,12.41,58.78.92,4.46,2.71,7.75,6.92,9.56,3.92,2.82,3.26,6.86,2.9,10.82a6.85,6.85,0,0,1-4,3.17c-9.31,2.08-18.84,1.69-28.27,2.46-28.22,2.31-56.31,5.22-83.42,14-6.3,2-12.62,4.28-17.83,8.69-4.48,3.8-4.68,7.83-.26,11.79,6,5.37,13.44,8,20.93,10.17,24.55,7.14,49.79,10.25,75.18,12.41,10.76.91,21.49,2.17,32.33,2,1.79,0,4.17-.37,4.66,2.45q-202.83,0-405.66.1C.7,555,0,554.22,0,550.64Q.17,330.35.09,110.06Z"/><path class="cls-2" d="M722.9,288c-3.22-5.35-3.9-11.67-7.7-17a88.21,88.21,0,0,0-22.58-22c-16.07-11-33.16-20.75-47.16-34.45a53.18,53.18,0,0,1-15.63-30.9c-2-13.74.85-26.94,2.68-40.37,1.62-11.93,4.14-23.86,3.38-36a64.24,64.24,0,0,0-15-37.65C610,56.29,596.87,45.42,583.36,34.93c-17.46-13.55-36.51-24.14-57.75-30.2C519.37,3,512.91.81,506.16,1.09c-1.17,0-2.36.07-3.2-1q108,0,215.94-.1c3.43,0,4.1.67,4.1,4.09Q722.82,146.06,722.9,288Z"/><path class="cls-2" d="M589.87,396c17.87-3.23,36-4.55,53.72-8.92,13.09-3.25,25.68-7.82,37.07-15.06,9.57-6.09,17.16-14.44,23.59-23.75a118.84,118.84,0,0,0,17-35.65c.61-2.19-.27-4.77,1.66-6.58q0,122.46.1,244.91c0,3.43-.67,4.1-4.1,4.1q-123-.19-245.93-.1c.48-2.83,2.86-2.42,4.65-2.43,23.5-.1,46.76-3,70-6.2,16.12-2.25,32.1-5.58,47.39-11.5a41.59,41.59,0,0,0,10.4-5.85c6-4.59,6-9.28-.16-13.65-7-4.94-15-7.86-23.16-10.22-3.52-1-7.08-1.86-10.64-2.69s-5.47-2.54-5.62-6.42c-.14-3.32-.2-6.64-.26-10a7.19,7.19,0,0,1,.85-3.94c2-2,4.63-1.55,7-1.52a49.44,49.44,0,0,0,14.28-1.64c3.9-1.11,6.3-3.49,6.67-7.68a8.46,8.46,0,0,0-4.61-8.69c-3.53-1.93-6.93-1.44-10,1.4-2.21,2-4.54,3.85-6.26,6.33-2.48.84-2.92,5.38-6.77,3.76-1.17-3.48,0-6.7,1-9.95a27.11,27.11,0,0,0,2.26-7,79.58,79.58,0,0,1,5.93-14.1c1.12-1.89,1.91-4,3.56-5.56a4.47,4.47,0,0,1,2.84-1.06,54.42,54.42,0,0,1,7,.66,40.65,40.65,0,0,0,14.59,0c7.39-4.53,8.69-10.3,3.42-15.12-3.24-3-6.81-3.08-10.58-1.19-2.88,1.44-5,3.82-7,6.19-1.3,1.49-2.48,3.23-4.91,2.68-2.88-2.58.58-5.13,0-7.7a54.64,54.64,0,0,1,2.13-7.42c1.08-3,.35-6.38,1.49-9.42C589,402,587.54,398.67,589.87,396Z"/><path class="cls-1" d="M566.86,485.79c.3,4.57-1,10.28,1.32,13.4s8.5,2.77,13,4a99.64,99.64,0,0,1,23.43,9.64c9.12,5.14,9.51,12.23.9,18-8.78,5.91-18.68,9.07-29,11.13-7,1.38-13.87,3.11-20.83,4.55-11.19,2.31-22.55,3.3-33.9,4.42-15.66,1.54-31.29,3.53-47.08,3.1-.56,0-1.13.57-1.7.88H410c-1.16-1.35-2.74-1-4.2-1-22.21-.24-44.2-2.82-66.19-5.76a292.69,292.69,0,0,1-42.26-8.56c-8.18-2.36-16.54-5.22-22.82-11.69-4-4.17-3.59-9.24,1.05-12.75C286.31,507,299.11,504,311.8,501c15.28-3.62,30.87-5.51,46.48-7.32,16.13-1.87,32.33-2.32,48.46-3.8-.94,9.17-4.62,16.89-11.73,22.94-4.35,3.69-9.78,6.39-11.86,12.27-.83,4.29,2,6.07,5.28,7.13a17.53,17.53,0,0,0,12.14-.64C412.46,526.88,423.22,520,434.5,514a3.35,3.35,0,0,0,2-3.58c0-4.4.2-8.8-.81-13.15-.43-1.88-1-3.41-3.18-3.76-1.91-1.36-2.7-3.12-1.91-5.42,8.81-.9,17.62.05,26.43,0,1.27,0,2.7-.09,3.57,1.24.74,6.64-.19,13.14-1.67,19.58a45,45,0,0,0-1.36,6.28c0,5.31.78,6.34,5.88,6.17a49.2,49.2,0,0,0,15.13-2.81c3.43-1.24,5.65-3.48,5-7.54-.39-5-1.24-9.91-2-14.84-.31-1.93-1-3.94.45-5.76,4.9-2.6,10.17-1.31,15.19-1,13.77.86,27.53,2,41.16,4.2,8.84,1.48,17.82,2.2,26.44,4.86,1.14,2.46.65,5.16,1.1,6.79-.25-2.17-.17-5.33-1.25-8.34a46.89,46.89,0,0,1,0-7.4C564.7,488,564.64,486.18,566.86,485.79Z"/><path class="cls-2" d="M480,.11c-8.05,1.65-16.16,3.06-24.14,5-12.05,3-24,6.23-36.05,9.35-19,5-38,10.55-57.67,12.74-10.57,1.17-21.11,2.17-31.74,1.86-15.11-.45-30-3-44.7-6.09C262.2,18,238.8,12.88,214.94,10c-19.9-2.43-39.8-4.21-59.86-5C123.61,3.61,92.85,6.77,63.18,17.4a113.34,113.34,0,0,0-34,19.17C13.41,49.57,3.82,66.06,1,86.38a5.37,5.37,0,0,1-.91,1.69C.09,60.27.17,32.48,0,4.68,0,1.07.59,0,4.51,0Q242.25.18,480,.11Z"/><path class="cls-3" d="M401.93,463.05c-3.7-17.37-7.18-34.8-11.15-52.11a226,226,0,0,1-4.72-70.42c1.28-14.74,5.13-29.15,6-44a156.93,156.93,0,0,1,5.75-33.36c1.34-1.46,3.07-1.09,4.67-.81,9.61,1.65,19.12,3.93,28.86,4.83a1.84,1.84,0,0,1,1,1.14c.32.47-.56,1.12-.35,1,3.12-1.34,6.4-.52,9.59-.79,2.26.06,4.55-.28,6.71.69,3.5,2.23,7.4,1.09,11.13,1.26,3.46.16,6.93.11,10.4,0,7.23,0,14.48.13,21.63-1.37a2.84,2.84,0,0,1,1.47.95c5.4,14.54,8.37,29.74,2.18,44.27-10.23,24-7.41,48.19-3.48,72.54,1.09,6.74.9,13.57,2.28,20.24,2.06,1.76,1.62,4.21,1.77,6.49.54,8.43-2.07,16.47-3,24.72a113.59,113.59,0,0,0-1,13.92c0,2.1.19,4.41-2,5.83-.8-1.5-1.55-1.63-3.53-.61-7.29,3.76-19,1.89-24.93-4-1.73-7.22-1.13-14.58-.62-21.81.54-7.63.65-15.24.8-22.87a21.42,21.42,0,0,0-.76-8.39c-3-12.33-3.87-24.94-5.13-37.5a169,169,0,0,0-7.35-34.59,23.16,23.16,0,0,0-5.36-9.45A21,21,0,0,1,437.65,306c-2.41,7.05-5.38,14.27-7,21.84-1.76,8.1-4.22,16-5.91,24.11-1.5,7.18-.67,14.59-2.56,21.7-.5,1.92.69,3.5,1.58,5.09.62,4.7-.87,9.18-1.51,13.73a41.44,41.44,0,0,0,.16,14.27c3.56,15.64,7.52,31.22,7.57,47.41-3.44,7.12-13.38,11.53-22.21,9.81C405.81,463.58,404,462.81,401.93,463.05Z"/><path class="cls-4" d="M492.11,269.54c-6.93,3.89-14.53,1.73-21.82,2.36-1.51-.77-3.23-.1-4.77-.67-4.45-.48-8.91-.1-13.37-.23-1.41,0-2.86.12-4.11-.78l-6.72-.34a.64.64,0,0,1-.68-.58c-2.81-1.17-6,.82-8.73-1.16-11.67.39-22.73-3.42-34.12-5-1.52-4.17-.35-8.59.75-12.25,1.81-6.06.8-12.42,3.22-18.4,1.86-4.61,2.33-9.8,4.23-14.5.12-3.07-1.47-4.07-4.74-2.34a10.37,10.37,0,0,1-9.47.46c-.85-.42-.83-1.23-.88-2-2-2-2.26-4.88-3.74-7.15-.88-11.14,1.92-21.9,3.4-32.78.64-4.7.1-9.53,1.58-14.13,2.56-8.48,2.19-17.4,3.88-26,1.08-1.93.93-4.07,1-6.16s1.74-2.73,2.83-3.93l.13.09a63.05,63.05,0,0,0,5-4.53c2-.75,3.64-2.56,6-2.44h0c1.66-2.65,4.82-1.74,7.07-3a8,8,0,0,0,7.05-2.46c4.92,1.72,9.81-1.74,14.74-.09a3.54,3.54,0,0,1,1,3.49,4.82,4.82,0,0,1-.56,1.35c-1.75,1.79-3.4,3.66-3.35,6.42-4.06,7.93-.94,13.28,8.28,13.83,5.8,1.43,11.59.13,17.38-.09,4.06.31,7.42-2,11.15-3,3.22-.43,6.36.82,9.76-.43,2.83-1,3.14,2.29,3.48,4.22a57,57,0,0,0,6.23,18.2,11.21,11.21,0,0,0,5.59,5.38c4.83,1.9,8,.16,11-6,1.24-4,.47-8,.52-12a72.19,72.19,0,0,0-.57-8.31c-.31-2.14-.32-4.29,1.8-5.71,4.68,1.47,9.05,8.11,8,13.65-.62,3.28-.09,6.65-1.23,9.81-1.83,1.48-1.41,3.55-1.48,5.5-.11,3.45.46,7-.92,10.3.06,11.1-1.79,22-3.66,32.87-.55,3.24-.37,6.61-.52,9.93-1.6,2.13-.11,5-1.78,7.14L510,218a21.73,21.73,0,0,0-3.84,6.85c-2.67,3.2-6.26,2-9.58,2a10.36,10.36,0,0,0-6-1.53c-.62,0-1.26-.07-1.87,0-2.24,1.6.89,2.71.37,4.15,2.25,9.06,4.46,18.07,2.63,27.58a13.75,13.75,0,0,0,.55,7.3C492.82,266,493.48,267.83,492.11,269.54Z"/><path class="cls-5" d="M440,112.11a13.36,13.36,0,0,0-7.6,1.29c-3,1.37-5.28.8-7.21-1.74.11-4.82-.86-8.93-4.2-13-5.53-6.77-4.36-16.46,2.18-23.25,2.47-2.56,2.34-4.67.28-6.8-2.84-2.92-6.7-5.44-5.26-10.17a21,21,0,0,1,9.76-11.92A42.45,42.45,0,0,1,433.72,44c5.07-2.08,9.83-4.48,12.29-9.89,1.36-3,4.07-3.89,7.24-4.08a36.17,36.17,0,0,1,20.69,4.54c2.41,1.39,5.36,2.55,7.46,1.22,8.16-5.18,15.18-.68,22.6,1.74,8.84,2.87,11.32,9.48,12,17.89A89.42,89.42,0,0,1,513,86.75c-2,7.46,1.67,13.34,4.65,19.34,3.83,7.73,2.86,14.54-3.67,20.06-.31,1.26-1.36,2-2,3.09-2.51,2.74,0,5.49,0,8.24,0,1.78-.06,3.57-.09,5.36-1.12,4.33.23,8.81-.76,13.15-1.87,4.22-4,7.78-9.69,7.15-5.09-.56-7.51-3.52-9.78-7.67-3.77-6.86-5.28-14.29-6.92-22.17-3.43,3.59-7,2.54-10.65.68a2.9,2.9,0,0,1-2.07-.92c-1.57-1.84-2-4.15-2.59-6.39-1.68-6.78-2.5-13.72-3.62-20.59a24.66,24.66,0,0,1,3.57-17.68c1.86-2.9,2.21-4.65-2.1-5.8a31.24,31.24,0,0,1-13.13-6.87c-1.12-1-2.41-2.17-3.95-1.12-3.9,2.63-8.4,3-12.82,3.66-3.39.47-4.14,2.15-3.2,5.15,1.16,3.71,3.31,6.77,5.64,9.86,3.71,4.92,7.08,10.18,4.17,16.87A4.71,4.71,0,0,1,440,112.11Z"/><path class="cls-2" d="M489.13,458.25c.48-5.58.81-11.17,1.46-16.73,1.34-11.45,4.17-22.74,3.25-34.4,2.52-1.94,5.73-1.89,8.5-2,19.71-.71,39.18-3.94,58.82-5.42a65.6,65.6,0,0,1,15,.15c4.72-1.44,8.22,1.4,12,3.38a3.18,3.18,0,0,1,.7,1.38c0,3.61-1,7.14-.83,10.77l-2,6.55c-1.42,3.23-2.09,6.69-3.05,10.06a28.21,28.21,0,0,1-3.27,5.42c-1.6,1.79-2.19,4.24-3.9,6a2.37,2.37,0,0,1-2.12-.22c-2.49-2.93-4-6.45-6-9.74a31.33,31.33,0,0,0-5-6.81c-2.82-2.74-6.22-4-10-2.56a8.88,8.88,0,0,0-5.9,8.49c-.09,4.07,2.39,6.84,6,8.46,5.12,2.33,10.8,1.4,16.15,2.48,1.76.36,3.69-.07,5.24,1.19.92,4.29-2.65,7.32-3.17,11.21a47.76,47.76,0,0,0-2,8.2c-.67,3.28-1.34,6.57-2,9.85a4.18,4.18,0,0,1,1.16,3,5.94,5.94,0,0,1-.58,2.34c-2.86,2.79-.59,7.16-3.11,10.05-5.1-.65-4.26-5.64-6.25-8.56-1.09-2.57-2.36-5-5.09-6.22-4.14-1.95-8.05-1.63-11.35,1.61-3.1,3.05-2.72,6.81-1.49,10.57a15,15,0,0,1,1,3.79c-.18,1.79.47,4-2.31,4.44-13-1.27-25.94-2.69-38.94-3.74-5.92-.47-11.9-.21-17.85-.28-3.43-1.4-2.28-4.57-2.77-7.1.07-4.37-.53-8.77.59-13.09a4.77,4.77,0,0,1,2.3-2.46c3.27-1.72,5.46-4.1,5.56-8A2.41,2.41,0,0,1,489.13,458.25Z"/><path class="cls-6" d="M283.55,81q42,0,83.94,0c9.58,0,12.61,3,12.62,12.43v2.5c0,6.82,0,6.74-6.39,4.8a19.19,19.19,0,0,0-5.43-.43q-83.19,0-166.37,0c-2.33,0-4.67.06-7,0-5.59-.25-9.07-3.72-9.21-9.07a9.42,9.42,0,0,1,8.91-10.07c1.65-.16,3.33-.08,5-.08Z"/><path class="cls-7" d="M153,136.89c0-4.82,0-9.63,0-14.45.07-6.92,3.51-10.34,10.52-10.35q34.71,0,69.42,0c21.15,0,42.29,0,63.43,0,4.37,0,7.94,1,9.7,5.35a11.42,11.42,0,0,1-1.74,12.14c-2.11,2.71-4.84,2.52-7.65,2.52H186.35c-7.83,0-15.66.08-23.48,0C158.74,132,154.71,131.81,153,136.89Z"/><path class="cls-7" d="M153.05,72.68c0-5.16-.12-10.32,0-15.47s3.07-8.06,8.19-8.07q55.22-.11,110.41,0c4.73,0,8.32,4.52,8.33,10,0,6.23-3.11,10-8.42,10q-55.21,0-110.42,0C157.82,69,154.89,69.31,153.05,72.68Z"/><path class="cls-8" d="M288,160.05c-3.15-2.81-3.46-6.25-2-9.93,1.39-3.52,4-6,7.83-6,26.39-.1,52.79-.55,79.19.2,5,3.84,6.2,9.13,6,15.05-.12,2.8-1.54,3.76-4.19,3.64-24.75-1.11-49.52-.22-74.27-.42C296.1,162.56,291.93,162.05,288,160.05Z"/><path class="cls-9" d="M589.3,387.7c.93-4.55,1.66-9.15,2.86-13.63,1.47-5.48,5.2-8.34,10.39-8.33,5,0,8.5,2.34,10.27,7s.25,9.06-4.57,12.48c-5.59,4-12,6.37-18.37,8.7l-.48-.46A7,7,0,0,1,589.3,387.7Z"/><path class="cls-9" d="M587.77,403.82l-11.65-4c-2.35-1.38-4.76-2.68-7-4.16-5-3.2-6.59-6.91-5-12.1,1.38-4.62,4.83-7.07,9.54-7.48s8.49,2.54,10.38,7.54c.58,1.52.89,3.25,2.9,3.61,2.08,2,1.8,4.7,2.08,7.23C588.47,397.59,590,400.94,587.77,403.82Z"/><path class="cls-10" d="M583.61,371.68c-2.59-7-6.45-13.42-8-20.78-1.15-5.57.26-9.49,4.45-12.06,4.62-2.83,8.12-2.16,13,2,4.21,3.57,3.71,7.75,2,12.1-2.49,6.32-7.26,11.27-10.55,17.13C584.37,370.66,584.68,371.53,583.61,371.68Z"/><path class="cls-11" d="M430.85,488l2.08,5c1.86,2.68,1,5.28-1.05,7.06-2.37,2.08-5.15.93-7.13-1-4.52-4.31-9.22-8.34-14.82-11.19a25.58,25.58,0,0,0-2.12-11c.1-.67.2-1.34.31-2,.11-.12.2-.32.33-.35,6.07-1.32,12.19-2.38,18.37-3.13C429.2,476.71,429.55,482.45,430.85,488Z"/><path class="cls-12" d="M426.73,471.9c-5.9,2.9-12.18,3.44-18.61,3-4.89-2.5-6.09-6.9-6.19-11.89.38-1.06.07-3,2.22-1.94,10,4.87,17.53.19,24.68-6.17C434.37,461.15,433.38,469.12,426.73,471.9Z"/><path class="cls-13" d="M288,160.05c24.15,4.21,48.51.93,72.74,2,4.42.19,8.73-1.36,13.25-.13,3.9,1.07,4.5-1.89,3.95-4.78A45.8,45.8,0,0,0,373,144.32c5,1.5,7.24,4.94,7.13,10.05,0,.83,0,1.67,0,2.5-.08,2.81.87,6.43-.52,8.26-2.08,2.71-4.18-2-6.85-1.68a41.42,41.42,0,0,1-5-.17q-35.46,0-70.92,0C293.56,163.24,290.13,163.39,288,160.05Z"/><path class="cls-14" d="M496,226c3.52.36,7,.73,10-2a1.37,1.37,0,0,1,2-.07c-.79,3-2.83,4.21-5.86,4.1-2.65-.09-5.31-.1-7.95,0-1.2,0-2.9-1.35-3.51.45-.78,2.26,2.62.8,2.77,2.92-2.85.49-2.93,2-1.08,4,.63.71,1.65,1.83,1.46,2.41-2.55,7.43,2.26,15.22-1.13,22.56-.85,1.82,1.05,3,.88,4.7s1.39,3.56-.64,5a1.11,1.11,0,0,1-.75-.53c-2.18-10.16-.43-20.56-2-30.8-.54-3.65-1.89-7.05-2.28-10.68-.89-1.37-1.15-2.73.09-4.05l2,0C491.75,225.33,494.26,224.43,496,226Z"/><path class="cls-15" d="M392.14,160.09c.23,11.49-1.9,22.7-3.8,34-.77,4.51-.19,9.24-.22,13.87a2.31,2.31,0,0,1-.2,3.14c-3.66-6.14-1.63-12.58-.85-18.9,1.2-9.85,2.61-19.66,3.91-29.49C391.11,161.66,391.12,160.67,392.14,160.09Z"/><path class="cls-16" d="M512,129.24c-1-2.09.81-2.38,2-3.09,7,7.48,7.21,16.51,5.94,25.89a2.27,2.27,0,0,1-1.78,2.1,1.52,1.52,0,0,1-.31-2.13c.39-2.94.49-5.91.81-8.86C519.27,137.37,516.23,132.92,512,129.24Z"/><path class="cls-17" d="M391.78,216.15c3.39-.3,6.78.13,10-1.84,1.42-.86,4.39-1.38,5.82.92.83,1.33.08,2.55-1.65,2.8-1-3.53-3.09-1.69-5-1.05C397.82,218.05,394.57,219.59,391.78,216.15Z"/><path class="cls-18" d="M517.82,152c.1.71.2,1.42.31,2.13-.85,4.65,1.16,9.73-2.1,14,0-4.07-.08-8.14-.06-12.21C516,154.38,515.55,152.54,517.82,152Z"/><path class="cls-19" d="M587.77,403.82q0-5,.08-10a1.39,1.39,0,0,1,1.78-.13l.25.19c0,.68,0,1.36,0,2q-.23,4.89-.47,9.76c-1.27.17-.72-1.27-1.41-1.61Z"/><path class="cls-20" d="M589.63,393.73l-1.78.13-1-6.6a2,2,0,0,1,2.43.43A9.61,9.61,0,0,1,589.63,393.73Z"/><path class="cls-21" d="M418.09,114.12c-2,1.85-4.56,2.35-7.07,3-.4-1.77-.66-3.35,2.09-3.07C414.75,114.21,416.43,114.1,418.09,114.12Z"/><path class="cls-22" d="M507.92,224l-2,.07c-.18-3,1-5.14,4-6C510.6,220.46,508,221.78,507.92,224Z"/><path class="cls-23" d="M586.11,376.72c1.23,2.51,1.5,5.18,2,9-2.89-2.78-2.07-5.57-2.93-7.79C585.41,377.46,585.45,376.84,586.11,376.72Z"/><path class="cls-21" d="M411,117.1c-1.92,1.17-3.62,2.76-6,3.11A.66.66,0,0,1,404,120C405.83,117.82,407.64,115.53,411,117.1Z"/><path class="cls-24" d="M510.07,218.11c0-2.52-1-5.3,1.78-7.14C511.52,213.41,513.39,216.41,510.07,218.11Z"/><path class="cls-25" d="M387.92,211.06c.06-1,.13-2.09.2-3.14,3.08,1.11,1.28,4.41,2.78,6.23C389.09,213.91,388.61,212.38,387.92,211.06Z"/><path class="cls-26" d="M586.11,376.72l-1,1.18c-.51-2.07-1-4.14-1.54-6.22l.87-1.66C585,372.25,585.56,374.49,586.11,376.72Z"/><path class="cls-27" d="M398,128c.16,2.28-.05,4.44-1.93,6.06,0-2,.05-3.95.07-5.92A1.18,1.18,0,0,1,398,128Z"/><path class="cls-28" d="M398,128l-1.86.14c.14-2.41.93-4.23,3.78-4.17C400.2,125.79,398,126.4,398,128Z"/><path class="cls-29" d="M404,120l1.1.24c-1.33,1.75-2.57,3.63-5.06,3.86C400.35,121.77,402.14,120.86,404,120Z"/><path class="cls-30" d="M409.93,487.92c5.27-.41,8.2,3.56,11.78,6.32.63.49.93,1.42,1.57,1.89,2.17,1.58,3.83,4.84,7,3.63,2.86-1.08,2.17-4.31,2.61-6.75,3-2.17,3.58-.1,4,2.26a62.34,62.34,0,0,1,1,15.61c-2.63,3.5-6.75,4.78-10.33,6.8-8.12,4.58-16.35,8.94-24.8,12.89-4.81,2.24-9.73,2.19-14.66,1.19-3.58-.73-6.42-2.63-6.25-7,.64-3.31,2.88-5.67,5.4-7.43,8.91-6.24,16-13.64,18.13-24.83a10.32,10.32,0,0,1,1.34-2.62Z"/><path class="cls-31" d="M567,478.62v-1.69c2.37-2,3.27-5.2,5.84-7,2.65-5.33,6.21-9.69,12.63-10.12a10.06,10.06,0,0,1,10.67,8.33c.94,6.06-1.79,10.55-7.55,12.2-7,2-14.13,1.82-21.29,1.64C565.42,481.4,565.42,481.4,567,478.62Z"/><path class="cls-9" d="M585.17,429.08c4.13-2.51,6.31-7.16,10.55-9.6,3.83-2.2,7.63-2.27,11.25.09s5.48,5.79,4.88,10.16c-.54,4-3.18,6.51-6.61,8.31a69.8,69.8,0,0,1-16.47,0c-2.35-.1-4.78.33-7-1-1.45-1.74-.49-3.27.44-4.79A7.66,7.66,0,0,1,585.17,429.08Z"/><path class="cls-32" d="M567,478.62c.5,1.08-1.12,2.35.3,3.34l-.39,3.83c-1.31,4-.35,8.12-.92,12.15a1.59,1.59,0,0,1-1.35.4,2.17,2.17,0,0,1-1.41-1.57c.14-2.57-.22-5.17.36-7.72,2.39-1.24,1-3.52,1.4-5.3S564.55,479.66,567,478.62Z"/><path class="cls-33" d="M570.19,456q1.83-5.57,3.67-11.13a1.13,1.13,0,0,1,.4-1.85h2.13l.1-.11c-1.06,5-3.55,9.57-5.37,14.34C570.44,457.1,570.42,456.47,570.19,456Z"/><path class="cls-34" d="M585.17,429.08a3.6,3.6,0,0,1-2.11,3.05.92.92,0,0,1-1.36-.24c1.36-3.34,1.64-7.14,4.24-10C587.25,424.49,583.82,426.53,585.17,429.08Z"/><path class="cls-35" d="M588.77,438l16.47,0C599.75,440,594.26,439.39,588.77,438Z"/><path class="cls-36" d="M572.79,469.91c-1.83,2.44-1.95,6.29-5.84,7v-3C570.15,474.42,569.4,469.15,572.79,469.91Z"/><path class="cls-37" d="M588,404.1l1.41,1.61c-.32,3.25.11,6.61-1.45,9.67C585.69,411.61,588.72,407.86,588,404.1Z"/><path class="cls-38" d="M570.19,456l.93,1.25c-.37,2.4-.61,4.83-2.17,6.84C567.3,461.07,569.74,458.68,570.19,456Z"/><path class="cls-39" d="M581.7,431.89l1.36.24c-1.19,1.44-1,3.24-1.26,4.91L580,438c-.62-.1-.7-.68-1-1.07Z"/><path class="cls-40" d="M579,437l1,1.07c-1,1.74-1.24,4-3.48,4.87l-.1.11C576,440.44,577.88,438.88,579,437Z"/><path class="cls-2" d="M426.73,471.9c7.32-4.83,3.28-11.07,2.1-17-.9-16.26-4.35-32.11-7.72-48,2.55-2.26,5.66-1.83,8.58-1.44,9.13,1.19,18.28.77,27.44.54,2.13-.06,4.42-.65,5.68,1.89.88,13.38-1.34,26.69-.93,40.06.06,2,.08,3.95.11,5.93a6.14,6.14,0,0,1,1.43,5,11.18,11.18,0,0,0,3.22,8.86,10.13,10.13,0,0,1-1.4,10.22c-2.54,3.26-2.16,8-5.44,10.89-4,.56-8,1.5-12,.45-3.11-.81-6.57-1.15-9.34-.13-3.18,1.16-5.21,0-7.59-1.26C427.05,483.24,427.15,477.5,426.73,471.9Z"/><path class="cls-30" d="M459.8,488.91c.9-3.86,1.56-7.81,4.28-11,4.64-2.06,9.77-1.08,12.65,2.78a8.67,8.67,0,0,0,4.06,3.3c.21,2.34-.27,4.82,1.38,6.88,1.1,7,2.87,13.88,2.84,21-1.1,4.15-4,6.31-8,7.18-3.87.83-7.79,1.48-11.7,2-5.15.72-7.39-.68-9.17-5.26,1-7.35,3.4-14.5,3.34-22C459.44,492.21,459.68,490.56,459.8,488.91Z"/><path class="cls-41" d="M381.87,524.79c2.94,6.2,11.75,8.55,19.43,5,11.1-5.2,21.94-10.94,32.56-17.07a39.78,39.78,0,0,1,4.05-1.79,3.34,3.34,0,0,1-2,4.07c-12,6.11-23.25,13.51-35.83,18.38-4.77,1.85-9.82,2-14.34-.65C383,531.1,380,529,381.87,524.79Z"/><path class="cls-42" d="M456.11,515.88c1.26,1.8,2.7,4,4.93,3.78,8.51-.85,17.83.52,24-7.73,1,4.73-2.38,6.71-5.74,8a48.55,48.55,0,0,1-16.07,3C457.64,523.13,456.34,521.66,456.11,515.88Z"/><path class="cls-43" d="M563.9,497.37l1,.63c.59.42.53.73-.17.92-.29.16-.61.49-.86.45q-12.44-2.19-24.86-4.44c1.65-1.49.7-3.54,1.13-5.29,1.36-.71,2.56-.07,3.75.49A67.67,67.67,0,0,0,559.32,495C561,495.37,563,495.3,563.9,497.37Z"/><path class="cls-44" d="M564.68,498.92a2.42,2.42,0,0,0,.17-.92l1.09-.06c.3,4.08,1.44,8.17.09,12.29C564.37,506.59,565.21,502.67,564.68,498.92Z"/><path class="cls-45" d="M566.69,515.27c1.61,2.23,1.11,4.67,1.2,7.05A8.13,8.13,0,0,1,566.69,515.27Z"/><path class="cls-1" d="M462.81,408c-2.87-2.05-5.76.07-8.61.13-11.06.23-22.06-.86-33.09-1.12-2.93-6.59-.28-13.1.3-19.64.28-3.12.92-6.22,1.39-9.33a4,4,0,0,1-.65-3.33c3.33-17,6.27-34.05,14.24-49.68,1.5-2.93,2.86-6.11,6.58-7,3.82,1,4.54,4.63,5.7,7.54,4.52,11.3,6.74,23.24,8.07,35.23,1.57,14.15,2.77,28.33,5.86,42.27A27.89,27.89,0,0,1,462.81,408Z"/><path class="cls-46" d="M443,318c-9.65,11.46-12.45,25.7-15.92,39.62-1.68,6.73-2.85,13.6-4.25,20.4-3.6-.39-2.63-3.4-2.16-5,2.32-8,1-16.47,3.28-24.5,2.61-9.3,4.6-18.78,7.42-28,1.62-5.29,2.7-10.87,6-16.49Z"/><path class="cls-47" d="M465.77,468c-6.84-3.2-3.39-9.15-3.78-14.08,6.8,2.55,13.53,5.61,21.07,3,2-.68,4.38-.47,5.55-4.08.25,2.61.39,4,.52,5.42.28,8-.37,9-8,11.81C475.61,472.57,470.42,472.34,465.77,468Z"/><path class="cls-48" d="M465.72,271l4.57.87L451,272c-1.32,0-2.75.11-3-1.76l3.58-.18C456.25,271.39,461.1,269.61,465.72,271Z"/><path class="cls-49" d="M431.91,268.14h10.91c-.22.3-.35.66-.57.73a7,7,0,0,1-1.46.22c-2.89.47-5.77,1-8.61-.26Q432,268.49,431.91,268.14Z"/><path class="cls-50" d="M432.18,268.83l8.61.26c.17.27.34.53.53.79H430.1c.29-.34.43-.66.65-.74A9.56,9.56,0,0,1,432.18,268.83Z"/><path class="cls-11" d="M469.94,181.17a20.69,20.69,0,0,0,14,15.63,1.67,1.67,0,0,1,2.06,1.52c1.23,2.49,3,4.77,3.09,7.71,3.29,3.1,3.1,6.45.71,10-2.77,3.23-5.5,3.55-9.47,1.32-13.1-7.37-25.45-15.52-35.27-27.18-2.16-2.56-5.3,0-7.58,1.09a115.87,115.87,0,0,0-25.6,17.17c-4.59,4-9.9,3.39-13.28-.27-2.81-3-2.57-11.12.49-14.7,2.28-2.66,5.25-4.47,8.07-6.48,1.74-1.23,3.62-2.42,3.87-4.87a3.42,3.42,0,0,1,2-3c2.16-1,2.44-3.12,3.06-5a4.92,4.92,0,0,1,3.61-1.39c6.48-.35,12.73-.3,16.27,6.71.73,1.45,2.63,1.14,4.13,1,1.81-.2,3.65-.7,5.4.11,2.07.95,3.43.13,4.72-1.46a10.26,10.26,0,0,1,8.3-3.82c1.69.37,3.49.36,5.05,1.25C466.26,177.31,468.72,178.41,469.94,181.17Z"/><path class="cls-51" d="M442.92,109.94c2.42-6.71-.74-12-4.88-16.6a27.39,27.39,0,0,1-5.91-11.83c-.51-2-.7-4.1,2.77-4.54,5.44-.69,11.39,0,15.69-4.85,1.42-1.58,2.34.47,3.13,1.26,5.36,5.4,12.1,7.8,20.25,9.32-12.16,16.55-5.55,33.37-.9,50.19-2.73,3-6.67,3.61-10.13,5.16-6-.36-11.95,2.24-17.93,0a15.82,15.82,0,0,1-6.73-3.65c-3.5-3.52-4-7.54-1.76-11.95a13.05,13.05,0,0,1,3.52-6.39l0,0A20.86,20.86,0,0,1,442.92,109.94Z"/><path class="cls-52" d="M464,177.11l-4.74-.81c.87-4.29-2-4.6-5-4.66-8.25-.18-16.5.11-24.76-.14-3.81-.54-7.92,1.22-11.45-1.48.71-3,3.15-1.93,4.93-1.94,11-.08,22,0,33,0,7.29,0,8,.69,8.15,7.95A.73.73,0,0,1,464,177.11Z"/><path class="cls-53" d="M413.08,179.1a3.11,3.11,0,0,1-2,3c-1.9-7.1-1.8-14.07,1.23-20.89.7,4.95,1.16,9.89.14,14.82C412.19,177.21,411.91,178.26,413.08,179.1Z"/><path class="cls-54" d="M485.77,196a25.47,25.47,0,0,1,5.76-12.76,50.77,50.77,0,0,1,.37,12.8C489.85,197.79,487.81,197.6,485.77,196Z"/><path class="cls-55" d="M437.09,122.1c-1.92,7.89-.67,10.4,7.92,16-10.55-.9-13.95-6.53-9.05-16A.73.73,0,0,1,437.09,122.1Z"/><path class="cls-56" d="M489.84,216c.2-3.35.58-6.71-.71-10,1.86.32,4.66-1,4.78,2.48C494,211.75,494.6,215.35,489.84,216Z"/><path class="cls-57" d="M418,170l12,.13c.84,2.82-1.16,2.7-2.94,2.88-2.37.23-4.86-.6-7.07.86l-3.85.16C416.13,172.42,415.41,170.48,418,170Z"/><path class="cls-58" d="M462.94,138.05a44.17,44.17,0,0,1,10.13-5.16c.33.37.67.73,1,1.09C471,137.06,467,137.67,462.94,138.05Z"/><path class="cls-59" d="M464,177.11c0-.37.05-.74.08-1.11,3.46,0,5.81,1.31,5.91,5.17Z"/><path class="cls-60" d="M437.09,122.1l-1.13,0c-.19-3,1-5.17,4.08-6C439.69,118.4,438.32,120.22,437.09,122.1Z"/><path class="cls-61" d="M465.72,271c-4.7-.22-9.48.59-14.09-1C456.32,270.4,461.15,268.94,465.72,271Z"/><path class="cls-62" d="M485.77,196c2,.11,4.08.8,6.13,0-.8,3.71-3.93,1.47-5.87,2.29l-2-1.51Z"/><path class="cls-63" d="M511.11,156c.16-4.39-1.1-8.86.76-13.15C511.61,147.22,512.93,151.7,511.11,156Z"/><path class="cls-60" d="M442.92,109.94c.47,2.74-1.82,4.18-2.92,6.18,0-1.34,0-2.67-.05-4Z"/><path class="cls-64" d="M496,226a6.82,6.82,0,0,1-6-1.94C492,224.55,494.87,222.54,496,226Z"/><path class="cls-65" d="M488,224l-.09,4.05c-2.38-.47-2.05-2.27-1.7-3.84C486.41,223.12,487.26,223.26,488,224Z"/><path class="cls-66" d="M574.26,443c-.13.62-.26,1.23-.4,1.85A90.21,90.21,0,0,1,554.1,443c-5.71-1.29-9.12-5.34-9-10.4a10.55,10.55,0,0,1,6.93-10c4.51-1.85,9.29-.36,12.69,4.14A73.39,73.39,0,0,1,574.26,443Z"/><path class="cls-9" d="M563.9,497.37c-8.25-1.62-16.59-2.94-23.81-7.73q-4.92-9.57.81-15c3.65-3.44,8.22-3.83,13.13-1.13,2,1.85,2.75,4.68,4.93,6.38,2.3,2.66,2,6.65,4.58,9.14C565.43,491.75,564.53,494.57,563.9,497.37Z"/><path class="cls-11" d="M465.77,468c4.92,2.22,10.19,1.9,15.39,2q-.18,7-.37,14c-1.32,1.88-3.14,2.39-4,.05-2.3-6.42-7.48-6.2-12.73-6.13C466.18,474.9,466.1,471.49,465.77,468Z"/><path class="cls-67" d="M559,479.91c-4.26-.1-3.26-4.27-4.93-6.38C556.84,474.76,558.07,477.21,559,479.91Z"/><path class="cls-68" d="M296.06,153.23c.11-2.1,1.15-3.17,3.12-3.09,1.81.07,3.29,1.06,3.42,2.86a3.38,3.38,0,0,1-3.27,3.63C297.23,156.77,296.32,155.07,296.06,153.23Z"/><path class="cls-69" d="M325,153.65a2.77,2.77,0,0,1-3.11,3,2.82,2.82,0,0,1-2.86-3.27c.08-2.21,1.14-3.43,3.37-3.23C324.44,150.34,325,151.8,325,153.65Z"/><path class="cls-70" d="M310.53,150.13c1.75.36,3.32,1.4,3.27,3.48a2.85,2.85,0,0,1-3.2,3,3.49,3.49,0,0,1-3.2-3.79A2.7,2.7,0,0,1,310.53,150.13Z"/><path class="cls-71" d="M420,173.89c.73-2.83,3.06-1.51,4.77-1.85s4.35,1.11,5.24-1.89c8.95,0,17.89,0,26.83-.06a4.69,4.69,0,0,1,4.87,3.38c.69,2-1,2.49-2.49,2.83-3.49.82-7.62.39-8.88,5.32-.16.63-3.05,3.92-4.77-.12-.39-.92-2.35-.14-3.63,0-3.17.27-7.46,3.2-8.34-3.47-.21-1.65-3.13-4.05-6.18-4C424.94,174.09,422.47,174,420,173.89Z"/></g></g></svg>