<?xml version="1.0" encoding="utf-8"?>
<!-- Generator: Adobe Adobe Illustrator 24.2.0, SVG Export Plug-In . SVG Version: 6.00 Build 0)  -->
<svg id="Calque_1" xmlns="http://www.w3.org/2000/svg" x="0px" y="0px"
	 viewBox="0 0 612 792">
<style type="text/css">
	.st0{fill:#51130C;}
	.st1{fill:#FFFFFF;}
	.st2{fill:#D1F2EE;}
	.st3{fill:#F9D562;}
	.st4{fill:#BCE9E3;}
	.st5{fill:#F4A944;}
	.st6{fill:#A6432F;}
	.st7{fill:#F4A943;}
	.st8{fill:#F3A943;}
	.st9{fill:#932D20;}
	.st10{fill:#D3ECE4;}
	.st11{fill:#BBE8E3;}
	.st12{fill:#923324;}
	.st13{fill:#A6432E;}
	.st14{fill:#BCE9E1;}
	.st15{fill:#FBFEFE;}
	.st16{fill:#BFD1C9;}
	.st17{fill:#C7D2CD;}
	.st18{fill:#F9FDFD;}
	.st19{fill:#5B2A25;}
	.st20{fill:#674140;}
	.st21{fill:#F4FBFC;}
	.st22{fill:#73494E;}
	.st23{fill:#FEFCF9;}
	.st24{fill:#F7D464;}
	.st25{fill:#F9EEDF;}
	.st26{fill:#F3AC44;}
	.st27{fill:#D2F1EA;}
	.st28{fill:#F9F4EB;}
	.st29{fill:#FDFBF2;}
	.st30{fill:#A33F2B;}
	.st31{fill:#310504;}
	.st32{fill:#D0F0ED;}
	.st33{fill:#360604;}
	.st34{fill:#330504;}
	.st35{fill:#A1402D;}
	.st36{fill:#D1F1ED;}
	.st37{fill:#87291E;}
</style>
<g>
	<g>
		<path class="st0" d="M366.14,280.49c0.34,0,0.99-0.68,0.42-0.68C366.23,279.81,365.57,280.49,366.14,280.49L366.14,280.49z"/>
	</g>
</g>
<g>
	<g>
		<g>
			<path class="st1" d="M346.08,641C230.4,641,115.22,641,0,641c0-163.3,0-326.6,0-490c203.92,0,407.88,0,612,0
				c0,163.27,0,326.64,0,490C523.59,641,435.09,641,346.08,641z M144.65,575.94c5.68,0.03,11.35,0.06,17.51,0.62
				c3.7,1.44,7.32,3.75,11.13,4.11c5.5,0.52,11.14-0.37,17.14-0.52c0,0,0.45-0.01,0.72,0.32l0.39,0.16c0,0,0.42-0.07,1.15,0.21
				c2.97,1.19,5.94,2.39,9.21,4.2c3.19,3.57,6.26,7.27,9.61,10.7c9.43,9.64,20.8,11.72,33.35,7.78c13.56-4.26,26.72-10.05,42.1-9.73
				c8.92,0.76,16.44,4.98,24.19,10.11c4.82,4.32,9.48,8.83,14.48,12.93c7.81,6.41,15.52,13.03,25.53,15.99
				c17.01,5.03,33.12-2.94,42.44-21.25c6.67-10.65,6.91-10.75,19.19-8.24c4.06,0.83,8.1,1.8,12.2,2.43
				c27.31,4.16,54.17,4.43,79.95-9.77c2.9-2.66,6.11-5.05,8.62-8.03c4.59-5.43,3.1-10.93-3.69-13.05c-5.46-1.7-11.2-2.49-16.53-4.34
				c12.13-18.52,22.88-37.81,32.42-57.79c11.48-24.02,21.46-48.61,29.02-74.16c8.39-28.34,11.7-57.41,12.26-86.82
				c0.22-11.45-0.35-22.93-0.97-34.38c-0.4-7.42-1.13-14.87-2.41-22.19c-2.94-16.8-7.09-33.37-14.42-48.81
				c-4.37-9.19-9.87-17.93-15.63-26.35c-5.86-8.57-13.29-15.73-21.28-22.58c-9.21-7.89-19.21-14.29-29.99-19.14
				c-14.29-6.44-29.31-10.99-44.85-13.95c-22.81-4.33-45.19-3-67.31,3.43c-17.83,5.18-33.68,14.17-48.38,25.55
				c-18.76,14.53-33.05,32.73-44.81,53c-10.31,17.78-16.67,37.27-23.52,56.57c-6.9,19.42-13.65,39-22.21,57.7
				c-8.57,18.73-20.72,35.4-37.04,48.5c-10.4,8.35-22.33,13.86-34.7,18.7c-18.37,7.18-36.57,14.77-54.78,22.35
				c-12.38,5.16-22.91,12.91-29.27,24.94c-3.81,7.2-6.74,14.97-9.19,22.76c-3.88,12.28-3.3,25.09-1.35,37.53
				c1.61,10.29,5.3,20.25,7.47,30.76c-2.5,1.3-5.23,2.29-7.42,3.99c-1.96,1.53-3.32,3.83-4.94,5.79c2.37,0.66,4.72,1.83,7.1,1.91
				c15.24,0.51,30.49,0.81,45.74,1.11c4.6,0.09,9.41,0.82,14.01-2.87C132.48,576.02,138.08,575.91,144.65,575.94z M171.65,407.87
				c0.5-0.61,1-1.21,2.19-1.93c13.13-7.45,23.87-17.64,31.27-30.63c10.72-18.8,13.82-39.85,14.76-61.08
				c0.56-12.75-0.22-25.59-0.89-38.37c-0.7-13.45-3.74-26.51-8.16-39.23c-2.87-8.25-6.63-16.1-14.03-21.19
				c-9.16-6.31-20.06-5.76-30.28-5.14c-13.36,0.81-25.96,4.74-38.08,11.44c-11.82,6.53-22.29,14.48-31.36,24.01
				c-8.51,8.93-16.19,18.87-22.88,29.24c-10.74,16.64-18.85,34.67-23.16,54.13c-2.1,9.51-4.13,19.15-4.87,28.84
				c-1.34,17.51,0.3,34.82,6.84,51.38c2.98,7.53,7.78,13.83,14.93,17.31c14.01,6.84,28.93,7.58,44.18,4.79
				c14.57-2.67,28.41-7.5,41.77-13.68C159.84,415,165.33,411.26,171.65,407.87z"/>
			<path class="st2" d="M72.98,565.79c-2.77-10.11-6.46-20.07-8.07-30.36c-1.94-12.43-2.53-25.24,1.35-37.53
				c2.46-7.79,5.38-15.56,9.19-22.76c6.36-12.02,16.89-19.77,29.27-24.94c18.2-7.59,36.41-15.18,54.78-22.35
				c12.37-4.83,24.31-10.35,34.7-18.7c16.32-13.1,28.47-29.77,37.04-48.5c8.56-18.71,15.31-38.28,22.21-57.7
				c6.85-19.29,13.21-38.79,23.52-56.57c11.76-20.27,26.05-38.48,44.81-53c14.7-11.38,30.55-20.37,48.38-25.55
				c22.12-6.43,44.5-7.76,67.31-3.43c15.55,2.95,30.57,7.51,44.85,13.95c10.78,4.86,20.79,11.26,29.99,19.14
				c7.99,6.85,15.43,14.01,21.28,22.58c5.75,8.42,11.26,17.16,15.63,26.35c7.33,15.44,11.48,32.01,14.42,48.81
				c1.28,7.32,2.02,14.77,2.41,22.19c0.62,11.45,1.19,22.93,0.97,34.38c-0.56,29.41-3.88,58.48-12.26,86.82
				c-7.56,25.55-17.54,50.14-29.02,74.16c-9.54,19.97-20.3,39.26-33.01,58.11c-12.96-2.01-25.33-4.35-37.64-7.08
				c0.81-1.63,1.53-2.89,2.33-4.11c4.58-6.97,1.98-13.51-5.91-14.61c-1.6-0.22-3.35-0.16-4.9,0.27c-5.19,1.42-10.32,3.06-15.77,4.47
				c-1.78-2.05-3.26-3.95-4.55-6.12c3.39-2.42,6.36-5.88,9.83-6.48c16.44-2.84,33.1-4.46,49.52-7.4
				c12.36-2.21,22.74-8.88,31.15-18.17c5.07-5.6,4.43-10.13-1.23-12.32c-8.79-3.39-18.05-3.19-27.07-1.86
				c-13.07,1.93-24.1,8.82-34.65,16.36c-3.8,2.72-7.32,5.84-11.26,9.01c-0.14-1-0.42-1.58-0.24-1.91
				c4.7-8.45,9.37-16.92,14.25-25.26c1.21-2.07,2.77-4.72,4.75-5.4c4.82-1.64,9.98-2.25,15-3.32c12.44-2.66,25.08-4.63,37.24-8.25
				c8.1-2.41,13.44-9.19,16.34-17.25c0.96-2.67,0.24-5.95-3.1-6.25c-6.38-0.58-13.08-1.58-19.19-0.28
				c-14.56,3.1-25.51,12.55-35.68,22.92c-1.97,2.01-4.23,3.72-6.36,5.57c-0.48-0.35-0.96-0.7-1.44-1.05
				c0.41-1.21,0.83-2.42,1.24-3.64c2.26-6.83,4.29-13.74,6.85-20.46c1.47-3.86,2.89-8.96,5.94-10.73
				c5.22-3.03,11.73-3.81,17.65-5.69c11.14-3.53,22.5-6.53,33.28-10.95c11.81-4.84,21.35-12.8,26.19-25.25
				c1.96-5.03-0.23-9.07-5.62-9.64c-9.64-1.01-19.26,0.08-28.18,3.57c-9.61,3.76-18.1,9.71-24.93,17.65
				c-5.98,6.94-11.81,14.03-18.35,21.82c0-2.55-0.25-4.48,0.04-6.32c1.2-7.58,2.44-15.17,3.96-22.69c0.34-1.68,1.54-3.65,2.94-4.58
				c6.47-4.31,13.03-8.51,19.78-12.36c12.48-7.12,23.03-15.83,27.29-30.31c2.55-8.65,0.53-14.56-9.1-13.68
				c-4.78,0.44-9.82,1.81-14.01,4.1c-4.51,2.46-8.16,6.48-12.34,9.42c0.49-3.52,1.13-6.64,2.17-9.76
				c8.78-4.49,17.05-9.2,25.56-13.44c13.81-6.87,22.9-17.53,27.03-32.36c1.34-4.8-1.94-9.4-6.85-9.01c-5.86,0.47-11.87,1.2-17.42,3
				c-11.88,3.86-21.02,11.47-27.52,22.27c-2.68,4.45-5.96,8.55-9.29,12.7c-2.64-2.04-6.52-3.69-6.94-5.98
				c-0.93-5.08-2.98-8.34-7.47-10.12c1.21-1.75,1.74-3.78,3.06-4.79c6.4-4.89,12.94-9.62,19.58-14.19
				c6.69-4.6,11.37-10.5,12.36-18.68c0.78-6.43-3.18-9.22-9.35-7c-9.6,3.45-16.21,10.13-19.91,19.45c-2.38,6-3.94,12.32-5.94,18.73
				c-0.9-4.05-1.79-7.98-2.65-11.92c-1.04-4.79-2.83-9.56-2.95-14.38c-0.36-14.37-1.3-28.46-5.87-42.34
				c-2.57-7.81-6.77-14.16-11.92-20.08c-4.14-4.76-14.11-7.18-18.45-3.48c-3.91,3.33-8.02,8.22-6.8,14.35
				c1.24,6.21,1.84,13.38,5.39,18.12c8.5,11.35,17.85,22.31,28.27,31.88c6.5,5.97,7.77,12.08,6.8,19.58
				c-4.01-1.54-6.2-3.9-6.63-8.06c-0.42-4.01-3.18-5.44-7.05-4.98c-1.61,0.19-3.23,0.24-4.8,0.04c-0.2-1.62-0.39-2.95-0.72-4.23
				c-0.75-2.92-1.57-5.83-2.48-9.19c-1,0.33-2.47,0.82-4.34,1.23c-2.76-0.15-5.19-0.64-7.45-0.22c-3.07,0.57-5.98,1.97-9.02,2.79
				c-3.56,0.95-6.68,0.15-8.55-3.29c-2.06-3.77-4.89-3.82-7.77-1.44c-3.59,2.97-6.16,2.02-8.74-1.27
				c-2.74-3.49-5.86-6.46-11.29-5.59c-5.26,1.91-8.82-1.74-13.3-3.06c-3.88-1.88-6.06,0.24-8.28,2.53
				c-0.82,0.85-1.97,1.37-2.82,1.89c0-0.05-0.16,0.05-0.08,0.1c0.23-0.06,0.64,0.16,0.38,0.4c-1.06,2.19-1.86,4.14-2.85,6.36
				c-3.03,0.09-5.93-0.48-8.73-0.19c-3.81,0.39-7.55,1.43-11.66,2.31c-7.13,4.96-8.96,10-6.91,18.37c-0.01,0.15,0.23,0.34,0.2,0.62
				c0.21,0.8,0.45,1.32,0.7,1.94c0.01,0.11,0.16,0.29,0.18,0.42c0.02,0.13,0.26,0.25,0.18,0.6c-6.7,1.83-11.94,4.56-12.44,12.46
				c-0.08,1.21-1.85,2.96-3.16,3.34c-4.91,1.45-6.25,4.86-6.35,9.45c-0.1,4.62-1.54,8.1-6.65,9.89c-2.21,0.77-3.49,4.19-5.19,6.4
				c-1.18,1.53-2.05,3.84-3.6,4.45c-7.44,2.92-8.89,4.75-7.42,12.69c1.07,5.77-0.03,10.59-4.52,14.4c-3.57,3.03-4.42,6.2-1.83,10.43
				c2.9,4.74,2.54,9.25-1.36,13.68c-1.69,1.92-2.11,4.95-3.2,7.81c-4.34,5.26-8.11,10.38-8.25,17.31c-0.04,1.76-0.71,3.51-1.29,5.28
				c-0.2,0.02-0.53,0.26-0.92,0.25c-6.11,2.13-12.51,3.27-17.41,6.61c-12.55,8.54-24.56,17.9-36.56,27.22
				c-17.78,13.82-35.16,28.15-53.09,41.76c-10.39,7.89-21.6,14.71-32.31,22.19c-6.48,4.52-6.57,5.7-2.26,11.4
				C111.61,553.49,92.4,559.87,72.98,565.79z M130.51,493.03c-3.38-3.07-6.8-2.22-9.81,0.34c-4.18,3.56-4.33,12.73-0.54,16.71
				c2.33,2.46,6.97,2.6,9.46,0.3C133.65,506.63,134.37,498.37,130.51,493.03z M275.75,314.95c6.73-0.09,10.18-4.32,7.6-10.02
				c-1.21-2.67-3.43-5.66-5.95-6.74c-2.58-1.1-6.88-1.13-8.93,0.39c-1.81,1.34-2.97,6.2-1.92,8.19
				C268.29,310.06,272.03,312.27,275.75,314.95z M494.66,224.9c-4.47,3.57-4.33,8.61-3.07,13.17c0.64,2.31,3.67,4.83,6.09,5.48
				c1.75,0.47,5.52-1.5,6.22-3.24c1.43-3.58,2.28-7.86,1.74-11.62C504.97,224.14,499.31,222.26,494.66,224.9z M365.59,188.92
				c1.76,0.5,4.15,1.95,5.13,1.3c1.87-1.25,3.53-3.54,4.12-5.71c0.38-1.41-0.86-4.2-2.15-4.87c-1.33-0.69-4.58-0.16-5.26,0.93
				C366.04,182.78,365.8,185.73,365.59,188.92z M78.02,514.5c1.87,1.68,4.17,2.51,5.21-0.31c0.71-1.93,0.64-4.95-0.46-6.5
				c-0.97-1.36-3.85-1.37-5.89-1.97c-0.26,2.07-0.66,4.13-0.71,6.21C76.15,512.59,77.02,513.28,78.02,514.5z M290.69,274.61
				c1.53-0.18,3.07-0.36,4.6-0.54c-0.25-1.65-0.09-3.56-0.92-4.84c-0.51-0.79-2.53-0.61-3.86-0.86
				C290.4,270.26,290.3,272.15,290.69,274.61z M530.92,263.15c-0.86,1.88-1.71,3.77-2.57,5.65c0.83,0.34,2.03,1.2,2.42,0.93
				c1.49-1.08,2.72-2.51,4.05-3.82C533.77,264.94,532.72,263.97,530.92,263.15z"/>
			<path class="st3" d="M455.05,564.19c12.37,2.34,24.74,4.68,37.55,7.02c6.06,1.19,11.8,1.98,17.26,3.69
				c6.79,2.12,8.28,7.62,3.69,13.05c-2.52,2.98-5.73,5.37-9.19,7.8c-1.36-0.27-2.28-0.59-2.91-0.3c-11.6,5.33-24.05,6.21-36.47,6.38
				c-8.41,0.12-16.93-0.57-25.23-1.94c-20.37-3.37-37.67-12.67-47.91-31.07c-6.31-11.34-10.15-24.06-14.94-36.22
				c-1.63-4.16-2.76-8.51-4.5-13.95c-0.56,2.29-1.1,3.37-1.05,4.44c0.8,18.43,4.02,36.51,8.86,54.26
				c3.25,11.91,5.64,24.22,12.89,34.68c-8.82,17.86-24.93,25.83-41.94,20.8c-10.01-2.96-17.72-9.58-25.53-15.99
				c-5-4.1-9.66-8.6-14.45-13.42c-4.56-8.92-9.93-17.02-13.55-25.85c-5.14-12.5-9.52-25.38-13.22-38.39
				c-3.2-11.25-5.03-22.89-7.4-34.37c-0.85-4.09-1.5-8.23-2.48-13.62c-1.04,1.8-1.33,2.07-1.34,2.34
				c-0.68,23.25-0.39,46.44,5.28,69.21c2.56,10.27,5.14,20.54,7.71,30.8c-14.59-0.06-27.76,5.73-41.31,9.99
				c-12.55,3.94-23.92,1.86-33.35-7.78c-3.35-3.42-6.41-7.12-9.38-11.14c0.81-0.76,1.63-0.93,1.93-1.41
				c9.78-15.8,17.86-32.35,21.84-50.65c0.14-0.64-0.27-1.4-0.6-2.91c-0.95,1.35-1.48,1.92-1.82,2.6
				c-6.23,12.38-12.86,24.51-22.1,34.99c-3.77,4.28-7.57,8.54-11.36,12.8c-5.58,0.29-11.22,1.18-16.72,0.67
				c-3.8-0.36-7.43-2.67-11.5-4.69c-0.85-1.4-1.58-2.17-1.76-3.04c-1.03-4.98-1.92-9.99-2.51-14.99c3.01-2.06,5.99-3.82,8.27-6.23
				c7.47-7.9,14.93-15.84,21.9-24.18c2.77-3.32,4.25-7.72,6.32-11.63c-13.88,13.11-28.78,24.16-45.51,33.17
				c-7-3.07-13.65-6.06-20.31-9.05c-4.49-5.4-4.41-6.58,2.08-11.1c10.72-7.47,21.92-14.3,32.31-22.19
				c17.93-13.61,35.32-27.94,53.09-41.76c12-9.33,24.01-18.68,36.56-27.22c4.9-3.34,11.3-4.48,17.43-6.16
				c0.37,3.45,0.24,6.44,0.3,9.42c0.27,15.7,9.32,27.02,24.96,31.49c3.19,5.46,5.16,5.64,8.43,0.76c1.51-2.25,2.48-4.86,4.07-7.26
				c2.84,1.01,5.3,1.96,7.77,2.93c12.03,4.72,24.15,9.27,37.21,10c13.91,0.78,14.24,0.45,19.78-12.38
				c3.05-7.06,5.84-14.24,9.02-21.59c3.53-7.18,6.78-14.12,10.02-21.06c-0.52-0.24-1.03-0.48-1.55-0.71
				c-3.84,6.84-7.67,13.67-11.77,20.63c-0.45,0.17-0.64,0.22-1.18,0.16c-4.58-1.35-8.74-3.24-13.04-3.65
				c-4.56-0.44-9.26,0.52-14.08,0.42c-0.29-2.94-0.23-5.46-0.52-7.93c-1.36-11.58,3.56-19.94,13.56-25.99
				c4.29,0,8.12,0.01,12.26-0.02c0.59-0.29,0.88-0.54,1.47-0.87c0.71-0.07,1.12-0.06,1.94-0.02c2.49-0.78,6.15,3.18,7.11-2.15
				c1.77-0.68,3.21-1.27,4.79-1.54c0.31,1.7,0.49,3.08,0.65,4.39c3.39,0.91,5.81,0.51,7.35-3.06c0.85-1.97,2.68-4.79,4.26-4.92
				c3.51-0.29,6.33-0.61,8.35-3.96c0.28-0.47,4.45,0.3,4.65,1.08c0.93,3.5,1.08,7.21,1.51,10.78c2.81,0.74,5.59,1.47,8.25,2.32
				c-0.12,0.12,0.11-0.12,0,0.26c-0.4,2.33-2.97,4.69,0.9,6.28c0,1.8-0.01,3.18-0.35,4.61c-0.13,1.02,0.07,1.98,0.28,3.36
				c-2.01,6.86-3.12,13.79-6.21,19.68c-6.52,12.41-13.75,24.49-21.35,36.27c-4.74,7.35-10.58,14.01-16.13,20.81
				c-2.88,3.54-6.78,5.02-11.47,4.91c-18.96-0.41-35.87-7.41-52.27-16.03c-4.69-2.47-9.19-5.32-13.77-8
				c-0.28,0.45-0.57,0.9-0.85,1.35c3.94,2.82,7.7,5.93,11.84,8.42c14.76,8.86,30.74,14.7,47.55,18.22c8.6,1.8,17.17,2.8,24.14-4.89
				c7.09,1.03,13.84,1.91,20.64,3.18c2,6.16,3.4,12.18,6.01,17.63c2.62,5.46,6.44,10.34,9.72,15.8c0.72,1.3,1.44,2.28,2.16,3.26
				c1.48,1.9,2.96,3.8,4.86,6.16C437.95,557.42,445.56,562.44,455.05,564.19z M328.07,586.49c-0.76-1.66-1.25-3.52-2.32-4.94
				c-7.21-9.64-11.34-20.77-15.63-31.84c-0.46-1.19-1.14-2.3-1.72-3.45c-0.42,0.16-0.85,0.31-1.27,0.47
				c0.96,5.98,1.65,12.02,2.96,17.92c1.33,5.96,2.97,11.9,5.01,17.66c2.93,8.31,8.38,14.24,16.93,16.65
				c0.45-0.3,0.91-0.59,1.36-0.89C331.69,594.45,329.98,590.84,328.07,586.49z M407.49,563.45c-0.06,1-0.47,2.14-0.14,2.99
				c3.25,8.29,9.32,14.48,15.98,19.97c5.17,4.26,11.27,6.65,18.58,4.48c-2.99-2.77-6.06-5.54-9.65-7.13
				C422.27,579.33,414.07,572.94,407.49,563.45z M248.84,555.29c-0.85,2.31-1.7,4.62-2.57,6.96c10.02,2.19,18.1-21.68,15.29-40.41
				c-0.39,0.47-0.86,0.78-0.94,1.17C258.42,534.13,254.49,544.62,248.84,555.29z M348.01,544.52c1.3,7.11,4.94,12.53,11.48,16.02
				c-4.12-14.46-13.59-27.15-13.25-42.97C344.36,526.52,345.47,535.16,348.01,544.52z"/>
			<path class="st2" d="M171.02,407.97c-5.7,3.29-11.18,7.03-17.13,9.78c-13.36,6.19-27.21,11.02-41.77,13.68
				c-15.25,2.79-30.17,2.05-44.18-4.79c-7.15-3.49-11.96-9.78-14.93-17.31c-6.55-16.57-8.18-33.87-6.84-51.38
				c0.74-9.68,2.77-19.32,4.87-28.84c4.31-19.46,12.42-37.49,23.16-54.13c6.69-10.37,14.37-20.32,22.88-29.24
				c9.08-9.53,19.54-17.47,31.36-24.01c12.12-6.7,24.72-10.63,38.08-11.44c10.22-0.62,21.11-1.17,30.28,5.14
				c7.4,5.1,11.16,12.94,14.03,21.19c4.43,12.72,7.46,25.78,8.16,39.23c0.67,12.78,1.45,25.61,0.89,38.37
				c-0.93,21.23-4.04,42.28-14.76,61.08c-7.4,12.98-18.15,23.17-31.8,30.38c-5.17-5.15-10.03-9.87-14.37-15.02
				c-2.27-2.69-4.54-5.99-1.24-9.73c7.47-8.49,15.01-16.92,22.32-25.55c5.79-6.82,8.71-14.74,7.99-23.81
				c-0.38-4.73-4.85-8.06-8.63-6.17c-8.87,4.45-16.13,10.74-20.54,19.79c-4.16,8.52-5.27,17.66-4.86,27.06
				c0.09,2.17-0.27,4.36-0.44,6.7c-1.24-0.26-1.96-0.2-2.16-0.49c-3.42-5.09-6.92-10.13-10.01-15.42c-0.61-1.04-0.05-3.41,0.8-4.55
				c2.75-3.71,6.3-6.87,8.79-10.72c4.28-6.62,10.95-12.42,9.01-21.6c-0.47-2.21-1.23-5.81-2.48-6.1c-2.52-0.58-6.67-0.31-8.02,1.34
				c-4.08,5.01-7.62,10.62-10.42,16.45c-1.82,3.8-1.96,8.4-3.1,13.81c-2.79-6.28-5.26-11.43-7.3-16.74
				c-0.43-1.12,0.35-3.2,1.26-4.24c1.79-2.05,4.27-3.48,6.07-5.52c3.17-3.59,5.93-7.53,9.05-11.16c5.9-6.85,10.62-14.13,8.88-23.74
				c-0.27-1.51-1.4-3.33-2.68-4.12c-3.84-2.38-10.72,0.56-14.49,5.58c-6.07,8.08-10.38,16.79-10.85,27.11
				c-0.04,0.99-0.98,1.94-1.51,2.9c-1.23-2.29-0.81-4.7-1.82-6.06c-4.87-6.56-1.94-13.19-0.24-19.55
				c2.71-10.17,6.12-20.08,3.73-30.89c-1.14-5.13-6.44-10.42-11.29-10.32c-5.11,0.11-9.21,4.11-9.72,10.07
				c-0.84,9.94,0.84,19.46,4.97,28.63c3.42,7.59,6.32,15.43,9.36,23.19c0.4,1.04,0.25,2.29,0.35,3.43
				c-5.21-3.65-9.73-7.49-14.85-10.21c-5.64-2.99-13.36-1.42-16.8,2.44c4.61,10.32,14.34,10.51,23.4,11.29
				c5.89,0.51,11.49-0.54,12.87,7.83c0.88,5.33,3.74,10.33,5.71,15.47c-0.32,0.28-0.65,0.56-0.97,0.84
				c-1.43-0.89-2.88-1.76-4.29-2.69c-4.95-3.25-9.58-7.21-14.9-9.64c-10.96-5.01-22.29-5.38-33.56-0.35
				c-3.53,1.58-4.33,3.79-2.43,7.11c3.61,6.29,9.77,9.67,16.25,10.33c11.35,1.16,22.87,1.13,34.29,0.74
				c6.58-0.23,8.61,0.14,11.58,6.08c1.62,3.24,3.61,6.29,5.31,9.5c0.35,0.67,0.13,1.64,0.17,2.48c-0.61,0.48-1.22,0.95-1.84,1.43
				c-2.7-3.29-5.14-6.86-8.16-9.82c-6.55-6.44-19.34-8.14-27.32-4c-4.29,2.22-5.58,6.85-2.12,9.71c6.6,5.44,13.35,10.63,22.84,10.25
				c6.77-0.27,13.58,0.49,20.36,0.94c1.22,0.08,2.83,0.55,3.52,1.42c3.77,4.82,7.31,9.82,11.46,15.48
				c-8.42-2.61-15.78-5.32-23.36-7.11c-5.15-1.22-10.73-2.07-15.9-1.38c-4.2,0.56-8.06,3.64-12.34,5.8
				c-1.71,1.38-3.16,2.56-4.96,3.8c-3.6,3.05,0,4.67,1.38,5.77c6.5,5.21,14.27,6.94,22.34,5.76c9.94-1.46,19.83-3.39,29.61-5.67
				C162.78,402.54,167.48,402.81,171.02,407.97z"/>
			<path class="st4" d="M171.34,407.92c-3.86-5.11-8.55-5.38-14.27-4.05c-9.78,2.28-19.67,4.21-29.61,5.67
				c-8.07,1.18-15.84-0.55-22.34-5.76c-1.38-1.1-4.98-2.72-1.35-5.39c1.9,3.75,4.72,2.94,7.03,1.88c1.33-0.61,2.07-2.54,3.07-3.87
				c-1.64-0.79-3.27-1.58-4.91-2.37c4.01-1.96,7.88-5.05,12.08-5.61c5.16-0.69,10.74,0.16,15.9,1.38
				c7.58,1.79,14.94,4.49,23.36,7.11c-4.15-5.66-7.69-10.66-11.46-15.48c-0.68-0.87-2.3-1.34-3.52-1.42
				c-6.78-0.45-13.6-1.21-20.36-0.94c-9.49,0.37-16.24-4.81-22.84-10.25c-3.47-2.86-2.17-7.48,2.12-9.71
				c7.98-4.14,20.77-2.44,27.32,4c3.02,2.97,5.46,6.53,8.16,9.82c0.61-0.48,1.22-0.95,1.84-1.43c-0.04-0.83,0.18-1.81-0.17-2.48
				c-1.69-3.21-3.69-6.26-5.31-9.5c-2.97-5.93-5-6.31-11.58-6.08c-11.42,0.4-22.95,0.42-34.29-0.74
				c-6.48-0.66-12.64-4.04-16.25-10.33c-1.91-3.32-1.1-5.54,2.43-7.11c11.26-5.03,22.59-4.66,33.56,0.35
				c5.32,2.43,9.95,6.39,14.9,9.64c1.41,0.93,2.86,1.79,4.29,2.69c0.32-0.28,0.65-0.56,0.97-0.84c-1.97-5.15-4.83-10.15-5.71-15.47
				c-1.38-8.37-6.98-7.33-12.87-7.83c-9.06-0.78-18.8-0.97-23.4-11.29c3.44-3.86,11.16-5.43,16.8-2.44
				c5.12,2.72,9.64,6.56,14.85,10.21c-0.1-1.14,0.05-2.4-0.35-3.43c-3.04-7.76-5.94-15.6-9.36-23.19
				c-4.14-9.18-5.82-18.69-4.97-28.63c0.5-5.96,4.61-9.96,9.72-10.07c4.85-0.1,10.15,5.19,11.29,10.32
				c2.39,10.81-1.02,20.72-3.73,30.89c-1.7,6.36-4.63,12.99,0.24,19.55c1.01,1.36,0.58,3.77,1.82,6.06c0.52-0.97,1.46-1.92,1.51-2.9
				c0.47-10.32,4.78-19.03,10.85-27.11c3.77-5.02,10.65-7.97,14.49-5.58c1.28,0.79,2.4,2.61,2.68,4.12
				c1.74,9.61-2.98,16.88-8.88,23.74c-3.12,3.63-5.89,7.57-9.05,11.16c-1.8,2.04-4.29,3.47-6.07,5.52
				c-0.91,1.04-1.69,3.11-1.26,4.24c2.03,5.32,4.51,10.46,7.3,16.74c1.14-5.41,1.29-10.01,3.1-13.81
				c2.79-5.83,6.34-11.44,10.42-16.45c1.34-1.65,5.49-1.92,8.02-1.34c1.25,0.29,2.01,3.89,2.48,6.1c1.94,9.19-4.73,14.99-9.01,21.6
				c-2.49,3.86-6.04,7.02-8.79,10.72c-0.85,1.14-1.41,3.51-0.8,4.55c3.09,5.28,6.59,10.33,10.01,15.42c0.2,0.29,0.92,0.23,2.16,0.49
				c0.17-2.34,0.54-4.53,0.44-6.7c-0.41-9.4,0.71-18.54,4.86-27.06c4.41-9.05,11.67-15.34,20.54-19.79c3.78-1.9,8.25,1.43,8.63,6.17
				c0.72,9.07-2.2,16.99-7.99,23.81c-7.32,8.62-14.85,17.06-22.32,25.55c-3.3,3.75-1.03,7.04,1.24,9.73
				c4.35,5.15,9.21,9.87,14.03,15.08C172.64,406.66,172.15,407.27,171.34,407.92z M113.82,256.54c-0.28,0.12-0.55,0.24-1.47,0.66
				c-0.67,0.47-1.69,0.79-1.93,1.42c-0.55,1.43-0.71,3.01-1.02,4.52c1.23,0.21,2.88,1.01,3.59,0.5c1.57-1.13,2.66-2.92,3.94-4.44
				C115.96,258.42,114.99,257.63,113.82,256.54z M77.15,340.58c2.73,0.04,5.48,0.24,8.17-0.06c0.44-0.05,0.63-2.31,0.93-3.55
				c-2.19-0.31-4.49-1.15-6.53-0.74C78.5,336.47,77.67,338.67,77.15,340.58z"/>
			<path class="st5" d="M393.34,611.79c-7.5-10.23-9.89-22.54-13.14-34.45c-4.84-17.75-8.06-35.83-8.86-54.26
				c-0.05-1.06,0.49-2.15,1.05-4.44c1.74,5.44,2.86,9.8,4.5,13.95c4.78,12.17,8.63,24.89,14.94,36.22
				c10.24,18.4,27.54,27.69,47.91,31.07c8.3,1.37,16.83,2.06,25.23,1.94c12.42-0.18,24.87-1.05,36.47-6.38
				c0.64-0.29,1.56,0.03,2.57,0.35c-24.87,14.38-51.72,14.11-79.03,9.95c-4.09-0.62-8.14-1.6-12.2-2.43
				C400.5,600.81,400.25,600.91,393.34,611.79z"/>
			<path class="st6" d="M128.02,540.31c6.84,2.69,13.5,5.68,20.54,8.96c0.39,0.29,0.48,0.7,0.12,0.74
				c-8.72,4.55-17.13,8.92-19.23,19.61c-0.44,2.26-2.25,4.26-3.43,6.38c-3.74,3.81-8.54,3.09-13.15,3
				c-15.25-0.3-30.5-0.6-45.74-1.11c-2.39-0.08-4.74-1.25-7.1-1.91c1.62-1.96,2.98-4.27,4.94-5.79c2.19-1.7,4.92-2.69,7.72-4.19
				C92.4,559.87,111.61,553.49,128.02,540.31z"/>
			<path class="st7" d="M286.56,593.65c-2.96-10.4-5.55-20.66-8.1-30.93c-5.66-22.77-5.95-45.95-5.28-69.21
				c0.01-0.28,0.3-0.55,1.34-2.34c0.98,5.4,1.63,9.53,2.48,13.62c2.37,11.48,4.2,23.12,7.4,34.37c3.7,13.01,8.08,25.89,13.22,38.39
				c3.62,8.83,9,16.93,13.36,25.58C303.4,598.76,295.87,594.54,286.56,593.65z"/>
			<path class="st8" d="M190.23,580.07c3.58-4.34,7.38-8.59,11.15-12.87c9.24-10.48,15.87-22.61,22.1-34.99
				c0.34-0.67,0.87-1.25,1.82-2.6c0.33,1.52,0.74,2.28,0.6,2.91c-3.99,18.3-12.06,34.85-21.84,50.65c-0.3,0.48-1.12,0.65-2.08,1.1
				c-3.35-1.05-6.32-2.25-9.79-3.73c-0.75-0.46-1.02-0.5-1.3-0.41C190.88,580.14,190.44,580.14,190.23,580.07z"/>
			<path class="st9" d="M126.45,576.07c0.75-2.18,2.56-4.18,3-6.44c2.1-10.69,10.51-15.05,19.56-19.5c2.36,1.77,4.03,3.48,5.5,5.5
				c-1.42,3.49-3.13,6.57-3.73,9.86c-0.84,4.68-2.83,8.19-7.11,10.32C138.08,575.91,132.48,576.02,126.45,576.07z"/>
			<path class="st10" d="M144.16,575.87c3.79-2.19,5.78-5.7,6.62-10.38c0.59-3.29,2.31-6.38,3.97-9.78
				c1.11,0.59,1.76,1.42,2.42,2.24c0.94,5,1.83,10.01,2.86,14.99c0.18,0.88,0.91,1.64,1.51,2.78
				C156,576,150.33,575.97,144.16,575.87z"/>
			<path class="st3" d="M191.02,580.3c0.15-0.25,0.42-0.21,0.8,0.11c0.14,0.15-0.28,0.22-0.28,0.22S191.15,580.47,191.02,580.3z"/>
			<path class="st0" d="M362.19,406.82c-9.55,6.05-14.46,14.42-13.11,25.99c0.29,2.47,0.23,4.99,0.21,8.17
				c-1.65,1.14-3.17,1.58-3.77,1.76c-0.85-5.15-1.65-10.03-2.4-15.23c-0.04-5.31-0.14-10.3,0.04-15.54
				c0.59-2.65,0.15-5.54,1.35-7.34c2.82-4.25,1.36-6.5-2.37-8.82c-1.06-0.66-2.18-3.21-1.73-3.97c3.48-5.85-1.94-8.71-4.36-12.66
				c-0.43,1.92,0,3.66,0.4,5.42c0.33,1.47,1.39,3.45,0.8,4.34c-2.45,3.74-1.03,6.48,1.97,8.52c2.84,1.93,3.01,4.41,2.85,7.32
				c-0.13,2.42-0.05,4.85-0.46,7.28c-5.68,0.66-7.46,3.17-6.26,8.24c0.6,2.53,1.16,5.06,1.61,7.93c-4.44,11.12-8.1,12.96-16.94,8.31
				c0.71-6.75-0.59-12.23-6.04-16.24c-0.94-0.69-1.29-2.19-1.93-3.31c-3.11-5.4-6.71-10.76-13.52-10.91
				c-6.08-0.14-12.2,1.19-18.3,1.86c1-2.52,1.42-5.55,3.1-7.47c3.9-4.44,4.26-8.95,1.36-13.68c-2.59-4.23-1.74-7.4,1.83-10.43
				c4.49-3.81,5.59-8.63,4.52-14.4c-1.47-7.94-0.02-9.77,7.42-12.69c1.54-0.61,2.42-2.92,3.6-4.45c1.7-2.21,2.99-5.63,5.19-6.4
				c5.11-1.79,6.56-5.27,6.65-9.89c0.1-4.59,1.44-8.01,6.35-9.45c1.31-0.39,3.09-2.13,3.16-3.34c0.5-7.9,5.74-10.63,12.62-12.55
				c0.05-0.51-0.17-0.58-0.38-0.64c0,0-0.15-0.18,0.08-0.52c0.44-1.04,0.66-1.74,0.87-2.43c-0.59,0.14-1.19,0.29-1.78,0.43
				c0,0-0.23-0.19,0.03-0.67c3.22-4.72,6.2-8.95,9.11-13.23c0.23-0.34,0.01-0.98,0.26-1.73c4.77-1.04,9.28-1.84,13.87-2.32
				c4.84,4.91,4.84,4.91,7.31-0.24c2.91-4.1,5.44-8.25,11.26-6.71c5.11,1.35,9.12-0.54,12.59-4.14c5.04-0.89,8.15,2.08,10.9,5.57
				c2.58,3.28,5.15,4.24,8.74,1.27c2.88-2.38,5.72-2.33,7.77,1.44c1.87,3.44,4.99,4.25,8.55,3.29c3.04-0.81,5.95-2.21,9.02-2.79
				c2.26-0.42,4.7,0.06,7.59,0.54c0.27,1.12,0.01,1.84-0.25,2.57c-1.46-0.53-2.92-1.05-3.76-1.35c1.17,2.53,2.13,5.4,3.75,7.84
				c1.56,2.35,3.63,5.8,5.78,6.05c5.78,0.66,9.84,2.74,12.12,8.52c3.28,1.23,6.46,2.12,9.92,3.22c1.09,2.69,1.68,5.27,2.77,7.62
				c0.89,1.92,2.39,3.57,3.61,5.34c4.81,1.59,6.86,4.85,7.79,9.93c0.42,2.29,4.3,3.94,7.1,6.32c1.12,2.31,2.29,4.17,2.29,6.03
				c-0.01,4.64,2.01,7.91,5.65,10.45c-0.64,3.12-1.28,6.25-1.84,10.18c1.56,7.33-5.13,11.28-5.09,17.76
				c0.02,3.21-3.92,6.44-5.99,9.54c-0.85,2.71-1.26,5.72-2.66,8.17c-3.4,5.93-7.28,11.58-10.94,17.36c-0.16,0.25-0.1,0.65-0.46,1.16
				c-2.59,1.03-4.86,1.88-7.57,2.91c-0.5,6.07-4.26,8.82-10.7,8.23c-0.34-0.03-0.74,0.53-1.46,0.92c-0.79,0.78-1.13,1.56-1.68,2.12
				c-4.14,4.19-8.23,8.44-12.53,12.46c-1.54,1.44-3.6,2.31-5.53,3.04c1.18-6.72,2.83-12.99,3.64-19.36
				c0.94-7.35-0.45-13.97-8.58-16.99c-0.71-0.26-1.22-1.07-1.82-1.62c0,0-0.23,0.24-0.27-0.18c-1.72-2.94-4.48-5.29-4.89-8
				c-1.06-7.11-5.2-10.15-11.93-11.33c-1.52-0.94-2.8-1.68-4.12-2.79c-0.72-3.71-1.25-7.08-2.1-10.36c-0.5-1.92-1.18-3.98-2.38-5.5
				c-1.46-1.83-3.56-3.15-5.39-5.11c0-2.08,0-3.74,0.27-5.6c2.03-2.43,3.79-4.66,5.59-7.12c0.03-0.23,0.02-0.68,0.21-0.81
				c0.45-0.34,0.6-0.61,0.72-1.26c0.06-0.79,0.07-1.24,0.1-2.03c0.01-0.78,0-1.23,0-2.07c-1.27-6.23-3.96-6.97-10.98-3.77
				c-1.13-2.02-1.82-4.47-3.31-5.16c-3.82-1.77-5.1-4.62-5.98-8.42c-0.36-1.55-3.14-3.95-4.22-3.66c-3.69,0.96-4.52-1.41-6.17-3.55
				c-1.28-1.66-3.38-3.85-5.05-3.8c-4.02,0.11-6.74-1.47-8.93-4.37c-2.91-3.84-6.38-3.24-9.56-0.95c-1.8,1.29-2.83,3.66-4.43,5.85
				c-10.83,0.95-13.98,8.04-7.32,17.89c2.23,3.3,2.22,6.99,0.32,9.8c-2.25,3.32-0.55,5.39,1.46,6.63c4.16,2.56,4.56,6.18,4.07,10.26
				c-0.43,3.54,0.89,5.95,4.32,6.73c4.4,1.01,5.35,3.92,4.71,7.76c-1.08,6.47,5.94,9.36,6.56,15.08c0.04,0.39,1.04,0.9,1.64,0.97
				c5.94,0.66,6.58,5.07,6.79,9.93C363.99,404.94,363.09,405.88,362.19,406.82z M432.48,301.94c3.95-0.67,5,2.15,5.4,4.99
				c0.7,4.94,3.06,7.56,8.18,8.21c1.49,0.19,3.67,2.36,3.87,3.85c0.5,3.65,1.95,6,5.58,6.58c4.05,0.64,4.68,3.09,4.78,6.74
				c0.06,2.35,1.16,5.26,2.82,6.85c2.36,2.27,4.34,4.12,4.34,7.75c0,1.34,1.77,3.2,3.19,3.92c3.92,1.97,6.88,3.93,4.78,9.12
				c-0.49,1.22,0.59,3.11,1.05,4.66c0.42,1.41,1.52,2.82,1.41,4.15c-0.39,4.58-1.17,9.12-1.8,13.67c0.71,0.2,1.41,0.4,2.12,0.61
				c0.57-1.79,1.36-3.54,1.65-5.38c0.19-1.23-0.97-3.06-0.42-3.76c3.01-3.84,1.06-7.09-0.49-10.66c-0.63-1.46-0.15-3.47,0.04-5.21
				c0.31-2.96,0.47-5.94-3.09-6.95c-3.76-1.06-4.47-3.56-4.97-7.05c-0.31-2.19-2.57-4.09-3.9-6.15c-1.33-2.07-3.61-4.14-3.68-6.27
				c-0.14-4.1-1.91-6.29-5.18-8.3c-2.29-1.41-4.97-3.45-5.72-5.78c-1.12-3.46-3.1-4.99-6.2-5.55c-3.65-0.65-5.39-2.93-6.11-6.29
				c-1.2-5.59-2.95-6.95-8.58-6.03c-4.65,0.76-8.47,0.31-10.95-4.45c-1.4-2.68-4.14-4.57-7.07-2.81c-3.76,2.26-5.53,0.39-7.7-2.19
				c-3.87-4.59-7.34-4.99-12.13-1.24c-2.41,1.89-3.7,2.47-5.98-0.41c-3.03-3.83-9.37-1.94-10.46,1.6c3.68,0.77,7.43,1.66,11.22,2.29
				c1.21,0.2,2.8,0.13,3.75-0.52c5.22-3.52,8.86-1.75,11.95,3.03c2.02,3.13,4.49,3.88,8.03,1.75c1.26-0.76,4.67-0.4,5.22,0.54
				C420.87,303.25,425.86,303.52,432.48,301.94z M444.04,378.43c-0.46-1.39-0.5-3.34-1.46-4.08c-3.27-2.53-3.82-5.29-2.64-9.18
				c0.91-3,0.3-5.8-3.7-6.86c-3.61-0.95-5.66-3.21-5.45-7.6c0.07-1.52-2.85-3.2-4.44-4.77c-1.39-1.38-3.74-2.53-4.05-4.1
				c-0.85-4.23-3.02-6.16-7.17-5.88c-2.87,0.2-3.95-1.3-5.66-3.51c-3.27-4.2-7.73-7.48-11.72-11.12c-0.22-0.2-0.65-0.33-0.94-0.28
				c-4.27,0.85-5.34-2.47-6.56-5.24c-1.91-4.33-5.09-4-7.88-3.77c2.16,3.36,3.91,6.51,6.1,9.32c1.16,1.49,2.97,2.62,4.69,3.51
				c1.69,0.88,4.09,0.75,5.38,1.94c3.56,3.27,6.68,7.01,10.03,10.51c0.55,0.57,1.4,1.27,2.09,1.24c5.45-0.25,8.06,2.21,7.74,7.69
				c6.53,2.67,8.45,9.64,13.08,13.87c2.54,2.32,4.08,4.23,4.64,7.4c1.1,6.31,5.68,11.83,4.32,18.73c-0.07,0.35,0.42,0.92,0.79,1.21
				c3.6,2.82,3.14,5.97,1.47,9.77c-0.73,1.66,0,4.11,0.46,6.11c0.41,1.75,1.38,3.36,2.15,5.14c2.62-0.4,4.04-1.86,2.56-4.1
				c-2.58-3.9-0.97-7.17,0.83-10.09c2.29-3.72,1.27-5.68-2.04-7.67C443.9,384.98,442.03,382.7,444.04,378.43z M313.35,408.73
				c3.14,3.16,6.28,6.32,9.41,9.47c0.54-0.51,1.09-1.02,1.63-1.53c-1.68-2.31-3.17-4.79-5.08-6.9c-4.27-4.71-1.92-11.4-5.09-16.42
				c-0.23-0.36,0.74-1.39,1-2.16c0.36-1.08,1.09-2.41,0.75-3.27c-2.05-5.26-2.24-9.7,0.65-15.33c2.14-4.16,6.38-9.08,3.63-15.01
				c-0.18-0.39,1.23-1.39,1.65-2.23c0.49-0.98,0.93-2.09,0.98-3.17c0.13-2.92,0.05-5.85,0.05-9.6c-1.61,2.05-3.96,3.69-4.12,5.52
				c-0.43,4.88-6.04,8.62-2.99,14.23c0.36,0.66-0.69,2.1-1.12,3.16c-0.88,2.15-1.74,4.32-2.71,6.43c-0.45,0.99-1.16,1.86-1.73,2.8
				c-0.75,1.26-2.3,2.71-2.08,3.79c1.09,5.4,3.39,10.7,0.05,16.11c-0.12,0.19,0.05,0.77,0.26,0.91
				C313.21,398.63,311.33,403.96,313.35,408.73z M432.02,324.47c-3.52-2.57-7.07-5.06-8.69-9.47c-0.24-0.65-2.06-1.11-3.09-1
				c-3.61,0.35-5.43-1.52-6.96-4.47c-0.79-1.52-2.45-2.59-4.57-4.74c1.55,4.25,2.32,6.9,3.51,9.35c0.53,1.09,2.1,2.65,2.87,2.48
				c4.25-0.89,6.45,0.67,7.83,4.69C423.9,324.19,429.91,326.4,432.02,324.47z M459.01,371.28c0.07-1.86,0.15-3.71,0.2-5.57
				c0.04-1.52,0.66-3.52-0.07-4.46c-1.73-2.24-4.12-3.97-6.24-5.91c4.31,8.76,2.1,19.23,8.13,27.88
				C462.57,378.84,464.06,375.02,459.01,371.28z"/>
			<path class="st11" d="M432.21,447.09c1.83-1.13,3.89-2,5.43-3.44c4.3-4.02,8.39-8.26,12.53-12.46c0.56-0.57,0.9-1.35,2.05-2.14
				c1.5,0.38,2.56,0.68,3.04,1.39c4.39,6.44,6.19,13.81,6.77,21.39c0.47,6.14,0.09,12.35,0.09,18.68c1.08-0.22,1.32-0.2,1.35-0.28
				c7.14-15.62,10.16-32.28,12.62-49.11c0.5-3.41-1.1-4.52-4.19-4.29c0.04-0.33-0.01-0.72,0.15-0.98
				c3.66-5.78,7.53-11.44,10.94-17.36c1.4-2.44,1.81-5.46,2.66-8.17c2.07-3.1,6.01-6.33,5.99-9.54c-0.04-6.48,6.66-10.44,5.24-17.37
				c4.09-3.75,7.74-7.77,12.25-10.22c4.19-2.29,9.22-3.66,14.01-4.1c9.63-0.88,11.64,5.02,9.1,13.68
				c-4.26,14.48-14.81,23.2-27.29,30.31c-6.75,3.85-13.31,8.05-19.78,12.36c-1.4,0.93-2.6,2.9-2.94,4.58
				c-1.52,7.52-2.76,15.11-3.96,22.69c-0.29,1.85-0.04,3.78-0.04,6.32c6.54-7.79,12.37-14.87,18.35-21.82
				c6.83-7.93,15.32-13.89,24.93-17.65c8.92-3.49,18.53-4.58,28.18-3.57c5.38,0.56,7.57,4.61,5.62,9.64
				c-4.84,12.45-14.37,20.41-26.19,25.25c-10.78,4.42-22.15,7.41-33.28,10.95c-5.92,1.88-12.43,2.66-17.65,5.69
				c-3.05,1.77-4.46,6.87-5.94,10.73c-2.56,6.71-4.59,13.63-6.85,20.46c-0.4,1.22-0.82,2.43-1.24,3.64c0.48,0.35,0.96,0.7,1.44,1.05
				c2.13-1.85,4.39-3.56,6.36-5.57c10.17-10.37,21.12-19.82,35.68-22.92c6.11-1.3,12.82-0.3,19.19,0.28c3.34,0.3,4.06,3.59,3.1,6.25
				c-2.91,8.07-8.25,14.84-16.34,17.25c-12.15,3.62-24.8,5.6-37.24,8.25c-5.02,1.07-10.18,1.68-15,3.32
				c-1.98,0.67-3.54,3.33-4.75,5.4c-4.87,8.35-9.55,16.82-14.25,25.26c-0.18,0.33,0.1,0.91,0.24,1.91
				c3.94-3.17,7.46-6.29,11.26-9.01c10.55-7.54,21.58-14.43,34.65-16.36c9.02-1.33,18.28-1.53,27.07,1.86
				c5.67,2.18,6.3,6.72,1.23,12.32c-8.41,9.29-18.79,15.96-31.15,18.17c-16.42,2.94-33.08,4.55-49.52,7.4
				c-3.47,0.6-6.44,4.06-9.83,6.48c-0.91-0.7-1.63-1.68-2.28-3.37c1.56-2.85,2.89-5.12,4.58-7.1c2.44-2.86,2.74-5.11-0.42-7.86
				c-3.02-2.63-5.47-5.92-8.13-8.96c-3.34-3.8-6.63-7.64-9.95-11.91c-0.07-2.31-0.14-4.16-0.16-6.36
				c3.41-7.3,6.79-14.25,10.54-21.19c2.93,1.63,5.96,2.82,7.94,4.96c6.76,7.34,10.43,15.98,9.76,26.21
				c-0.22,3.42-0.04,6.86-0.04,10.29c0.5,0.03,1,0.07,1.5,0.1c5.88-11.19,11.51-22.51,17.77-33.48c2.11-3.69,0.71-5.47-1.67-7.5
				c-8.84-7.55-17.71-15.05-26.44-22.9C430.34,451.9,431.27,449.5,432.21,447.09z M540.8,398.67c-1.47,1.78-2.94,3.57-4.42,5.35
				c2.22,0.98,4.41,2.04,6.68,2.89c0.72,0.27,1.86,0.32,2.42-0.07c2.28-1.6,6.13-3.32,6.22-5.16c0.19-3.73-3.75-3.74-6.75-3.74
				C543.82,397.94,542.67,398.2,540.8,398.67z"/>
			<path class="st11" d="M476.06,319.93c-1.55-1.58-3.04-3.22-3.93-5.15c-1.09-2.35-1.68-4.93-2.82-7.86
				c-0.66-0.82-0.98-1.19-1.3-1.56c0.65-7.67-0.63-13.79-7.12-19.75c-10.42-9.57-19.77-20.53-28.27-31.88
				c-3.55-4.75-4.15-11.92-5.39-18.12c-1.22-6.12,2.89-11.02,6.8-14.35c4.35-3.7,14.31-1.28,18.45,3.48
				c5.15,5.92,9.35,12.27,11.92,20.08c4.56,13.88,5.51,27.98,5.87,42.34c0.12,4.81,1.9,9.59,2.95,14.38
				c0.86,3.94,1.75,7.86,2.65,11.92c2-6.41,3.56-12.73,5.94-18.73c3.7-9.32,10.31-16,19.91-19.45c6.17-2.22,10.13,0.57,9.35,7
				c-1,8.18-5.67,14.08-12.36,18.68c-6.64,4.56-13.18,9.3-19.58,14.19C477.8,316.15,477.27,318.18,476.06,319.93z M440.57,221.94
				c-2.7,0.69-7.07,0.47-5.68,4.72c1.21,3.69,5.29,4.91,9.18,4.13c1.46-0.29,3.58-1.7,3.81-2.91c0.79-4.08-3.08-4.37-5.56-5.71
				C442.05,222.02,441.69,222.03,440.57,221.94z"/>
			<path class="st11" d="M498.96,352.86c-4.03-2.54-6.06-5.82-6.04-10.46c0.01-1.86-1.17-3.72-1.96-5.92
				c2.85-4.6,6.13-8.69,8.81-13.14c6.5-10.81,15.64-18.41,27.52-22.27c5.55-1.81,11.56-2.53,17.42-3c4.9-0.39,8.18,4.21,6.85,9.01
				c-4.13,14.83-13.23,25.49-27.03,32.36C516.01,343.66,507.73,348.37,498.96,352.86z M544.98,302.34
				c-4.79-2.34-9.25-1.66-12.57,1.97c-2.06,2.25-1.66,5.06,0.83,5.68c2.77,0.7,6.33,0.31,8.89-0.94
				C543.84,308.22,544.41,305.05,544.98,302.34z"/>
			<path class="st12" d="M280.13,408.28c6.2-1.01,12.32-2.34,18.4-2.2c6.81,0.15,10.41,5.51,13.52,10.91
				c0.64,1.12,0.99,2.62,1.93,3.31c5.45,4.01,6.76,9.48,5.79,16.44c-1.43,2.79-2.6,4.92-4.08,7.2c-4.21,4.56-8.8,7.81-15.16,8.42
				c-2.61-4.27-4.86-8.31-7.12-12.36c-0.46,0.11-0.92,0.22-1.38,0.34c0,2.21,0,4.42-0.37,6.62c-4.28-2.51-8.17-5.04-12.1-7.51
				c-1.45-0.91-3-1.67-4.78-2.73c-1.52-2.11-2.76-3.99-4-5.87c0.38-1.75,1.05-3.5,1.09-5.26
				C272.02,418.66,275.78,413.54,280.13,408.28z"/>
			<path class="st13" d="M292.04,446.98c0-2.21,0-4.42,0-6.63c0.46-0.11,0.92-0.22,1.38-0.34c2.26,4.04,4.51,8.09,6.81,12.64
				c0.32,3.78,0.6,7.05,0.65,10.57c-2.17,3.15-4.11,6.05-6.06,8.95c-15.53-4.14-24.57-15.46-24.84-31.16
				c-0.05-2.99,0.07-5.98,0.1-9.42c-0.02-0.45,0.31-0.69,0.51-0.71c1.44,1.86,2.69,3.74,4.24,6.2c2.11,6.45,6.43,10.19,11.37,13.25
				c1.39,0.87,3.32,0.87,5,1.27C291.47,450.07,291.75,448.52,292.04,446.98z"/>
			<path class="st14" d="M455.1,563.81c-9.53-1.38-17.15-6.39-23.85-13.51c5.04-1.87,10.17-3.52,15.36-4.94
				c1.55-0.42,3.3-0.49,4.9-0.27c7.9,1.1,10.49,7.64,5.91,14.61C456.62,560.92,455.9,562.19,455.1,563.81z"/>
			<path class="st15" d="M130.8,493.3c3.57,5.07,2.85,13.33-1.19,17.07c-2.48,2.31-7.12,2.16-9.46-0.3
				c-3.78-3.98-3.63-13.16,0.54-16.71C123.71,490.8,127.14,489.95,130.8,493.3z"/>
			<path class="st15" d="M275.34,314.95c-3.31-2.67-7.05-4.89-8.79-8.17c-1.05-1.99,0.11-6.84,1.92-8.19
				c2.05-1.52,6.36-1.5,8.93-0.39c2.52,1.08,4.74,4.07,5.95,6.74C285.93,310.63,282.48,314.86,275.34,314.95z"/>
			<path class="st15" d="M494.93,224.63c4.38-2.37,10.04-0.49,10.69,4.05c0.54,3.76-0.31,8.04-1.74,11.62
				c-0.7,1.75-4.46,3.71-6.22,3.24c-2.42-0.65-5.45-3.17-6.09-5.48C490.32,233.51,490.19,228.47,494.93,224.63z"/>
			<path class="st16" d="M459.33,303.61c-2.17-5.44-6.24-7.52-12.01-8.18c-2.16-0.25-4.22-3.7-5.78-6.05
				c-1.62-2.44-2.58-5.31-3.75-7.84c0.84,0.3,2.3,0.83,3.76,1.35c0.26-0.72,0.52-1.45,0.65-2.49c1.34-0.81,2.81-1.3,3.81-1.63
				c0.91,3.36,1.73,6.26,2.48,9.19c0.33,1.29,0.51,2.61,0.39,4.24c-1.58-0.6-2.78-1.53-4.97-3.21c2.86,4.96,2.86,4.96,9.41,4.92
				C458.09,293.88,461.47,299.32,459.33,303.61z"/>
			<path class="st17" d="M388.85,270.98c-3.07,3.62-7.08,5.51-12.19,4.16c-5.82-1.54-8.35,2.6-11.59,6.72
				c-1.24,0.43-1.9,0.61-2.56,0.79c0.4-0.38,0.8-0.76,1.21-1.14c-0.54-0.86-1.08-1.72-1.63-2.58c0.8-1.95,1.61-3.9,2.81-5.77
				c0.52,1.04,0.64,2,0.91,4.17c2.63-4.69,4.09-9.25,9.72-7.52c0.13-0.6,0.25-1.19,0.38-1.79
				C380.02,269.24,383.59,272.89,388.85,270.98z"/>
			<path class="st18" d="M365.33,188.65c0.46-2.92,0.71-5.87,2.11-8.08c0.68-1.08,3.93-1.62,5.26-0.93
				c1.29,0.67,2.53,3.46,2.15,4.87c-0.59,2.17-2.25,4.46-4.12,5.71C369.73,190.87,367.34,189.42,365.33,188.65z"/>
			<path class="st19" d="M343.95,284.65c0.01,0.5,0.23,1.14,0.01,1.48c-2.91,4.27-5.89,8.5-9.1,13.08
				c-2.31-7.89-0.48-12.93,6.72-17.46c0.44,0.6,0.47,0.88,0.25,1.4c-0.62,0.65-0.98,1.07-1.34,1.48
				C341.64,284.64,342.79,284.65,343.95,284.65z M336.8,293.07c-0.14-0.55-0.28-1.11-0.42-1.66c-0.36,0.19-0.72,0.39-1.08,0.58
				C335.65,292.49,336,293,336.8,293.07z"/>
			<path class="st18" d="M77.75,514.23c-0.73-0.95-1.6-1.64-1.58-2.31c0.06-2.07,0.45-4.14,0.71-6.21c2.04,0.6,4.92,0.61,5.89,1.97
				c1.1,1.55,1.18,4.57,0.46,6.5C82.19,517.01,79.9,516.18,77.75,514.23z"/>
			<path class="st20" d="M459.44,303.95c2.03-4.63-1.35-10.07-6.12-10.04c-6.54,0.04-6.54,0.04-9.41-4.92
				c2.19,1.69,3.39,2.61,4.92,3.53c1.95-0.12,3.57-0.18,5.18-0.37c3.87-0.45,6.63,0.98,7.05,4.98c0.43,4.16,2.62,6.52,6.63,8.06
				c0.64,0.54,0.96,0.91,1.33,1.51C465.9,306.07,462.72,305.18,459.44,303.95z"/>
			<path class="st20" d="M342.07,282.92c-0.03-0.29-0.06-0.57-0.15-1.29c3.71-1.19,7.45-2.23,11.25-2.62
				c2.81-0.29,5.7,0.28,8.73,0.19c0.72,0.59,1.26,1.45,1.8,2.31c-0.4,0.38-0.8,0.76-1.21,1.14c0.66-0.18,1.33-0.36,2.32-0.55
				c-1.89,4.89-1.89,4.89-7-0.33C352.34,281.73,347.21,282.32,342.07,282.92z"/>
			<path class="st21" d="M290.44,274.33c-0.14-2.18-0.04-4.07,0.07-5.97c1.34,0.25,3.35,0.07,3.86,0.86
				c0.83,1.28,0.66,3.2,0.92,4.84C293.76,274.25,292.22,274.43,290.44,274.33z"/>
			<path class="st18" d="M531.3,263.07c1.42,0.9,2.48,1.87,3.53,2.84c-1.33,1.3-2.56,2.74-4.05,3.82c-0.38,0.28-1.59-0.59-2.42-0.93
				C529.21,266.92,530.07,265.04,531.3,263.07z"/>
			<path class="st22" d="M375.55,267.93c0.22,0.7,0.09,1.29-0.03,1.89c-5.63-1.72-7.1,2.83-9.72,7.52
				c-0.27-2.18-0.39-3.13-0.65-4.41c-0.14-0.32-0.55-0.55-0.74-0.5c-0.18,0.05-0.11,0.07-0.11,0.07c1-0.67,2.15-1.2,2.97-2.05
				C369.49,268.17,371.67,266.04,375.55,267.93z"/>
			<path class="st19" d="M334.8,300.32c0.62-0.43,1.21-0.57,1.81-0.72c-0.21,0.7-0.43,1.39-0.88,2.32
				C335.25,301.63,335.01,301.12,334.8,300.32z"/>
			<path class="st19" d="M335.68,302.68c0.19-0.07,0.4,0,0.44,0.15C335.94,302.93,335.7,302.81,335.68,302.68z"/>
			<path class="st17" d="M364.45,272.34c-0.15,0.16-0.22,0.14-0.27,0.15C364.29,272.4,364.45,272.29,364.45,272.34z"/>
			<path class="st23" d="M316,443.8c1.17-2.13,2.34-4.26,3.77-6.6c9.1,3.99,12.76,2.16,17.62-9.05c2.26-0.38,3.97-0.34,5.67-0.31
				c0.8,4.88,1.61,9.76,2.46,14.91c0.61-0.18,2.13-0.63,3.96-1.32c4.95-0.59,9.64-1.55,14.21-1.11c4.3,0.42,8.46,2.31,13.18,3.88
				c0.82,0.44,1.14,0.55,1.66,0.65c0.2,0,0.54,0.22,0.46,0.57c-0.98,1.23-2.16,1.95-2.72,3c-2.06,3.82-3.26,8.31-6.01,11.5
				c-4.53,5.26-9.11,10.4-17.15,11.4c-15.31,1.91-28.29-1.77-39.08-12.89c-2.62-2.7-2.63-5.33-0.6-8.45
				C314.63,448.15,315.16,445.88,316,443.8z"/>
			<path class="st24" d="M432.11,446.69c-0.83,2.81-1.77,5.21-3.12,8.18c-1.02,2.27-1.58,3.99-2.25,5.67
				c-2.2,5.48-4.44,10.94-6.66,16.41c-3.37,6.95-6.74,13.9-10.6,21.29c-5.8,0.17-11.12-0.09-16.39-0.7
				c5.49-9.41,11.03-18.42,16.38-27.53c7.99-13.61,15.58-27.45,18.11-43.29c0.61-3.83,2.64-8.28-1.43-11.73
				c-3.87-1.18-1.3-3.54-0.9-5.87c0.71,0.17,1.22,0.97,1.93,1.24c8.13,3.02,9.51,9.64,8.58,16.99
				C434.94,433.7,433.29,439.97,432.11,446.69z M427.48,412.45l0.16,0.1C427.64,412.54,427.62,412.35,427.48,412.45z"/>
			<path class="st25" d="M315.69,443.94c-0.52,1.93-1.06,4.21-2.26,6.05c-2.03,3.12-2.02,5.75,0.6,8.45
				c10.79,11.12,23.77,14.8,39.08,12.89c8.04-1,12.62-6.14,17.15-11.4c2.74-3.19,3.94-7.68,6.01-11.5c0.57-1.05,1.75-1.77,3.04-3.03
				c0.8-0.33,1.21-0.26,1.62-0.19c-2.9,7.12-5.69,14.3-8.74,21.36c-5.54,12.82-5.88,13.16-19.78,12.38
				c-13.05-0.73-25.17-5.29-37.21-10c-2.46-0.97-4.93-1.92-7.78-3.33c-2.36-1.17-4.34-1.9-6.31-2.63c-0.28-3.27-0.56-6.55-0.53-10.1
				C306.89,451.76,311.47,448.5,315.69,443.94z"/>
			<path class="st26" d="M426.14,415.39c4.07,3.04,2.04,7.49,1.43,11.32c-2.53,15.84-10.12,29.68-18.11,43.29
				c-5.35,9.12-10.88,18.13-16.7,27.63c-2.09,2.41-3.82,4.38-5.55,6.35c-6.62,7.84-15.2,6.84-23.8,5.04
				c-16.81-3.53-32.79-9.36-47.55-18.22c-4.14-2.49-7.91-5.6-11.84-8.42c0.28-0.45,0.57-0.9,0.85-1.35c4.58,2.68,9.08,5.53,13.77,8
				c16.4,8.62,33.31,15.62,52.27,16.03c4.7,0.1,8.59-1.38,11.47-4.91c5.54-6.81,11.39-13.46,16.13-20.81
				c7.6-11.79,14.82-23.87,21.35-36.27c3.1-5.89,4.2-12.82,6.46-19.86c0.1-1.47-0.04-2.35-0.19-3.23
				C426.13,418.57,426.13,417.18,426.14,415.39z"/>
			<path class="st8" d="M157.53,557.94c-1.01-0.82-1.67-1.64-2.57-2.54c-1.92-1.79-3.59-3.5-5.59-5.32
				c-0.33-0.11-0.42-0.52-0.46-0.72c16.34-9.3,31.25-20.35,45.12-33.46c-2.07,3.91-3.55,8.31-6.32,11.63
				c-6.97,8.34-14.43,16.28-21.9,24.18C163.52,554.12,160.54,555.88,157.53,557.94z"/>
			<path class="st8" d="M328.17,586.86c1.81,3.98,3.52,7.6,5.23,11.22c-0.45,0.3-0.91,0.59-1.36,0.89
				c-8.55-2.42-14-8.35-16.93-16.65c-2.03-5.76-3.68-11.69-5.01-17.66c-1.31-5.9-2-11.94-2.96-17.92c0.42-0.16,0.85-0.31,1.27-0.47
				c0.58,1.15,1.26,2.26,1.72,3.45c4.29,11.06,8.41,22.19,15.63,31.84C326.82,582.98,327.31,584.84,328.17,586.86z"/>
			<path class="st27" d="M410.09,504.97c3.31,3.82,6.61,7.66,9.95,11.46c2.66,3.03,5.11,6.32,8.13,8.96
				c3.16,2.75,2.86,4.99,0.42,7.86c-1.68,1.98-3.02,4.25-4.57,6.77c-3.36-4.75-7.18-9.63-9.79-15.09
				c-2.61-5.45-4.02-11.47-5.9-17.88C408.94,505.92,409.51,505.45,410.09,504.97z"/>
			<path class="st28" d="M362.64,406.82c0.45-0.94,1.35-1.88,2.77-3.19c1.85-1.01,3.19-1.66,4.94-2.16
				c13.62-0.12,23.99-6.82,33.84-14.68c1.28,0.74,2.56,1.47,3.89,2.75c-3.32,3.15-6.7,5.75-10.35,8.47
				c-1.1,0.65-1.92,1.19-3.08,1.81c-1.75,0.75-3.16,1.42-4.57,2.08c-1.44,0.59-2.88,1.18-5.04,1.87c-2.85,0.77-4.99,1.44-7.13,2.12
				c-0.41-0.01-0.83-0.03-1.82,0.09c-0.88,0.38-1.18,0.62-1.48,0.86C370.76,406.83,366.93,406.83,362.64,406.82z"/>
			<path class="st26" d="M407.73,563.67c6.35,9.27,14.55,15.66,24.53,20.08c3.59,1.59,6.66,4.36,9.65,7.13
				c-7.31,2.17-13.4-0.22-18.58-4.48c-6.67-5.48-12.73-11.67-15.98-19.97C407.02,565.59,407.42,564.45,407.73,563.67z"/>
			<path class="st26" d="M248.94,554.92c5.55-10.3,9.48-20.78,11.68-31.91c0.08-0.39,0.55-0.7,0.94-1.17
				c2.82,18.73-5.26,42.6-15.29,40.41C247.14,559.91,247.99,557.6,248.94,554.92z"/>
			<path class="st24" d="M397.99,397.9c3.38-2.6,6.75-5.21,10.32-8.15c6.68,0.64,10.82,3.68,11.88,10.79
				c0.4,2.71,3.16,5.06,5.01,7.88c-2.62-0.43-5.4-1.16-8.21-1.9c-0.43-3.58-0.58-7.28-1.51-10.78c-0.2-0.77-4.37-1.54-4.65-1.08
				c-2.02,3.35-4.84,3.67-8.35,3.96c-1.58,0.13-3.42,2.95-4.26,4.92c-1.54,3.58-3.96,3.98-7.35,3.06c-0.17-1.31-0.34-2.69-0.65-4.39
				c1.28-0.99,2.69-1.66,4.63-2.12c1.55,0.09,2.57-0.03,3.6-0.15C398.28,399.27,398.14,398.58,397.99,397.9z"/>
			<path class="st26" d="M347.93,544.11c-2.46-8.96-3.57-17.59-1.69-26.55c-0.34,15.82,9.13,28.51,13.25,42.97
				C352.96,557.05,349.31,551.62,347.93,544.11z"/>
			<path class="st29" d="M410.08,504.52c-0.57,0.93-1.14,1.4-1.82,2.14c-6.86-0.62-13.61-1.5-20.7-2.53
				c1.38-2.12,3.11-4.09,5.16-6.15c5.64,0.17,10.96,0.43,16.72,0.61C409.94,500.36,410.01,502.21,410.08,504.52z"/>
			<path class="st29" d="M300.87,463.22c2.2,0.49,4.18,1.21,6.17,2.34c-1.2,2.84-2.17,5.45-3.68,7.7c-3.27,4.87-5.23,4.69-8.43-0.76
				C296.76,469.27,298.7,466.36,300.87,463.22z"/>
			<path class="st26" d="M381.21,444.96c-0.7,0.17-1.11,0.1-1.83,0.08c-0.31,0.04-0.65-0.18-0.89-0.47
				c-0.27-0.48-0.28-0.68-0.3-0.87c3.84-6.84,7.67-13.67,11.51-20.51c0.52,0.24,1.03,0.48,1.55,0.71
				C387.98,430.85,384.74,437.79,381.21,444.96z"/>
			<path class="st24" d="M378.3,405.91c1.74-0.7,3.88-1.37,6.4-2.06C384.45,409.09,380.8,405.13,378.3,405.91z"/>
			<path class="st24" d="M425.79,420c0.48,0.83,0.63,1.71,0.53,2.77C425.86,421.98,425.66,421.02,425.79,420z"/>
			<path class="st25" d="M377.91,443.82c0.28,0.07,0.3,0.27,0.37,0.75c-0.28,0.18-0.6,0.07-1.06-0.26
				C377.27,444.04,377.46,443.99,377.91,443.82z"/>
			<path class="st24" d="M374.9,406.8c0-0.21,0.3-0.45,0.88-0.74C375.77,406.27,375.48,406.52,374.9,406.8z"/>
			<path class="st18" d="M108.7,394.21c1.89,0.6,3.53,1.39,5.16,2.18c-1,1.33-1.74,3.26-3.07,3.87c-2.31,1.06-5.13,1.87-6.69-1.92
				C105.54,396.78,106.99,395.59,108.7,394.21z"/>
			<path class="st21" d="M76.91,340.28c0.76-1.61,1.59-3.82,2.82-4.06c2.05-0.41,4.34,0.43,6.53,0.74c-0.31,1.24-0.5,3.5-0.93,3.55
				C82.63,340.81,79.88,340.61,76.91,340.28z"/>
			<path class="st21" d="M114.02,256.85c0.97,0.78,1.93,1.57,2.9,2.35c-1.28,1.52-2.37,3.31-3.94,4.44
				c-0.71,0.51-2.37-0.29-3.59-0.5c0.32-1.52,0.48-3.09,1.02-4.52c0.24-0.63,1.26-0.96,2.51-1.57
				C113.68,256.89,113.85,256.87,114.02,256.85z"/>
			<path class="st2" d="M113.92,256.69c-0.07,0.17-0.24,0.19-0.67,0.21C113.26,256.78,113.54,256.66,113.92,256.69z"/>
			<path class="st30" d="M401.11,348.95c0,0.45-0.01,0.91-0.28,1.81c-0.51,0.67-0.66,0.95-0.71,1.27c0,0,0.02,0.46-0.37,0.72
				c-2.94,1.52-5.5,2.78-8.37,4.19c0.98,1.05,1.93,2.07,2.88,3.08c0,1.66-0.01,3.33-0.31,5.62c-2.15,3.48-4,6.33-6.13,9.24
				c-0.69,0.08-1.08,0.1-1.75,0.2c-0.51,0.35-0.75,0.64-1.14,0.97c-0.15,0.06-0.46,0.03-0.87-0.01c-1.93,0.92-3.44,1.89-5.23,2.94
				c-0.64,0.11-1.01,0.14-1.68,0c-1.09-0.57-1.84-1.2-2.66-1.32c-2.61-0.4-5.24-0.61-7.72-0.88c-2.15,0.38-4.44,0.78-7.02,1
				c-5.13-5.38-3.8-14.86-13.09-16.67c0.98-1.65,1.35-2.37,1.81-3.02c3.92-5.53,4.68-10.77,0.52-16.94
				c-2.35-3.48-2.89-8.26-3.89-12.54c-0.65-2.79,0.11-5.31,3.31-6.34c3.37-1.09,5.94,0,7.57,3.01c2,3.7,5.03,4.83,9.08,4.73
				c1.77-0.04,4.36,0.61,5.2,1.87c2.42,3.66,9.01,3.33,8.79,9.35c-0.01,0.2,0.95,0.33,1.24,0.68c1.37,1.64,2.78,3.28,3.96,5.06
				c1.27,1.91,2.29,3.98,3.42,5.99c0.32-0.24,0.65-0.48,0.97-0.71c0.53-3.03,1.07-6.07,1.6-9.1c6.94-3.57,9.63-2.83,10.67,3.54
				C400.81,347.8,400.96,348.37,401.11,348.95z"/>
			<path class="st31" d="M386.33,375.02c0.39-0.02,0.79-0.05,1.71,0.12c0.48,5.78-1.78,10.37-5.73,14.2
				c-4.12,4-8.25,7.99-12.38,11.98c-1.34,0.65-2.68,1.29-4.38,2.06c-0.72-4.5-1.36-8.9-7.3-9.57c-0.6-0.07-1.59-0.58-1.64-0.97
				c-0.62-5.72-7.64-8.62-6.56-15.08c0.64-3.84-0.31-6.75-4.71-7.76c-3.42-0.79-4.74-3.19-4.32-6.73c0.49-4.08,0.09-7.69-4.07-10.26
				c-2.01-1.24-3.71-3.31-1.46-6.63c1.9-2.81,1.91-6.5-0.32-9.8c-6.66-9.85-3.51-16.94,7.32-17.89c1.6-2.19,2.63-4.56,4.43-5.85
				c3.19-2.29,6.66-2.89,9.56,0.95c2.2,2.9,4.92,4.49,8.93,4.37c1.68-0.05,3.78,2.14,5.05,3.8c1.64,2.13,2.47,4.51,6.17,3.55
				c1.08-0.28,3.86,2.11,4.22,3.66c0.88,3.8,2.15,6.65,5.98,8.42c1.49,0.69,2.18,3.14,3.31,5.16c-0.45,3.41-0.98,6.44-1.52,9.47
				c-0.32,0.24-0.65,0.48-0.97,0.71c-1.13-2-2.16-4.07-3.42-5.99c-1.18-1.78-2.59-3.42-3.96-5.06c-0.29-0.35-1.25-0.47-1.24-0.68
				c0.23-6.02-6.37-5.69-8.79-9.35c-0.83-1.26-3.43-1.92-5.2-1.87c-4.05,0.1-7.08-1.03-9.08-4.73c-1.63-3.01-4.2-4.1-7.57-3.01
				c-3.19,1.04-3.96,3.56-3.31,6.34c1,4.28,1.54,9.05,3.89,12.54c4.16,6.17,3.39,11.4-0.52,16.94c-0.46,0.65-0.83,1.38-1.81,3.02
				c9.28,1.81,7.95,11.29,13.24,17.01c6.04,4.09,11.75,3.96,17.55,1.04c0.37-0.03,0.74-0.06,1.73-0.19
				c2.18-1.03,3.73-1.95,5.28-2.88c0,0,0.31,0.03,0.72-0.11C385.84,375.57,386.09,375.29,386.33,375.02z"/>
			<path class="st32" d="M471.58,417.02c3.41-0.41,5.01,0.7,4.51,4.11c-2.46,16.82-5.49,33.49-12.62,49.11
				c-0.04,0.08-0.27,0.06-1.35,0.28c0-6.33,0.37-12.54-0.09-18.68c-0.58-7.58-2.38-14.95-6.77-21.39c-0.48-0.7-1.54-1.01-2.7-1.48
				c0.01-0.27,0.41-0.84,0.75-0.8c6.43,0.59,10.2-2.16,10.7-8.23C466.72,418.91,468.99,418.05,471.58,417.02z"/>
			<path class="st33" d="M432.05,301.94c-6.19,1.58-11.17,1.31-14.63-4.67c-0.54-0.94-3.96-1.29-5.22-0.54
				c-3.53,2.13-6,1.38-8.03-1.75c-3.09-4.78-6.72-6.55-11.95-3.03c-0.95,0.64-2.54,0.72-3.75,0.52c-3.79-0.63-7.54-1.52-11.22-2.29
				c1.09-3.54,7.43-5.43,10.46-1.6c2.28,2.88,3.57,2.3,5.98,0.41c4.79-3.75,8.26-3.35,12.13,1.24c2.17,2.58,3.94,4.46,7.7,2.19
				c2.93-1.76,5.68,0.13,7.07,2.81c2.48,4.76,6.3,5.21,10.95,4.45c5.63-0.92,7.38,0.44,8.58,6.03c0.72,3.35,2.46,5.63,6.11,6.29
				c3.1,0.55,5.09,2.09,6.2,5.55c0.75,2.33,3.43,4.37,5.72,5.78c3.26,2.01,5.04,4.2,5.18,8.3c0.07,2.13,2.35,4.2,3.68,6.27
				c1.33,2.06,3.59,3.96,3.9,6.15c0.49,3.49,1.21,5.99,4.97,7.05c3.56,1,3.41,3.98,3.09,6.95c-0.18,1.74-0.67,3.75-0.04,5.21
				c1.55,3.58,3.5,6.82,0.49,10.66c-0.55,0.7,0.61,2.54,0.42,3.76c-0.29,1.83-1.08,3.59-1.65,5.38c-0.71-0.2-1.41-0.4-2.12-0.61
				c0.63-4.55,1.42-9.1,1.8-13.67c0.11-1.33-0.98-2.74-1.41-4.15c-0.47-1.55-1.55-3.45-1.05-4.66c2.1-5.2-0.86-7.15-4.78-9.12
				c-1.42-0.71-3.19-2.58-3.19-3.92c0-3.64-1.97-5.49-4.34-7.75c-1.66-1.59-2.76-4.5-2.82-6.85c-0.1-3.64-0.73-6.09-4.78-6.74
				c-3.63-0.58-5.08-2.93-5.58-6.58c-0.2-1.49-2.38-3.66-3.87-3.85c-5.12-0.65-7.48-3.28-8.18-8.21
				C437.47,304.08,436.42,301.27,432.05,301.94z"/>
			<path class="st34" d="M443.97,378.81c-1.95,3.89-0.07,6.17,2.68,7.84c3.3,1.99,4.32,3.96,2.04,7.67
				c-1.8,2.92-3.41,6.19-0.83,10.09c1.48,2.24,0.07,3.7-2.56,4.1c-0.77-1.78-1.74-3.4-2.15-5.14c-0.47-2-1.19-4.45-0.46-6.11
				c1.68-3.8,2.14-6.95-1.47-9.77c-0.37-0.29-0.86-0.87-0.79-1.21c1.35-6.91-3.22-12.42-4.32-18.73c-0.55-3.17-2.1-5.08-4.64-7.4
				c-4.63-4.23-6.55-11.2-13.08-13.87c0.32-5.48-2.29-7.94-7.74-7.69c-0.68,0.03-1.54-0.67-2.09-1.24
				c-3.35-3.5-6.47-7.24-10.03-10.51c-1.29-1.18-3.69-1.06-5.38-1.94c-1.72-0.89-3.53-2.02-4.69-3.51c-2.19-2.81-3.94-5.96-6.1-9.32
				c2.8-0.23,5.97-0.56,7.88,3.77c1.22,2.78,2.3,6.09,6.56,5.24c0.29-0.06,0.72,0.08,0.94,0.28c3.99,3.64,8.46,6.91,11.72,11.12
				c1.71,2.21,2.79,3.7,5.66,3.51c4.15-0.28,6.32,1.64,7.17,5.88c0.31,1.57,2.66,2.72,4.05,4.1c1.59,1.57,4.51,3.25,4.44,4.77
				c-0.21,4.39,1.84,6.65,5.45,7.6c4,1.06,4.61,3.86,3.7,6.86c-1.17,3.88-0.63,6.65,2.64,9.18
				C443.55,375.08,443.58,377.03,443.97,378.81z"/>
			<path class="st35" d="M370.34,401.47c3.72-4.14,7.85-8.13,11.97-12.13c3.95-3.83,6.21-8.43,6.02-14.26
				c1.61-3.1,3.45-5.95,5.61-9.02c2.14,1.33,4.24,2.65,5.7,4.48c1.21,1.51,1.88,3.57,2.38,5.5c0.85,3.28,1.39,6.65,2.1,10.36
				C394.33,394.66,383.96,401.35,370.34,401.47z"/>
			<path class="st34" d="M313.1,408.43c-1.76-4.47,0.12-9.81-4.59-12.89c-0.21-0.14-0.37-0.72-0.26-0.91
				c3.34-5.41,1.03-10.7-0.05-16.11c-0.22-1.08,1.33-2.53,2.08-3.79c0.56-0.94,1.27-1.81,1.73-2.8c0.97-2.11,1.82-4.28,2.71-6.43
				c0.43-1.06,1.48-2.5,1.12-3.16c-3.05-5.61,2.56-9.35,2.99-14.23c0.16-1.83,2.51-3.47,4.12-5.52c0,3.75,0.09,6.68-0.05,9.6
				c-0.05,1.07-0.49,2.18-0.98,3.17c-0.42,0.84-1.83,1.84-1.65,2.23c2.75,5.93-1.5,10.85-3.63,15.01
				c-2.89,5.63-2.7,10.07-0.65,15.33c0.34,0.87-0.4,2.2-0.75,3.27c-0.26,0.77-1.23,1.8-1,2.16c3.17,5.03,0.82,11.71,5.09,16.42
				c1.91,2.1,3.4,4.59,5.08,6.9c-0.54,0.51-1.09,1.02-1.63,1.53C319.63,415.04,316.49,411.89,313.1,408.43z"/>
			<path class="st12" d="M343.12,427.52c-1.77,0.29-3.47,0.25-5.6,0.3c-1-2.45-1.56-4.99-2.16-7.52c-1.2-5.06,0.58-7.57,6.48-8.2
				c0.61,0.03,1.05,0.14,1.05,0.14C342.98,417.22,343.08,422.21,343.12,427.52z"/>
			<path class="st33" d="M343.16,411.98c-0.28,0.25-0.72,0.15-0.94,0.12c-0.21-2.46-0.29-4.89-0.15-7.31
				c0.16-2.91-0.01-5.39-2.85-7.32c-3-2.04-4.42-4.77-1.97-8.52c0.58-0.89-0.47-2.87-0.8-4.34c-0.4-1.75-0.83-3.5-0.4-5.42
				c2.42,3.95,7.84,6.81,4.36,12.66c-0.45,0.76,0.67,3.31,1.73,3.97c3.73,2.32,5.19,4.56,2.37,8.82
				C343.31,406.44,343.75,409.33,343.16,411.98z"/>
			<path class="st33" d="M432.03,324.82c-2.13,1.58-8.13-0.64-9.12-3.51c-1.38-4.02-3.58-5.58-7.83-4.69
				c-0.78,0.16-2.35-1.39-2.87-2.48c-1.19-2.45-1.96-5.11-3.51-9.35c2.12,2.14,3.78,3.21,4.57,4.74c1.53,2.95,3.35,4.83,6.96,4.47
				c1.03-0.1,2.85,0.35,3.09,1C424.95,319.4,428.5,321.89,432.03,324.82z"/>
			<path class="st33" d="M459.26,371.56c4.8,3.46,3.31,7.28,1.76,11.65c-6.03-8.64-3.81-19.11-8.13-27.88
				c2.12,1.94,4.5,3.67,6.24,5.91c0.73,0.94,0.11,2.94,0.07,4.46C459.16,367.57,459.08,369.43,459.26,371.56z"/>
			<path class="st17" d="M341.82,283.15c5.39-0.83,10.53-1.42,15.93-1.7c-4.25,1.11-8.75,1.91-13.53,2.95
				c-1.42,0.24-2.58,0.24-3.74,0.23C340.84,284.21,341.2,283.8,341.82,283.15z"/>
			<path class="st35" d="M394.52,359.84c-1.21-0.82-2.16-1.84-3.14-2.89c2.87-1.41,5.43-2.67,8.34-3.97
				C398.31,355.18,396.55,357.41,394.52,359.84z"/>
			<path class="st35" d="M401.14,348.61c-0.18-0.24-0.33-0.82-0.24-1.54C401.14,347.38,401.15,347.83,401.14,348.61z"/>
			<path class="st35" d="M400.32,351.91c-0.15-0.2,0.01-0.47,0.46-0.81C400.92,351.3,400.77,351.57,400.32,351.91z"/>
			<path class="st36" d="M420.46,476.96c1.84-5.48,4.09-10.94,6.28-16.42c0.67-1.68,1.22-3.41,2.12-5.34
				c9.14,7.29,18.02,14.8,26.85,22.34c2.38,2.04,3.78,3.81,1.67,7.5c-6.26,10.97-11.89,22.29-17.77,33.48c-0.5-0.03-1-0.07-1.5-0.1
				c0-3.43-0.19-6.88,0.04-10.29c0.67-10.23-3-18.88-9.76-26.21C426.41,479.78,423.38,478.6,420.46,476.96z"/>
			<path class="st18" d="M541.17,398.5c1.51-0.31,2.65-0.56,3.79-0.56c3.01,0,6.94,0.01,6.75,3.74c-0.09,1.84-3.95,3.56-6.22,5.16
				c-0.56,0.4-1.71,0.34-2.42,0.07c-2.27-0.86-4.46-1.91-6.68-2.89C537.86,402.24,539.33,400.46,541.17,398.5z"/>
			<path class="st18" d="M440.97,221.96c0.72,0.08,1.08,0.07,1.36,0.22c2.48,1.34,6.35,1.63,5.56,5.71
				c-0.23,1.21-2.35,2.61-3.81,2.91c-3.89,0.78-7.97-0.44-9.18-4.13C433.5,222.42,437.87,222.63,440.97,221.96z"/>
			<path class="st18" d="M545.24,302.64c-0.82,2.42-1.4,5.58-3.11,6.42c-2.56,1.25-6.12,1.64-8.89,0.94
				c-2.48-0.62-2.88-3.43-0.83-5.68C535.73,300.68,540.19,300,545.24,302.64z"/>
			<path class="st37" d="M291.66,446.97c0.09,1.55-0.2,3.1-0.48,4.65c-1.68-0.4-3.61-0.41-5-1.27c-4.94-3.07-9.26-6.8-11.09-13.02
				c1.47,0.47,3.02,1.23,4.47,2.14C283.49,441.92,287.38,444.45,291.66,446.97z"/>
			<path class="st0" d="M336.58,293.29c-0.57-0.29-0.93-0.79-1.28-1.3c0.36-0.19,0.72-0.39,1.08-0.58
				C336.52,291.96,336.66,292.51,336.58,293.29z"/>
			<path class="st26" d="M427.55,412.4c0.07-0.05,0.09,0.14,0.09,0.14S427.48,412.45,427.55,412.4z"/>
			<path class="st3" d="M397.71,398.01c0.42,0.57,0.57,1.26,0.71,1.95c-1.02,0.12-2.04,0.24-3.26,0.07
				C395.79,399.2,396.61,398.66,397.71,398.01z"/>
			<path class="st35" d="M377.14,378.98c-5.49,3.1-11.2,3.23-16.96-0.68c2.13-0.74,4.42-1.14,6.57-1.52
				c2.48,0.27,5.11,0.48,7.72,0.88C375.3,377.79,376.05,378.41,377.14,378.98z"/>
			<path class="st35" d="M384.05,376.05c-1.14,0.97-2.69,1.89-4.6,2.84C380.6,377.94,382.12,376.97,384.05,376.05z"/>
			<path class="st35" d="M386.06,375.09c0.03,0.2-0.21,0.48-0.72,0.84C385.31,375.73,385.54,375.44,386.06,375.09z"/>
		</g>
	</g>
	<path class="st30" d="M380.72,358.43c-5.27,0.13-5.26,7.85,0,8C385.99,366.3,385.98,358.58,380.72,358.43z"/>
	<path class="st30" d="M365.62,375.43c-0.54-0.26-1-0.77-1.62-0.81c-0.38-0.08-0.74,0.02-1.05,0.21c-0.26,0.1-0.49,0.28-0.68,0.5
		c-0.01-0.01-0.03-0.02-0.04-0.03c-0.09-0.12-0.19-0.22-0.31-0.31c-1.07-0.72-1.99-0.18-2.35,0.6c-0.04-0.01-0.09-0.01-0.13-0.01
		c-0.13,0-0.25,0.03-0.36,0.09c-0.33-0.2-0.7-0.41-0.98-0.09c-0.29,0.38,0.13,0.75,0.43,0.95c0.03,0.03,0.08,0.07,0.13,0.11
		c0.01,0.02,0.01,0.04,0.01,0.06c0.16,0.38,0.52,0.9,0.94,1.05c0.05,0.04,0.09,0.08,0.13,0.12c0.14,0.44,1.29,1.29,2.01,1.57
		c0.31,0.21,0.68,0.24,1.02,0.14c0.28,0.07,0.57,0.1,0.86,0c0.33-0.08,0.6-0.26,0.81-0.5c0.62,0.43,1.38,0.67,2.13-0.04
		c0.16-0.17,0.27-0.34,0.34-0.52c0.11-0.16,0.21-0.35,0.29-0.58C367.55,376.77,366.57,375.9,365.62,375.43z"/>
	<path class="st30" d="M379.55,377.22c-1.04,0.57-2.09,1.11-3.24,1.41c-0.93,0.62-1.7,1.26-2.85,1.45c1.1,0.13,2.16-0.21,3.07-0.81
		c0.67-0.17,1.32-0.42,1.81-0.84C378.56,378.27,379.86,377.07,379.55,377.22z"/>
	<path class="st30" d="M395.16,371c0.43-0.3,0.71-0.82,0.59-1.48c-0.14-0.81-0.84-1.9-1.6-2.91c-0.27-0.49-0.57-0.96-0.89-1.41
		c-0.01-0.02-0.03-0.02-0.05-0.04c-0.2-0.28-0.45-0.49-0.83-0.51c-0.38,0.06-0.59,0.24-0.7,0.47c-0.21-0.01-0.41,0.03-0.6,0.12
		c-1.16-0.2-2.1,0.85-1.91,1.98c-0.02,0.05-0.03,0.09-0.04,0.14c-0.92-0.21-1.99,0.25-2.19,1.32c-0.03,0.14-0.03,0.27-0.03,0.41
		c-0.86,0.42-1.48,1.33-1.51,2.33c-0.05,0.11-0.11,0.21-0.14,0.34c-0.12,1.02,0.05,1.46,0.36,1.89c0.49,0.96,1,1.93,1.69,2.77
		c0.46,0.57,0.69,0.95,1.5,2.31c0.43,0.86,1.1,1.68,2.66,1.56c1.01-0.07,1.87-0.95,2.06-1.94c0.5-0.18,0.94-0.52,1.21-1.01
		c1-1.93-0.55-3.58-1.99-4.98c0.01,0,0.02-0.01,0.03-0.01c0.27-0.05,0.51-0.19,0.72-0.36c0.12,0,0.24-0.02,0.35-0.05
		c0,0.02,0.01,0.06-0.01,0.05c0,0,0.02,0.01,0.02,0c0.01-0.01,0.01-0.02,0.01-0.03c0-0.01,0-0.01,0-0.02
		C394.41,371.82,394.89,371.49,395.16,371z"/>
	<path class="st30" d="M393.02,358.15c0.07-0.4,0.11-0.81,0.12-1.22c0.01-0.21-0.18-0.42-0.4-0.39c-0.33,0.07-0.31,0.53-0.41,0.79
		c-0.18,0.78-0.28,1.6-0.2,2.4c-0.01,0.37,0.57,0.39,0.6,0.02c0.19-0.58,0.5-1.74,1.04-2.36
		C393.47,357.6,393.24,357.86,393.02,358.15z"/>
	<g>
		<g>
			<path class="st30" d="M386.95,371.31c0.34,0,0.99-0.68,0.42-0.68C387.04,370.62,386.38,371.31,386.95,371.31L386.95,371.31z"/>
		</g>
	</g>
	<g>
		<g>
			<path class="st30" d="M392.95,358.98c-0.06,0.33-0.08,0.66-0.15,0.98c0.3-0.09,0.6-0.19,0.9-0.28c0.01-0.23-0.01-0.46-0.02-0.69
				c0-0.14,0-0.27,0.01-0.41c0-0.03,0.01-0.06,0.01-0.09c0-0.04,0-0.04,0,0c0-0.02,0.01-0.03,0.01-0.05
				c0.01-0.05,0.02-0.11,0.04-0.16c-0.3,0.09-0.6,0.19-0.9,0.28c-0.03,0.44-0.28,0.86-0.43,1.28c0.29-0.07,0.59-0.13,0.88-0.2
				c0.18-0.49,0.25-1.01,0.45-1.49c-0.3,0.09-0.6,0.19-0.9,0.28c0-0.03-0.01,0.04-0.01,0.04c-0.01,0.03-0.01,0.06-0.02,0.09
				c-0.01,0.06-0.02,0.12-0.04,0.18c-0.03,0.13-0.05,0.26-0.07,0.39c-0.04,0.28-0.05,0.54,0.04,0.81c0.05,0.15,0.36,0.08,0.45,0.04
				c0.38-0.18,0.66-0.45,0.87-0.8c0.16-0.25,0.28-0.52,0.44-0.76c-0.28,0.06-0.57,0.13-0.85,0.19c-0.01,0.36-0.2,0.65-0.38,0.97
				c-0.04,0.07-0.08,0.16-0.03,0.24c0.04,0.07,0.15,0.1,0.22,0.09c0.25-0.01,0.47-0.16,0.61-0.35c0.08-0.1-0.05,0.06,0.03-0.03
				c0.02-0.02,0.03-0.04,0.05-0.06c0.04-0.05,0.09-0.1,0.13-0.15c0.02-0.02,0.04-0.04,0.06-0.07c0.01-0.01,0.09-0.08,0.04-0.03
				c-0.05,0.04,0.03-0.02,0.04-0.03c0.03-0.02,0.06-0.05,0.09-0.07c-0.23-0.02-0.46-0.04-0.69-0.06c-0.13,0.33-0.25,0.71-0.4,0.98
				c0.28-0.04,0.56-0.07,0.84-0.11c0.13-0.3,0.26-0.6,0.37-0.9c-0.29,0.07-0.59,0.13-0.88,0.2c-0.12,0.34-0.26,0.66-0.35,1.01
				c-0.05,0.19,0.12,0.26,0.28,0.24c0.2-0.03,0.46-0.16,0.56-0.35c0.19-0.36,0.29-0.75,0.44-1.12c-0.3,0.09-0.6,0.19-0.9,0.28
				c0,0.43-0.19,0.85-0.28,1.28c0.3-0.09,0.6-0.19,0.9-0.28c0.03-0.3,0.18-0.59,0.28-0.87c-0.29,0.07-0.59,0.13-0.88,0.2
				c-0.09,0.34-0.26,0.64-0.36,0.97c0.3-0.09,0.6-0.19,0.9-0.28c0-0.24,0-0.48,0-0.72c0-0.08-0.08-0.14-0.15-0.15
				c-0.1-0.02-0.23,0-0.32,0.04c-0.19,0.08-0.43,0.24-0.44,0.47c-0.01,0.24,0,0.48,0,0.72c0,0.2,0.3,0.17,0.41,0.13
				c0.19-0.06,0.42-0.2,0.49-0.41c0.1-0.33,0.28-0.64,0.36-0.97c0.06-0.22-0.17-0.27-0.34-0.23c-0.22,0.05-0.46,0.2-0.54,0.43
				c-0.13,0.34-0.27,0.67-0.31,1.03c-0.01,0.08,0.08,0.14,0.15,0.15c0.09,0.02,0.18,0,0.26-0.02c0.18-0.06,0.44-0.21,0.49-0.41
				c0.1-0.48,0.3-0.94,0.3-1.44c0-0.2-0.29-0.17-0.41-0.13c-0.21,0.06-0.4,0.2-0.49,0.41c-0.07,0.17-0.13,0.34-0.19,0.51
				c-0.03,0.08-0.06,0.17-0.09,0.25c-0.01,0.03-0.03,0.07-0.04,0.1c-0.02,0.04-0.02,0.05-0.01,0.01c-0.01,0.02-0.02,0.04-0.03,0.06
				c0.28-0.04,0.56-0.07,0.84-0.11c0.09-0.35,0.23-0.67,0.35-1.01c0.08-0.22-0.19-0.27-0.34-0.23c-0.22,0.05-0.47,0.2-0.54,0.43
				c-0.11,0.31-0.24,0.61-0.37,0.9c-0.08,0.19,0.15,0.25,0.28,0.24c0.2-0.03,0.46-0.16,0.56-0.35c0.2-0.37,0.33-0.77,0.48-1.16
				c0.05-0.13-0.06-0.23-0.18-0.24c-0.18-0.02-0.36,0.07-0.5,0.18c-0.29,0.22-0.53,0.5-0.75,0.79c0.27-0.01,0.54-0.02,0.8-0.02
				c0.23-0.4,0.47-0.83,0.49-1.31c0-0.17-0.24-0.17-0.35-0.15c-0.2,0.05-0.39,0.17-0.5,0.34c-0.14,0.21-0.25,0.43-0.37,0.65
				c-0.03,0.05-0.06,0.11-0.1,0.16c-0.02,0.03-0.03,0.05-0.05,0.08c-0.01,0.01-0.02,0.02-0.03,0.04c0.03-0.04,0.04-0.05,0.02-0.03
				c-0.02,0.02-0.04,0.04-0.06,0.07c-0.07,0.08,0.04-0.03,0.01,0c-0.02,0.01-0.1,0.07-0.02,0.02c0.12-0.07-0.17,0.08,0.06-0.03
				c0.15,0.01,0.3,0.03,0.45,0.04c-0.06-0.19-0.04-0.44-0.01-0.62c0.05-0.25,0.11-0.5,0.14-0.76c0.01-0.08-0.09-0.14-0.15-0.15
				c-0.09-0.02-0.18,0-0.26,0.02c-0.21,0.06-0.4,0.2-0.49,0.41c-0.2,0.48-0.26,1.01-0.45,1.49c-0.08,0.21,0.19,0.27,0.34,0.23
				c0.22-0.05,0.46-0.2,0.54-0.43c0.18-0.48,0.42-0.92,0.46-1.44c0.01-0.08-0.08-0.14-0.15-0.15c-0.09-0.02-0.18,0-0.26,0.02
				c-0.2,0.06-0.41,0.2-0.49,0.41c-0.18,0.49-0.07,1.05-0.08,1.56c-0.01,0.2,0.3,0.16,0.41,0.13c0.18-0.06,0.44-0.2,0.49-0.41
				c0.08-0.32,0.09-0.66,0.15-0.98c0.01-0.08,0.02-0.15-0.06-0.2c-0.07-0.05-0.2-0.04-0.28-0.02c-0.12,0.03-0.25,0.09-0.35,0.17
				C393.07,358.79,392.97,358.87,392.95,358.98L392.95,358.98z"/>
		</g>
	</g>
	<g>
		<g>
			<path class="st30" d="M395.17,356.63c0.36-1.03,0.78-2.06,1.46-2.93c-0.26,0.03-0.53,0.07-0.79,0.1
				c-0.01,0.39-0.23,0.77-0.44,1.09c-0.18,0.28-0.43,0.62-0.72,0.78c0.18,0.07,0.36,0.15,0.54,0.22c0.43-0.75,0.79-1.54,1.23-2.29
				c0.11-0.18,0.01-0.32-0.19-0.33c-0.24-0.01-0.48,0.17-0.61,0.35c-0.93,1.27-1.64,2.94-3.04,3.76c0.18,0.07,0.36,0.15,0.54,0.22
				c0.5-0.84,1.18-1.53,1.81-2.27c0.58-0.67,1.05-1.45,1.75-2.01c-0.23,0.01-0.47,0.01-0.7,0.02c0,0.4-0.26,0.74-0.47,1.06
				c-0.21,0.33-0.43,0.68-0.49,1.07c-0.04,0.28,0.26,0.28,0.46,0.19c1.16-0.53,1.86-1.86,2.36-2.98c0.09-0.19-0.15-0.25-0.28-0.24
				c-0.2,0.02-0.46,0.16-0.56,0.35c-0.37,0.67-0.78,1.32-1.13,2c-0.08,0.16-0.05,0.3,0.14,0.33c0.22,0.03,0.44-0.12,0.59-0.26
				c0.54-0.5,0.88-1.16,1.39-1.68c-0.25-0.02-0.49-0.04-0.74-0.06c-0.46,0.66-1.07,1.2-1.53,1.87c-0.09,0.13-0.06,0.28,0.1,0.32
				c0.18,0.05,0.41-0.07,0.55-0.18c0.71-0.53,1.14-1.31,1.78-1.91c-0.26,0.01-0.52,0.02-0.78,0.02c-0.21,0.46-0.59,0.83-1.02,1.08
				c0.09,0.16,0.18,0.31,0.27,0.47c0.47-0.28,0.82-0.67,1.14-1.1c0.23-0.3,0.5-0.83,0.86-1c-0.14-0.09-0.28-0.19-0.42-0.28
				c-0.19,0.35-0.38,0.69-0.63,0.99c0.25,0.02,0.49,0.04,0.74,0.06c0.19-0.35,0.45-0.65,0.65-1c0.1-0.18,0.02-0.32-0.19-0.33
				c-0.22-0.01-0.5,0.17-0.61,0.35c-0.37,0.61-0.87,1.1-1.13,1.77c-0.07,0.19,0.14,0.25,0.28,0.24c0.2-0.02,0.46-0.16,0.56-0.35
				c0.16-0.31,0.35-0.62,0.66-0.78c-0.16-0.1-0.31-0.21-0.47-0.31c-0.4,0.48-0.81,0.95-1.13,1.49c-0.23,0.39,0.33,0.34,0.54,0.22
				c0.76-0.45,1.12-1.19,1.67-1.84c-0.26,0.01-0.52,0.02-0.78,0.02c-0.05,0.19-0.09,0.39-0.19,0.57c-0.22,0.4,0.33,0.32,0.54,0.22
				c0.59-0.29,0.92-0.86,1.2-1.43c-0.28,0.04-0.56,0.07-0.84,0.11c-0.06,0.23-0.13,0.45-0.28,0.64c0.25,0.02,0.49,0.04,0.74,0.06
				c0.09-0.14,0.19-0.26,0.31-0.38c-0.25-0.02-0.49-0.04-0.74-0.06c-0.16,0.24-0.28,0.49-0.37,0.76c-0.14,0.45,0.66,0.13,0.78-0.02
				c0.22-0.28,0.44-0.55,0.65-0.84c-0.25-0.02-0.49-0.04-0.74-0.06c-0.46,0.69-0.79,1.58-1.47,2.09c-0.13,0.09-0.31,0.33-0.14,0.46
				c0.17,0.13,0.49-0.04,0.63-0.14c0.82-0.62,1.22-1.6,1.78-2.43c0.11-0.16,0.03-0.3-0.14-0.33c-0.2-0.03-0.48,0.11-0.59,0.26
				c-0.22,0.28-0.43,0.56-0.65,0.84c0.26-0.01,0.52-0.02,0.78-0.02c0.07-0.22,0.16-0.4,0.29-0.59c0.11-0.16,0.03-0.3-0.14-0.33
				c-0.21-0.03-0.45,0.12-0.59,0.26c-0.16,0.17-0.31,0.35-0.44,0.55c-0.1,0.16-0.04,0.3,0.14,0.33c0.2,0.03,0.47-0.11,0.59-0.26
				c0.23-0.3,0.4-0.61,0.49-0.98c0.12-0.47-0.73-0.11-0.84,0.11c-0.16,0.32-0.33,0.77-0.66,0.94c0.18,0.07,0.36,0.15,0.54,0.22
				c0.13-0.24,0.21-0.48,0.27-0.74c0.11-0.46-0.65-0.13-0.78,0.02c-0.4,0.48-0.71,1.2-1.27,1.53c0.18,0.07,0.36,0.15,0.54,0.22
				c0.28-0.47,0.64-0.89,1-1.31c0.34-0.41-0.17-0.47-0.47-0.31c-0.52,0.28-0.92,0.75-1.19,1.27c0.28-0.04,0.56-0.07,0.84-0.11
				c0.23-0.6,0.71-1.06,1.05-1.6c-0.27,0.01-0.53,0.02-0.8,0.02c-0.19,0.35-0.45,0.65-0.65,1c-0.27,0.5,0.56,0.28,0.74,0.06
				c0.3-0.37,0.54-0.75,0.77-1.17c0.17-0.31-0.18-0.39-0.42-0.28c-0.51,0.24-0.88,0.61-1.22,1.05c-0.3,0.39-0.59,0.9-1.03,1.16
				c-0.13,0.08-0.41,0.3-0.3,0.48c0.11,0.18,0.44,0.06,0.57-0.02c0.7-0.42,1.3-1,1.64-1.75c0.07-0.16-0.1-0.24-0.23-0.24
				c-0.21,0-0.4,0.13-0.55,0.27c-0.58,0.54-0.96,1.27-1.6,1.75c0.22,0.05,0.43,0.1,0.65,0.15c0.46-0.67,1.07-1.21,1.53-1.87
				c0.11-0.16,0.03-0.3-0.14-0.33c-0.21-0.03-0.45,0.12-0.59,0.26c-0.51,0.52-0.85,1.18-1.39,1.68c0.25,0.02,0.49,0.04,0.74,0.06
				c0.35-0.68,0.76-1.33,1.13-2c-0.28,0.04-0.56,0.07-0.84,0.11c-0.19,0.43-0.42,0.85-0.68,1.24c-0.2,0.31-0.48,0.8-0.83,0.96
				c0.15,0.06,0.3,0.13,0.46,0.19c0.12-0.85,0.98-1.4,0.98-2.29c0-0.34-0.59-0.07-0.7,0.02c-0.76,0.62-1.29,1.44-1.93,2.17
				c-0.68,0.79-1.41,1.54-1.94,2.44c-0.23,0.39,0.33,0.34,0.54,0.22c1.66-0.97,2.48-2.76,3.58-4.25c-0.27,0.01-0.53,0.02-0.8,0.02
				c-0.44,0.75-0.8,1.54-1.23,2.29c-0.23,0.4,0.33,0.33,0.54,0.22c0.5-0.27,0.89-0.73,1.2-1.19c0.3-0.44,0.58-0.96,0.59-1.5
				c0.01-0.38-0.69-0.02-0.79,0.1c-0.77,0.98-1.26,2.11-1.67,3.27c-0.08,0.22,0.19,0.26,0.34,0.23
				C394.84,357.01,395.09,356.85,395.17,356.63L395.17,356.63z"/>
		</g>
	</g>
	<g>
		<g>
			<path class="st30" d="M358.89,376.61c-0.21,0.32-0.04,0.67,0.18,0.94c0.26,0.31,0.57,0.58,0.9,0.82c0.13,0.1,0.27,0.2,0.42,0.28
				c0.18,0.1,0.42-0.01,0.57-0.11c0.11-0.08,0.35-0.29,0.24-0.45c-0.07-0.1-0.16-0.18-0.25-0.27c0.02,0.02,0.03,0.04,0.05,0.05
				c-0.02-0.02-0.05-0.05-0.06-0.07c0,0.05,0.01,0.1,0.01,0.15c0,0,0,0,0,0c-0.22,0.15-0.44,0.29-0.65,0.44
				c-0.14,0.01-0.21-0.07-0.13-0.02c0.18,0.12,0.48-0.02,0.63-0.14c0.11-0.09,0.33-0.34,0.14-0.46c-0.06-0.04-0.13-0.07-0.21-0.06
				c-0.27,0.02-0.55,0.19-0.65,0.44c-0.06,0.15,0.1,0.25,0.18,0.34c-0.02-0.02-0.03-0.04-0.05-0.05c0.05,0.05,0.1,0.1,0.14,0.16
				c0.27-0.18,0.54-0.37,0.81-0.55c-0.4-0.23-0.77-0.53-1.09-0.86c0.02,0.02,0.03,0.04,0.05,0.05c-0.17-0.17-0.34-0.37-0.41-0.6
				c0.01,0.02,0.01,0.05,0.02,0.07c-0.01-0.05-0.02-0.09-0.02-0.14c0-0.05,0,0.03-0.01,0.04c0,0,0.01-0.03,0.01-0.03
				c0.02-0.07-0.06,0.09-0.01,0.01c0.04-0.06,0.07-0.17,0.03-0.24c-0.04-0.07-0.15-0.1-0.22-0.09
				C359.26,376.27,359.02,376.41,358.89,376.61L358.89,376.61z"/>
		</g>
	</g>
	<g>
		<g>
			<path class="st30" d="M383.43,376.04c-0.38,0.23-0.78,0.46-0.95,0.89c-0.14,0.36,0.45,0.2,0.58,0.13
				c0.54-0.26,0.99-0.67,1.47-1.02c-0.22-0.05-0.43-0.1-0.65-0.15c-0.2,0.31-0.65,0.45-0.95,0.64c-0.14,0.09-0.4,0.29-0.3,0.48
				c0.1,0.19,0.44,0.05,0.57-0.02c0.39-0.22,0.75-0.49,1.14-0.71c-0.13-0.13-0.25-0.26-0.38-0.39c-0.51,0.37-1,0.77-1.56,1.05
				c0.09,0.16,0.18,0.31,0.27,0.47c0.58-0.38,1.24-0.58,1.73-1.09c0.11-0.11,0.19-0.31,0.01-0.39c-0.18-0.09-0.45,0.05-0.59,0.16
				c-0.04,0.03-0.07,0.06-0.11,0.09c-0.12,0.1-0.31,0.33-0.14,0.46c0.18,0.14,0.49-0.05,0.63-0.14c0.13-0.09,0.24-0.19,0.37-0.26
				c-0.13-0.13-0.25-0.26-0.38-0.39c-0.38,0.28-0.79,0.51-1.18,0.78c-0.1,0.07-0.27,0.27-0.19,0.41c0.08,0.14,0.33,0.1,0.45,0.04
				c0.45-0.21,0.82-0.61,1.29-0.76c-0.01-0.19-0.02-0.39-0.03-0.58c-0.52,0.18-0.94,0.53-1.42,0.79c0.09,0.16,0.18,0.31,0.27,0.47
				c0.37-0.2,0.73-0.41,1.02-0.72c0.08-0.09,0.17-0.24,0.07-0.35c-0.1-0.11-0.31-0.06-0.42-0.01c-0.33,0.13-0.62,0.33-0.91,0.52
				c-0.13,0.08-0.37,0.26-0.31,0.45c0.06,0.19,0.32,0.12,0.46,0.08c0.45-0.15,0.78-0.5,1.21-0.68c-0.09-0.15-0.17-0.3-0.26-0.45
				c-0.14,0.11-0.31,0.25-0.48,0.3c-0.03,0.21-0.06,0.41-0.09,0.62c0.07-0.03,0.14-0.06,0.21-0.1c0.17-0.08,0.46-0.24,0.44-0.47
				c-0.02-0.23-0.33-0.16-0.47-0.11c-0.44,0.16-0.82,0.43-1.2,0.7c-0.35,0.25-0.74,0.41-1.1,0.65c-0.13,0.09-0.37,0.26-0.31,0.45
				c0.06,0.19,0.32,0.12,0.46,0.08c0.53-0.18,1.07-0.48,1.5-0.84c0.1-0.08,0.24-0.23,0.2-0.37c-0.04-0.13-0.22-0.15-0.34-0.11
				c-0.58,0.17-1.14,0.47-1.57,0.91c-0.24,0.25-0.06,0.45,0.23,0.4c0.48-0.07,0.9-0.38,1.26-0.69c0.37-0.31,0.74-0.61,1.17-0.84
				c-0.13-0.13-0.25-0.26-0.38-0.39c-0.26,0.2-0.54,0.36-0.82,0.54c-0.12,0.08-0.34,0.24-0.32,0.41c0.02,0.17,0.22,0.17,0.35,0.15
				c0.27-0.05,0.51-0.18,0.75-0.32c0.13-0.08,0.37-0.26,0.31-0.45c-0.06-0.19-0.33-0.13-0.46-0.08c-0.61,0.23-1.17,0.62-1.66,1.04
				c-0.11,0.09-0.29,0.29-0.16,0.43c0.13,0.14,0.41,0.03,0.54-0.04c0.39-0.22,0.71-0.53,1.09-0.74c-0.09-0.16-0.18-0.31-0.27-0.47
				c-0.31,0.19-0.62,0.39-0.92,0.6c-0.11,0.07-0.27,0.27-0.19,0.41c0.08,0.14,0.33,0.09,0.45,0.04c0.47-0.21,0.96-0.45,1.16-0.95
				c0.09-0.23-0.2-0.25-0.34-0.23c-0.73,0.11-1.32,0.58-1.97,0.88c-0.59,0.27-1.25,0.52-1.68,1.03c-0.1,0.12-0.19,0.31-0.01,0.39
				c0.19,0.09,0.44-0.05,0.59-0.16c0.53-0.39,1.13-0.67,1.7-1c-0.09-0.16-0.18-0.31-0.27-0.47c-0.61,0.38-1.19,0.82-1.82,1.16
				c0.09,0.16,0.18,0.31,0.27,0.47c0.97-0.53,1.84-1.22,2.68-1.93c0.11-0.09,0.29-0.29,0.16-0.43c-0.13-0.14-0.41-0.03-0.54,0.04
				c-0.86,0.52-1.67,1.11-2.45,1.74c-0.1,0.08-0.27,0.26-0.19,0.41c0.08,0.14,0.33,0.09,0.45,0.04c0.34-0.14,0.67-0.32,1.01-0.46
				c-0.05-0.17-0.1-0.35-0.15-0.52c-0.67,0.33-1.36,0.58-1.97,1.02c-0.1,0.07-0.27,0.27-0.19,0.41c0.09,0.15,0.32,0.08,0.45,0.04
				c0.32-0.11,0.65-0.18,0.96-0.32c0.17-0.08,0.41-0.22,0.43-0.43c0.02-0.2-0.19-0.22-0.35-0.19c-0.5,0.1-0.97,0.31-1.41,0.57
				c-0.12,0.08-0.34,0.24-0.32,0.41c0.02,0.17,0.22,0.18,0.35,0.15c0.61-0.13,1.15-0.45,1.71-0.73c0.14-0.07,0.37-0.27,0.31-0.45
				c-0.06-0.19-0.33-0.12-0.46-0.08c-0.36,0.13-0.72,0.27-1.05,0.45c0.13,0.13,0.25,0.26,0.38,0.39c0.45-0.39,0.98-0.69,1.47-1.03
				c0.5-0.34,0.95-0.78,1.49-1.05c-0.18-0.07-0.36-0.15-0.54-0.22c-0.3,0.46-0.8,0.75-1.25,1.05c0.16,0.11,0.33,0.21,0.49,0.32
				c0.39-0.28,0.8-0.56,1.2-0.82c-0.13-0.13-0.25-0.26-0.38-0.39c-0.48,0.35-1,0.63-1.56,0.83c0.09,0.15,0.17,0.3,0.26,0.45
				c0.36-0.25,0.75-0.48,1.15-0.65c-0.05-0.17-0.1-0.35-0.15-0.52c-0.65,0.43-1.3,0.84-1.94,1.29c-0.12,0.08-0.29,0.3-0.16,0.43
				c0.13,0.15,0.41,0.02,0.54-0.04c0.4-0.2,0.79-0.43,1.21-0.59c-0.05-0.17-0.1-0.35-0.15-0.52c-0.51,0.34-1.06,0.62-1.64,0.82
				c0.09,0.15,0.17,0.3,0.26,0.45c0.32-0.23,0.67-0.4,1.03-0.56c-0.01-0.19-0.02-0.39-0.03-0.58c-0.17,0.08-0.34,0.16-0.53,0.19
				c0.08,0.13,0.15,0.27,0.23,0.4c0.8-0.8,1.76-1.42,2.69-2.05c0.13-0.09,0.3-0.33,0.14-0.46c-0.18-0.14-0.49,0.05-0.63,0.14
				c-1,0.68-2.01,1.36-2.87,2.21c-0.24,0.24-0.06,0.45,0.23,0.4c0.27-0.05,0.51-0.15,0.76-0.26c0.17-0.08,0.46-0.25,0.44-0.47
				c-0.02-0.22-0.33-0.17-0.47-0.11c-0.52,0.23-1.03,0.48-1.49,0.82c-0.1,0.08-0.27,0.26-0.19,0.41c0.09,0.15,0.32,0.08,0.45,0.04
				c0.66-0.22,1.3-0.54,1.88-0.93c0.13-0.09,0.37-0.26,0.31-0.45c-0.06-0.19-0.32-0.12-0.46-0.08c-0.51,0.18-0.97,0.46-1.45,0.7
				c0.13,0.13,0.25,0.26,0.38,0.39c0.56-0.39,1.14-0.76,1.72-1.14c0.13-0.09,0.37-0.26,0.31-0.45c-0.06-0.18-0.33-0.13-0.46-0.08
				c-0.57,0.24-1.1,0.56-1.61,0.91c-0.1,0.07-0.27,0.27-0.19,0.41c0.09,0.15,0.32,0.08,0.45,0.04c0.73-0.25,1.4-0.64,2.02-1.1
				c0.12-0.08,0.29-0.29,0.16-0.43c-0.13-0.14-0.42-0.04-0.54,0.04c-0.48,0.32-0.96,0.64-1.42,0.97c-0.13,0.09-0.31,0.33-0.14,0.46
				c0.18,0.14,0.49-0.05,0.63-0.14c0.58-0.4,1.17-0.79,1.56-1.39c0.07-0.11,0.07-0.25-0.06-0.31c-0.15-0.07-0.35,0.02-0.48,0.09
				c-0.59,0.3-1.06,0.76-1.6,1.13c-0.53,0.36-1.1,0.68-1.58,1.1c-0.11,0.09-0.3,0.29-0.16,0.43c0.13,0.14,0.41,0.03,0.54-0.04
				c0.26-0.14,0.54-0.24,0.81-0.34c-0.05-0.17-0.1-0.35-0.15-0.52c-0.4,0.21-0.79,0.45-1.23,0.54c0.01,0.19,0.02,0.37,0.03,0.56
				c0.3-0.18,0.6-0.32,0.94-0.39c0.03-0.21,0.06-0.41,0.09-0.62c-0.31,0.14-0.64,0.21-0.96,0.32c0.09,0.15,0.17,0.3,0.26,0.45
				c0.53-0.38,1.17-0.58,1.75-0.87c0.14-0.07,0.37-0.27,0.31-0.45c-0.06-0.18-0.33-0.13-0.46-0.08c-0.34,0.14-0.67,0.31-1.01,0.46
				c0.09,0.15,0.17,0.3,0.26,0.45c0.71-0.58,1.45-1.11,2.23-1.59c-0.13-0.13-0.25-0.26-0.38-0.39c-0.77,0.65-1.56,1.29-2.45,1.78
				c-0.14,0.08-0.4,0.3-0.3,0.48c0.1,0.19,0.44,0.05,0.57-0.02c0.63-0.35,1.21-0.78,1.82-1.16c0.14-0.09,0.4-0.29,0.3-0.48
				c-0.1-0.19-0.44-0.05-0.57,0.02c-0.65,0.37-1.32,0.7-1.92,1.15c0.19,0.08,0.39,0.16,0.58,0.23c0.28-0.33,0.78-0.47,1.16-0.65
				c0.53-0.25,1.02-0.66,1.61-0.75c-0.11-0.08-0.23-0.15-0.34-0.23c-0.02,0.04-0.02,0.02,0.01,0.01c-0.03,0.01-0.06,0.04-0.09,0.06
				c-0.07,0.04-0.15,0.07-0.22,0.1c0.09,0.15,0.17,0.3,0.26,0.45c0.23-0.16,0.47-0.3,0.7-0.45c0.14-0.08,0.4-0.29,0.3-0.48
				c-0.1-0.19-0.44-0.05-0.57,0.02c-0.39,0.22-0.71,0.53-1.09,0.74c0.13,0.13,0.25,0.26,0.38,0.39c0.36-0.31,0.75-0.61,1.2-0.77
				c-0.05-0.17-0.1-0.35-0.15-0.52c-0.09,0.06-0.17,0.11-0.27,0.13c0.01,0.19,0.02,0.37,0.03,0.56c0.35-0.22,0.71-0.43,1.04-0.69
				c0.11-0.09,0.29-0.29,0.16-0.43c-0.13-0.14-0.41-0.03-0.54,0.04c-0.4,0.21-0.79,0.48-1.14,0.77c-0.23,0.2-0.5,0.51-0.82,0.56
				c0.08,0.13,0.15,0.27,0.23,0.4c0.18-0.19,0.45-0.33,0.7-0.41c-0.05-0.16-0.09-0.32-0.14-0.49c-0.3,0.25-0.67,0.45-1.04,0.58
				c0.05,0.17,0.1,0.35,0.15,0.52c0.35-0.23,0.75-0.4,1.1-0.64c0.31-0.21,0.6-0.46,0.96-0.59c-0.01-0.19-0.02-0.39-0.03-0.58
				c-0.07,0.03-0.14,0.06-0.21,0.1c-0.17,0.08-0.41,0.22-0.43,0.43c-0.02,0.19,0.19,0.23,0.35,0.19c0.44-0.13,0.81-0.37,1.17-0.64
				c0.1-0.08,0.27-0.26,0.19-0.41c-0.08-0.14-0.33-0.09-0.45-0.04c-0.43,0.18-0.77,0.54-1.21,0.68c0.05,0.17,0.1,0.35,0.15,0.52
				c0.22-0.14,0.43-0.3,0.67-0.4c-0.12-0.12-0.23-0.24-0.35-0.37c-0.17,0.18-0.41,0.29-0.62,0.4c-0.14,0.08-0.4,0.3-0.3,0.48
				c0.1,0.19,0.44,0.05,0.57-0.02c0.4-0.21,0.75-0.53,1.18-0.68c0.17-0.06,0.46-0.26,0.44-0.47c-0.02-0.23-0.33-0.16-0.47-0.11
				c-0.49,0.16-0.83,0.54-1.29,0.76c0.09,0.15,0.17,0.3,0.26,0.45c0.39-0.27,0.8-0.5,1.18-0.78c0.12-0.08,0.29-0.3,0.16-0.43
				c-0.13-0.14-0.41-0.03-0.54,0.04c-0.21,0.11-0.4,0.27-0.59,0.41c0.16,0.11,0.33,0.21,0.49,0.32c0.04-0.03,0.07-0.06,0.11-0.09
				c-0.19-0.08-0.39-0.16-0.58-0.23c-0.35,0.37-0.91,0.51-1.33,0.78c-0.13,0.09-0.4,0.29-0.3,0.48c0.1,0.19,0.44,0.05,0.57-0.02
				c0.64-0.33,1.2-0.79,1.78-1.2c0.12-0.08,0.29-0.3,0.16-0.43c-0.13-0.14-0.41-0.03-0.54,0.04c-0.39,0.22-0.75,0.49-1.14,0.71
				c0.09,0.16,0.18,0.31,0.27,0.47c0.53-0.34,1.12-0.58,1.48-1.13c0.09-0.13,0.06-0.28-0.1-0.32c-0.18-0.05-0.41,0.07-0.55,0.18
				c-0.4,0.31-0.79,0.65-1.25,0.88c0.19,0.04,0.38,0.09,0.58,0.13c0.04-0.1,0.25-0.18,0.34-0.23c0.14-0.08,0.4-0.29,0.3-0.48
				C383.9,375.83,383.55,375.96,383.43,376.04L383.43,376.04z"/>
		</g>
	</g>
	<g>
		<g>
			<path class="st30" d="M385.45,375.85c0.13-0.08,0.26-0.17,0.39-0.26c0.03-0.03,0.06-0.06,0.09-0.08
				c0.04-0.04,0.07-0.08,0.09-0.13c0.03-0.06,0.05-0.14,0.01-0.19c-0.03-0.04-0.08-0.07-0.13-0.08c-0.05-0.01-0.1-0.01-0.15,0
				c-0.06,0-0.12,0.02-0.17,0.04c-0.21,0.08-0.4,0.2-0.56,0.35c-0.11,0.09-0.2,0.19-0.31,0.28c-0.06,0.05-0.12,0.11-0.16,0.17
				c-0.01,0.03-0.03,0.06-0.04,0.09c-0.02,0.04-0.02,0.08,0,0.12c0,0.03,0.01,0.05,0.04,0.06c0.02,0.02,0.04,0.04,0.06,0.04
				c0.08,0.03,0.16,0.03,0.24,0.01c0.13-0.03,0.25-0.07,0.37-0.13c0.12-0.06,0.24-0.13,0.35-0.22c-0.22-0.05-0.43-0.1-0.65-0.15
				c-0.04,0.06-0.07,0.11-0.1,0.17c0.02-0.03,0.04-0.06,0.07-0.09c-0.01,0.02-0.03,0.03-0.04,0.05c-0.04,0.04-0.07,0.08-0.09,0.13
				c-0.02,0.04-0.03,0.08-0.03,0.12c0.01,0.02,0.01,0.05,0.02,0.07c0.02,0.04,0.05,0.06,0.09,0.07c0.08,0.03,0.16,0.03,0.24,0.01
				c0.04-0.01,0.08-0.02,0.12-0.04c0.08-0.03,0.16-0.08,0.23-0.13c0.09-0.06,0.17-0.14,0.25-0.22c0.06-0.05,0.11-0.11,0.16-0.17
				c0.05-0.06,0.1-0.13,0.11-0.21c0.01-0.03,0.01-0.05,0-0.08c0-0.04-0.03-0.07-0.06-0.09c-0.05-0.03-0.11-0.04-0.17-0.04
				c-0.06,0-0.11,0.01-0.17,0.03c-0.06,0.02-0.12,0.04-0.18,0.08c-0.01,0.01-0.02,0.01-0.03,0.01c0.04-0.02,0.08-0.04,0.12-0.06
				c-0.09,0.04-0.18,0.07-0.26,0.12c0.16,0.1,0.31,0.21,0.47,0.31c0.1-0.09,0.16-0.21,0.24-0.31c-0.02,0.03-0.04,0.06-0.07,0.09
				c0,0,0-0.01,0.01-0.01c0.05-0.07,0.13-0.16,0.12-0.25c-0.01-0.08-0.07-0.14-0.15-0.15c-0.11-0.02-0.22,0-0.32,0.04
				c-0.04,0.02-0.08,0.04-0.12,0.06c-0.07,0.04-0.14,0.1-0.2,0.16c-0.07,0.08-0.12,0.17-0.19,0.26c0.02-0.03,0.04-0.06,0.07-0.09
				c-0.02,0.02-0.04,0.04-0.06,0.06c-0.02,0.03-0.04,0.06-0.07,0.09c-0.03,0.04-0.04,0.08-0.05,0.13c-0.01,0.03-0.01,0.05,0,0.08
				c0,0.04,0.03,0.07,0.06,0.09c0.05,0.03,0.11,0.04,0.17,0.04c0.06,0,0.11-0.01,0.17-0.03c0.06-0.02,0.12-0.04,0.18-0.08
				c0.01-0.01,0.02-0.01,0.03-0.01c-0.04,0.02-0.08,0.04-0.12,0.06c0.09-0.04,0.17-0.07,0.26-0.12c-0.16-0.1-0.31-0.21-0.47-0.31
				c-0.05,0.06-0.11,0.12-0.17,0.17c0.03-0.03,0.06-0.06,0.09-0.08c-0.05,0.04-0.1,0.09-0.15,0.12c0.19,0.08,0.39,0.16,0.58,0.23
				c0.08-0.09,0.14-0.2,0.21-0.3c0.01-0.03,0.03-0.06,0.04-0.09c0.02-0.04,0.02-0.08,0-0.12c0-0.03-0.01-0.05-0.04-0.06
				c-0.02-0.03-0.06-0.05-0.1-0.06c-0.07-0.01-0.14-0.01-0.2,0.01c-0.06,0.01-0.12,0.03-0.18,0.07c-0.06,0.03-0.12,0.06-0.17,0.1
				c-0.02,0.02-0.05,0.04-0.07,0.05c0.04-0.02,0.07-0.05,0.11-0.07c-0.03,0.02-0.07,0.04-0.11,0.06c0.04-0.02,0.08-0.04,0.12-0.06
				c-0.04,0.02-0.08,0.04-0.12,0.05c0.04-0.01,0.08-0.02,0.12-0.04c-0.02,0.01-0.05,0.01-0.07,0.02c0.05,0.16,0.09,0.32,0.14,0.49
				c0.16-0.12,0.3-0.28,0.47-0.39c-0.04,0.02-0.07,0.05-0.11,0.07c0.04-0.03,0.08-0.05,0.12-0.07c-0.04,0.02-0.08,0.04-0.12,0.06
				c0.02-0.01,0.04-0.02,0.06-0.03c-0.09-0.15-0.17-0.3-0.26-0.45c-0.04,0.03-0.07,0.05-0.11,0.08c0.04-0.02,0.07-0.05,0.11-0.07
				c-0.05,0.04-0.11,0.07-0.17,0.11c-0.1,0.06-0.21,0.14-0.27,0.24c-0.04,0.06-0.08,0.17-0.03,0.24c0.05,0.07,0.14,0.1,0.22,0.09
				C385.23,375.96,385.35,375.92,385.45,375.85L385.45,375.85z"/>
		</g>
	</g>
	<g>
		<g>
			<path class="st30" d="M385.75,375.86c0.34-0.28,0.59-0.63,0.85-0.98c0.09-0.12,0.06-0.29-0.1-0.32
				c-0.18-0.04-0.41,0.05-0.55,0.18c-0.18,0.17-0.33,0.37-0.5,0.54c-0.07,0.07-0.16,0.22-0.1,0.32c0.06,0.11,0.23,0.1,0.33,0.08
				c0.03-0.01,0.06-0.01,0.09-0.02c0.08-0.03,0.08-0.02,0,0c-0.1-0.11-0.2-0.21-0.3-0.32c-0.04,0.07-0.09,0.14-0.14,0.2
				c-0.01,0.02-0.02,0.03-0.04,0.05c-0.06,0.08,0.04-0.05,0,0c-0.03,0.03-0.05,0.06-0.08,0.1c-0.01,0.02-0.03,0.03-0.04,0.05
				c-0.01,0.01-0.06,0.06-0.01,0.01c0.05-0.05,0,0-0.01,0.01c-0.02,0.01-0.03,0.02-0.05,0.04c-0.05,0.04,0.09-0.06,0.04-0.02
				c-0.01,0.01-0.08,0.04,0,0.01c0.09-0.04,0,0-0.01,0c-0.02,0.01-0.02,0.01,0.02,0c0.04-0.01,0.04-0.01,0,0
				c-0.07,0.02,0.01-0.01,0.02,0c0,0-0.06,0-0.06,0c-0.02,0-0.05-0.01-0.01,0c-0.02,0-0.05-0.01-0.07-0.01
				c-0.09-0.02-0.19-0.05-0.28-0.08c-0.28-0.08-0.54-0.07-0.81,0.03c-0.17,0.06-0.46,0.26-0.44,0.47c0.02,0.23,0.34,0.16,0.47,0.11
				c-0.02,0-0.03,0.01-0.05,0.01c0.04-0.01,0.05-0.01,0.02,0c-0.07,0,0.05,0,0,0c-0.04,0,0.05,0.01,0.06,0.01
				c0.02,0,0.05,0.01,0.07,0.02c0.11,0.03,0.22,0.07,0.33,0.09c0.27,0.06,0.55,0.03,0.81-0.08c0.48-0.21,0.79-0.6,1.07-1.03
				c0.05-0.08,0.08-0.19,0.01-0.26c-0.08-0.08-0.2-0.07-0.3-0.05c-0.03,0.01-0.24,0.05-0.09,0.02c0.08,0.13,0.15,0.27,0.23,0.4
				c0.08-0.08,0.15-0.16,0.22-0.25c0.03-0.04,0.07-0.08,0.1-0.12c0.03-0.04,0.15-0.14,0-0.01c-0.22-0.05-0.43-0.1-0.65-0.15
				c-0.05,0.07-0.1,0.13-0.15,0.2c-0.03,0.04-0.05,0.07-0.08,0.11c0.04-0.06-0.01,0.01-0.03,0.03c-0.05,0.06-0.1,0.12-0.15,0.17
				c-0.02,0.03-0.05,0.06-0.08,0.08c0.1-0.06-0.04,0.03-0.05,0.05c-0.11,0.09-0.32,0.33-0.14,0.46
				C385.3,376.12,385.61,375.97,385.75,375.86L385.75,375.86z"/>
		</g>
	</g>
	<g>
		<g>
			<path class="st30" d="M378.91,378.53c-0.62,0.17-1.27,0.15-1.88,0.35c-0.57,0.18-1.12,0.41-1.64,0.69
				c-0.3,0.16-0.48,0.67,0.03,0.56c0.75-0.16,1.38-0.57,2.04-0.96c-0.09-0.16-0.18-0.31-0.27-0.47c-0.61,0.38-1.21,0.77-1.89,1
				c-0.34,0.11-0.69,0.71-0.09,0.62c0.74-0.11,1.35-0.56,1.99-0.91c-0.09-0.16-0.18-0.31-0.27-0.47c-0.43,0.27-0.91,0.45-1.36,0.67
				c-0.31,0.15-0.47,0.66,0.03,0.56c0.62-0.13,1.16-0.45,1.73-0.71c0.16-0.07,0.43-0.22,0.43-0.43c0.01-0.19-0.18-0.23-0.35-0.19
				c-0.49,0.13-0.89,0.4-1.35,0.6c-0.16,0.07-0.43,0.23-0.43,0.43c-0.01,0.19,0.18,0.23,0.35,0.19c0.62-0.15,1.18-0.48,1.69-0.85
				c0.38-0.27,0.15-0.61-0.26-0.45c-0.48,0.19-0.93,0.4-1.36,0.69c-0.27,0.18-0.26,0.6,0.14,0.49c0.38-0.11,0.72-0.29,1.08-0.45
				c-0.05-0.17-0.1-0.35-0.15-0.52c-0.35,0.2-0.72,0.33-1.07,0.52c-0.4,0.22-0.39,0.74,0.15,0.52c0.46-0.18,0.84-0.48,1.27-0.73
				c0.4-0.23,0.4-0.72-0.15-0.52c-0.4,0.14-0.76,0.33-1.11,0.57c0.16,0.11,0.33,0.21,0.49,0.32c0.18-0.14,0.36-0.29,0.57-0.38
				c-0.09-0.15-0.17-0.3-0.26-0.45c-0.21,0.15-0.46,0.25-0.69,0.37c-0.41,0.21-0.38,0.76,0.15,0.52c0.14-0.06,0.28-0.13,0.43-0.18
				c-0.05-0.17-0.1-0.35-0.15-0.52c-0.2,0.11-0.39,0.24-0.58,0.37c-0.28,0.2-0.26,0.57,0.14,0.49c0.3-0.06,0.56-0.18,0.79-0.38
				c0.43-0.38,0.04-0.6-0.38-0.39c-1.06,0.53-2.18,0.88-3.33,1.15c-1.18,0.27-2.37,0.37-3.56,0.56c-0.07,0.22-0.14,0.44-0.2,0.65
				c0.73-0.19,1.52-0.1,2.27-0.23c0.76-0.13,1.53-0.28,2.27-0.5c0.72-0.21,1.41-0.51,2.08-0.85c0.56-0.28,1.08-0.8,1.69-0.96
				c-0.08-0.13-0.15-0.27-0.23-0.4c-0.02,0.02-0.04,0.04-0.05,0.07c-0.13,0.09-0.41,0.29-0.3,0.48c0.1,0.18,0.44,0.06,0.57-0.02
				c0.17-0.11,0.32-0.23,0.45-0.38c0.2-0.23,0.09-0.49-0.23-0.4c-0.64,0.17-1.15,0.56-1.7,0.9c-0.63,0.39-1.35,0.69-2.07,0.91
				c-0.74,0.23-1.51,0.36-2.27,0.5c-0.75,0.13-1.53,0.03-2.27,0.23c-0.19,0.05-0.5,0.2-0.54,0.43c-0.04,0.23,0.16,0.26,0.34,0.23
				c1.3-0.21,2.59-0.32,3.88-0.64c1.21-0.3,2.37-0.71,3.49-1.26c-0.13-0.13-0.25-0.26-0.38-0.39c-0.03,0.01-0.06,0.03-0.09,0.04
				c0.05,0.16,0.09,0.32,0.14,0.49c0.12-0.08,0.23-0.15,0.36-0.22c0.41-0.23,0.4-0.71-0.15-0.52c-0.15,0.05-0.28,0.11-0.43,0.18
				c0.05,0.17,0.1,0.35,0.15,0.52c0.32-0.16,0.62-0.31,0.91-0.52c0.36-0.26,0.15-0.64-0.26-0.45c-0.38,0.17-0.71,0.39-1.04,0.65
				c-0.13,0.1-0.3,0.31-0.14,0.46c0.16,0.15,0.5-0.06,0.63-0.14c0.2-0.14,0.42-0.23,0.65-0.31c-0.05-0.17-0.1-0.35-0.15-0.52
				c-0.35,0.2-0.66,0.47-1.03,0.62c0.05,0.17,0.1,0.35,0.15,0.52c0.35-0.19,0.72-0.32,1.07-0.52c0.13-0.07,0.37-0.27,0.31-0.45
				c-0.06-0.18-0.32-0.14-0.46-0.08c-0.28,0.13-0.55,0.29-0.85,0.38c0.05,0.16,0.09,0.32,0.14,0.49c0.27-0.19,0.59-0.3,0.9-0.43
				c-0.09-0.15-0.17-0.3-0.26-0.45c-0.3,0.21-0.64,0.42-1,0.51c-0.03,0.21-0.06,0.41-0.09,0.62c0.37-0.16,0.72-0.43,1.11-0.53
				c0.03-0.21,0.06-0.41,0.09-0.62c-0.49,0.22-0.96,0.53-1.5,0.64c0.01,0.19,0.02,0.37,0.03,0.56c0.45-0.22,0.93-0.4,1.36-0.67
				c0.13-0.08,0.41-0.29,0.3-0.48c-0.11-0.19-0.44-0.05-0.57,0.02c-0.49,0.27-0.95,0.64-1.52,0.72c-0.03,0.21-0.06,0.41-0.09,0.62
				c0.77-0.25,1.45-0.69,2.13-1.11c0.13-0.08,0.41-0.29,0.3-0.48c-0.11-0.18-0.44-0.06-0.57,0.02c-0.5,0.3-0.98,0.65-1.56,0.77
				c0.01,0.19,0.02,0.37,0.03,0.56c0.45-0.24,0.93-0.45,1.43-0.58c0.53-0.14,1.09-0.13,1.62-0.27c0.19-0.05,0.5-0.2,0.54-0.43
				C379.29,378.54,379.1,378.48,378.91,378.53L378.91,378.53z"/>
		</g>
	</g>
	<g>
		<g>
			<path class="st30" d="M375.63,380.16c0.03-0.02,0.06-0.04,0.08-0.06c-0.04,0.03-0.03,0.02,0.02-0.01
				c0.06-0.04,0.13-0.08,0.19-0.12c0.12-0.07,0.24-0.13,0.37-0.19c0.22-0.11,0.53-0.23,0.8-0.33c0.26-0.09,0.5-0.16,0.81-0.18
				c0.37-0.03,0.73-0.04,1.09-0.1c-0.01-0.19-0.02-0.37-0.03-0.56c-0.08,0.05,0.03,0.01-0.06,0.03c0.06-0.01-0.07,0.01-0.08,0.02
				c-0.09,0.02-0.18,0.02-0.28,0.03c-0.24,0.02-0.48,0.02-0.72,0.07c-0.23,0.05-0.46,0.14-0.68,0.22c-0.05,0.02-0.1,0.04-0.16,0.06
				c-0.05,0.02-0.06,0.02-0.08,0.03c-0.05,0.01-0.09,0.03-0.14,0.04c-0.03,0.01-0.03,0.01,0,0c-0.03,0-0.05,0-0.08,0
				c-0.23,0-0.49,0.16-0.61,0.35c-0.11,0.18-0.02,0.33,0.19,0.33c0.27,0,0.53-0.09,0.78-0.18c0.12-0.04,0.25-0.09,0.37-0.13
				c0.1-0.03,0.13-0.05,0.25-0.07c0.19-0.03,0.45-0.03,0.67-0.05c0.31-0.03,0.61-0.11,0.88-0.27c0.13-0.08,0.34-0.24,0.32-0.41
				c-0.02-0.17-0.22-0.17-0.35-0.15c-0.36,0.07-0.72,0.05-1.08,0.1c-0.39,0.04-0.75,0.15-1.11,0.28c-0.66,0.24-1.3,0.55-1.87,0.96
				c-0.12,0.09-0.31,0.33-0.14,0.46C375.18,380.43,375.49,380.26,375.63,380.16L375.63,380.16z"/>
		</g>
	</g>
	<g>
		<g>
			<path class="st30" d="M393.44,366.14c0.09,0.29,0.27,0.54,0.5,0.74c0.04,0.02,0.08,0.04,0.12,0.03c0.05,0.01,0.1,0,0.16-0.01
				c0.06-0.01,0.12-0.03,0.18-0.07c0.06-0.03,0.12-0.06,0.17-0.1c0.08-0.07,0.17-0.15,0.2-0.26c0-0.03,0.01-0.05,0.01-0.08
				c0-0.05-0.03-0.09-0.07-0.12c-0.04-0.03-0.07-0.06-0.11-0.1c0.02,0.02,0.03,0.04,0.05,0.05c-0.16-0.17-0.28-0.37-0.34-0.59
				c-0.02-0.04-0.05-0.06-0.09-0.07c-0.04-0.02-0.09-0.03-0.13-0.02c-0.11,0-0.25,0.05-0.35,0.11c-0.1,0.06-0.21,0.14-0.27,0.24
				c-0.01,0.03-0.03,0.06-0.04,0.09C393.41,366.04,393.41,366.09,393.44,366.14L393.44,366.14z"/>
		</g>
	</g>
	<g>
		<g>
			<path class="st30" d="M393.24,365.92c0.33,0.31,0.67,0.63,1,0.94c0.06,0.06,0.21,0.04,0.28,0.02c0.12-0.03,0.25-0.09,0.35-0.17
				c0.08-0.07,0.17-0.15,0.2-0.26c0-0.03,0.01-0.05,0.01-0.08c0-0.05-0.03-0.09-0.07-0.12c-0.33-0.31-0.67-0.63-1-0.94
				c-0.06-0.06-0.21-0.04-0.28-0.02c-0.12,0.03-0.25,0.09-0.35,0.17c-0.08,0.07-0.17,0.15-0.2,0.26c0,0.03-0.01,0.05-0.01,0.08
				C393.17,365.85,393.19,365.89,393.24,365.92L393.24,365.92z"/>
		</g>
	</g>
	<g>
		<g>
			<path class="st30" d="M394.55,367.24c0.24,0.2,0.5,0.39,0.75,0.58c0.16,0.12,0.44-0.02,0.57-0.11c0.08-0.06,0.16-0.12,0.21-0.21
				c0.03-0.06,0.09-0.18,0.03-0.24c-0.73-0.77-1.43-1.57-2.08-2.41c-0.13-0.17-0.41-0.08-0.57,0.02c-0.15,0.09-0.39,0.28-0.3,0.48
				c0.15,0.33,0.38,0.62,0.67,0.84c0.07,0.05,0.2,0.04,0.28,0.02c0.12-0.03,0.25-0.09,0.35-0.17c0.12-0.1,0.31-0.32,0.14-0.46
				c-0.25-0.2-0.43-0.45-0.56-0.74c-0.29,0.17-0.58,0.33-0.87,0.5c0.65,0.84,1.35,1.64,2.08,2.41c0.27-0.18,0.54-0.37,0.81-0.55
				c-0.26-0.19-0.51-0.38-0.75-0.58c-0.07-0.05-0.21-0.04-0.28-0.02c-0.12,0.03-0.25,0.09-0.35,0.17
				C394.56,366.88,394.38,367.1,394.55,367.24L394.55,367.24z"/>
		</g>
	</g>
	<g>
		<g>
			<path class="st30" d="M395.19,367.53c0.98,0.74,1.92,1.53,2.81,2.38c0.06,0.06,0.21,0.04,0.28,0.02
				c0.12-0.03,0.25-0.09,0.35-0.17c0.13-0.11,0.3-0.31,0.14-0.46c-0.89-0.85-1.83-1.65-2.81-2.38
				C395.67,366.72,394.86,367.29,395.19,367.53L395.19,367.53z"/>
		</g>
	</g>
	<g>
		<g>
			<path class="st30" d="M394.54,364.86c-0.17-1.62-0.14-3.26,0.1-4.87c0.07-0.48-0.83-0.14-0.88,0.2c-0.25,1.67-0.3,3.35-0.13,5.03
				C393.67,365.62,394.58,365.21,394.54,364.86L394.54,364.86z"/>
		</g>
	</g>
	<g>
		<g>
			<path class="st30" d="M394.92,359.7c0.09-0.26,0.19-0.51,0.28-0.77c0.03-0.07,0.01-0.16-0.06-0.2c-0.07-0.05-0.2-0.04-0.28-0.02
				c-0.12,0.03-0.25,0.09-0.35,0.17c-0.08,0.07-0.16,0.15-0.2,0.26c-0.09,0.26-0.19,0.51-0.28,0.77c-0.03,0.07-0.01,0.16,0.06,0.2
				c0.07,0.05,0.2,0.04,0.28,0.02c0.12-0.03,0.25-0.09,0.35-0.17C394.81,359.89,394.88,359.81,394.92,359.7L394.92,359.7z"/>
		</g>
	</g>
	<g>
		<g>
			<path class="st30" d="M398.06,355.71c1.43-2.01,2.81-4.17,3.18-6.65c0.19-1.27,0.06-2.51-0.3-3.73c-0.3-1.04-0.66-2.42-1.52-3.14
				c-0.27-0.22-1.08,0.34-0.76,0.61c0.46,0.38,0.66,0.94,0.87,1.48c0.24,0.6,0.47,1.22,0.63,1.85c0.28,1.13,0.36,2.29,0.15,3.43
				c-0.42,2.31-1.71,4.3-3.05,6.18c-0.13,0.19,0.01,0.31,0.19,0.33C397.68,356.09,397.94,355.88,398.06,355.71L398.06,355.71z"/>
		</g>
	</g>
	<g>
		<g>
			<path class="st30" d="M400.45,349.96c-0.08,0.38-0.03,0.79-0.13,1.16c-0.05,0.19-0.12,0.3-0.23,0.48
				c-0.11,0.18-0.22,0.36-0.33,0.55c-0.04,0.07-0.07,0.16-0.03,0.24c0.04,0.07,0.15,0.1,0.22,0.09c0.23-0.01,0.49-0.15,0.61-0.35
				c0.11-0.19,0.22-0.38,0.34-0.57c0.11-0.19,0.22-0.38,0.29-0.59c0.12-0.39,0.06-0.81,0.14-1.2c0.04-0.21-0.16-0.27-0.34-0.23
				C400.81,349.58,400.5,349.74,400.45,349.96L400.45,349.96z"/>
		</g>
	</g>
	<g>
		<g>
			<path class="st30" d="M390.15,346.46c0.04-1.04,0.2-2.07,0.51-3.06c0.07-0.23,0.14-0.39,0.36-0.51c0.22-0.12,0.49-0.18,0.73-0.26
				c0.5-0.17,1-0.33,1.51-0.46c0.96-0.26,2.02-0.61,3.02-0.46c1,0.14,1.89,0.72,2.73,1.25c0.25,0.16,1-0.23,0.81-0.55
				c-0.71-1.27-2.16-1.85-3.56-1.87c-1.82-0.02-3.51,0.89-5.07,1.73c-0.14,0.07-0.4,0.3-0.3,0.48c0.11,0.19,0.44,0.05,0.57-0.02
				c1.35-0.73,2.8-1.54,4.38-1.52c1.24,0.02,2.5,0.57,3.12,1.69c0.27-0.18,0.54-0.37,0.81-0.55c-0.98-0.63-2.03-1.27-3.22-1.35
				c-1.25-0.09-2.59,0.35-3.78,0.71c-0.95,0.28-2.38,0.52-2.85,1.51c-0.51,1.07-0.64,2.43-0.68,3.6
				C389.23,347.19,390.13,346.82,390.15,346.46L390.15,346.46z"/>
		</g>
	</g>
	<g>
		<g>
			<path class="st12" d="M342.61,412.53c-0.45,1.97-0.29,4.09-0.31,6.09c-0.02,2.07-0.09,4.15-0.04,6.22c0.01,0.39,0.92,0,0.91-0.36
				c-0.05-1.99,0.02-3.99,0.04-5.98c0.02-2.02-0.17-4.19,0.29-6.17C343.6,411.87,342.69,412.2,342.61,412.53L342.61,412.53z"/>
		</g>
	</g>
	<g>
		<g>
			<path class="st12" d="M300.68,451.79c-0.71-1.61-1.42-3.23-2.27-4.78c-0.81-1.48-1.92-2.83-2.49-4.43c-0.12-0.32-1,0.13-0.87,0.5
				c0.57,1.6,1.68,2.95,2.49,4.43c0.85,1.55,1.56,3.17,2.27,4.78C299.96,452.62,300.84,452.14,300.68,451.79L300.68,451.79z"/>
		</g>
	</g>
	<g>
		<g>
			<path class="st12" d="M299.8,452.42c0,0.01,0,0.03,0,0.04c0,0.04,0.02,0.07,0.05,0.1c0.02,0.03,0.06,0.05,0.1,0.06
				c0.05,0.01,0.1,0.01,0.15,0c0.06,0,0.12-0.02,0.17-0.04c0.04-0.02,0.08-0.04,0.12-0.06c0.07-0.04,0.14-0.1,0.2-0.16
				c0.02-0.03,0.04-0.06,0.07-0.09c0.03-0.05,0.05-0.11,0.05-0.17c0-0.01,0-0.03,0-0.04c0-0.04-0.02-0.07-0.05-0.1
				c-0.02-0.03-0.06-0.05-0.1-0.06c-0.05-0.01-0.1-0.01-0.15,0c-0.06,0-0.12,0.02-0.17,0.04c-0.04,0.02-0.08,0.04-0.12,0.06
				c-0.07,0.04-0.14,0.1-0.2,0.16c-0.02,0.03-0.04,0.06-0.07,0.09C299.82,452.3,299.8,452.36,299.8,452.42L299.8,452.42z"/>
		</g>
	</g>
	<g>
		<g>
			<path class="st12" d="M291.15,447.35c0.08,1.02-0.1,2.02-0.52,2.96c-0.1,0.21,0.2,0.26,0.34,0.23c0.23-0.06,0.44-0.2,0.54-0.43
				c0.44-0.97,0.62-2.05,0.54-3.12C292.03,446.59,291.13,446.99,291.15,447.35L291.15,447.35z"/>
		</g>
	</g>
	<g>
		<g>
			<path class="st12" d="M274.51,437.42c0.18,0.26,0.36,0.52,0.54,0.78c0.05,0.07,0.14,0.09,0.22,0.09c0.11,0,0.25-0.05,0.35-0.11
				c0.1-0.06,0.21-0.14,0.27-0.24c0.04-0.07,0.08-0.16,0.03-0.24c-0.18-0.26-0.36-0.52-0.54-0.78c-0.05-0.07-0.14-0.09-0.22-0.09
				c-0.11,0-0.25,0.05-0.35,0.11c-0.1,0.06-0.21,0.14-0.27,0.24C274.5,437.25,274.46,437.34,274.51,437.42L274.51,437.42z"/>
		</g>
	</g>
	<g>
		<g>
			<path class="st12" d="M274.78,437.84c1.08,2.49,2.58,4.78,4.42,6.77c0.26,0.29,1.09-0.25,0.87-0.5
				c-1.84-1.99-3.34-4.28-4.42-6.77C275.5,437.02,274.62,437.49,274.78,437.84L274.78,437.84z"/>
		</g>
	</g>
	<g>
		<g>
			<path class="st12" d="M275.47,437.91c0.68,0.34,1.34,0.71,1.97,1.12c0.28,0.18,1.07-0.3,0.76-0.61
				c-0.13-0.13-0.37-0.06-0.52-0.02c-0.18,0.05-0.45,0.26-0.44,0.47c0.02,0.23,0.34,0.15,0.47,0.11c0.01,0,0.02-0.01,0.03-0.01
				c-0.08,0.02-0.15,0.03-0.23,0.05c-0.09-0.04-0.12-0.04-0.08,0c0.25-0.2,0.51-0.4,0.76-0.61c-0.63-0.41-1.29-0.79-1.97-1.12
				c-0.2-0.1-0.47,0.01-0.63,0.14C275.52,437.53,275.26,437.81,275.47,437.91L275.47,437.91z"/>
		</g>
	</g>
	<g>
		<g>
			<path class="st12" d="M270.23,431.29c1.21,1.34,2.44,2.69,3.38,4.24c0.43,0.71,0.78,1.46,1.4,2.04c0.59,0.56,1.35,0.92,1.92,1.51
				c0.27,0.28,1.09-0.26,0.87-0.5c-0.53-0.56-1.2-0.93-1.79-1.41c-0.7-0.57-1.07-1.38-1.52-2.14c-0.94-1.55-2.17-2.9-3.38-4.24
				C270.84,430.5,270.01,431.04,270.23,431.29L270.23,431.29z"/>
		</g>
	</g>
</g>
</svg>
